<svg xmlns="http://www.w3.org/2000/svg" xmlns:xlink="http://www.w3.org/1999/xlink" viewBox="0 0 592 148"><defs><style>.a{fill:none;}.b{clip-path:url(#a);}.c{fill:#051d30;}.d{fill:#5aedc5;}.e{fill:#5559f7;}.f{fill:#f8648c;}.g{fill:#4facfc;}.h{fill:#ffda5d;}</style><clipPath id="a"><path class="a" d="M-3577.22-230c-6.12,0-11.69-5-11.69-11.13s5-11.12,11.69-11.12,11.68,5,11.68,11.12S-3571.1-230-3577.22-230Zm143.52-60.64c-1.11-8.9-6.67-16.13-13.9-21.69l-2.79-2.23-2.22,2.78c-4.45,5-6.12,13.91-5.56,20.59a29.86,29.86,0,0,0,5,13.9c-2.22,1.12-5,2.23-7.23,3.34a46.83,46.83,0,0,1-15,2.23H-3619.5l-.56,3.34a62.63,62.63,0,0,0,5,31.71l2.22,3.89v.56c13.35,22.25,37.27,32.26,63.42,32.26,50.07,0,91.24-21.69,110.71-68.42,12.79.55,25.59-2.79,31.71-15l1.67-2.79-2.79-1.67c-7.23-4.45-17.24-5-25.59-2.78Zm-71.76-8.9h-21.7v21.7h21.7Zm0-27.26h-21.7v21.7h21.7Zm0-27.81h-21.7V-333h21.7Zm26.7,55.07h-21.69v21.7h21.69Zm-80.66,0h-21.7v21.7h21.7v-21.7Zm27.26,0h-21.7v21.7h21.7Zm-54,0h-21.69v21.7h21.69v-21.7Zm54-27.26h-21.7v21.7h21.7Zm-27.26,0h-21.7v21.7h21.7v-21.7Z"/></clipPath></defs><title>icon-sprite</title><g class="b"><path class="c" d="M-3897.1-480.38H3194.73V361.87H-3897.1Z"/></g><path class="d" d="M562.6,123.4l-16-16a2.44,2.44,0,0,0-3.48,0c-4.59,4.71-9.05,9.46-13.24,14.15a2.45,2.45,0,0,0,1.22,4,79,79,0,0,0,30.14,2A2.45,2.45,0,0,0,562.6,123.4Z"/><path class="e" d="M538.52,99.33,519.65,80.45a2.44,2.44,0,0,0-3.46,0l-21.82,21.81a2.44,2.44,0,0,0,.09,3.55,91.43,91.43,0,0,0,24.61,15.63,2.44,2.44,0,0,0,2.79-.66c5.35-6.12,11-12.23,16.68-18A2.43,2.43,0,0,0,538.52,99.33Z"/><path class="e" d="M482.51,43.31,468.59,29.4a2.44,2.44,0,0,0-4.15,1.38,78.44,78.44,0,0,0,1.21,26.74,2.45,2.45,0,0,0,4,1.29c4.18-3.76,8.47-7.78,12.8-12A2.45,2.45,0,0,0,482.51,43.31Z"/><path class="e" d="M511.55,72.35,490.61,51.41a2.44,2.44,0,0,0-3.43,0c-5.51,5.37-11.31,10.78-17.13,15.9a2.42,2.42,0,0,0-.68,2.7,90.82,90.82,0,0,0,16.82,27.55,2.43,2.43,0,0,0,3.54.09l21.82-21.82A2.44,2.44,0,0,0,511.55,72.35Z"/><path class="f" d="M518,0a73.52,73.52,0,0,0-34.79,8.67,2.45,2.45,0,0,0,1.21,4.59,87.34,87.34,0,0,1,24.31,3.45,2.47,2.47,0,0,0,2.56-.77c3.54-4.23,6.73-8.26,9.53-12A2.45,2.45,0,0,0,518.88,0Z"/><path class="f" d="M592,74c0-1.59-.06-3.16-.16-4.73a2.45,2.45,0,0,0-3.87-1.8c-4,2.93-8.38,6.33-12.87,10.08a2.45,2.45,0,0,0-.75,2.64,87.86,87.86,0,0,1,4.39,27.42,2.44,2.44,0,0,0,4.59,1.18A73.52,73.52,0,0,0,592,74Z"/><path class="g" d="M541.54,42.19A90.82,90.82,0,0,0,514,25.37a2.42,2.42,0,0,0-2.7.68c-5.17,5.88-10.63,11.74-16.06,17.29a2.44,2.44,0,0,0,0,3.44l20.94,20.93a2.44,2.44,0,0,0,3.46,0l22-22A2.43,2.43,0,0,0,541.54,42.19Z"/><path class="d" d="M473.1,24.63l14,14.05a2.47,2.47,0,0,0,3.49,0c4.29-4.39,8.36-8.74,12.17-13a2.46,2.46,0,0,0-1.29-4.05,78.92,78.92,0,0,0-27-1.17A2.45,2.45,0,0,0,473.1,24.63Z"/><path class="e" d="M530,2.46c-3.15,4.59-6.88,9.48-11,14.48a2.43,2.43,0,0,0,.9,3.77,97.74,97.74,0,0,1,26.44,17,2.45,2.45,0,0,0,3.38-.08l16.37-16.37a2.42,2.42,0,0,0-.11-3.56A73.31,73.31,0,0,0,532.46,1.42,2.45,2.45,0,0,0,530,2.46Z"/><path class="d" d="M552.75,139.35a2.45,2.45,0,0,0-1.21-4.59h-.1a87.9,87.9,0,0,1-27.24-4.42,2.45,2.45,0,0,0-2.64.75c-3.75,4.49-7.16,8.83-10.09,12.89a2.44,2.44,0,0,0,1.8,3.86c1.57.11,3.14.16,4.73.16A73.49,73.49,0,0,0,552.75,139.35Z"/><path class="g" d="M551.2,102.73l16.17,16.17a2.45,2.45,0,0,0,4.16-1.37,79.3,79.3,0,0,0-2-30.47,2.46,2.46,0,0,0-4-1.23c-4.74,4.25-9.56,8.76-14.31,13.41A2.45,2.45,0,0,0,551.2,102.73Z"/><path class="g" d="M546.26,50.37l-22,22a2.44,2.44,0,0,0,0,3.46l18.87,18.88a2.44,2.44,0,0,0,3.43,0c5.84-5.7,12-11.45,18.19-16.85a2.44,2.44,0,0,0,.66-2.79,91.28,91.28,0,0,0-15.63-24.61A2.44,2.44,0,0,0,546.26,50.37Z"/><path class="f" d="M570.75,25.89,554.38,42.26a2.45,2.45,0,0,0-.08,3.38,98.11,98.11,0,0,1,15.78,23.75,2.43,2.43,0,0,0,3.73.84c5.22-4.24,10.3-8.07,15-11.24a2.44,2.44,0,0,0,1-2.6,73.12,73.12,0,0,0-15.52-30.33A2.45,2.45,0,0,0,570.75,25.89Z"/><path class="d" d="M460.71,64.73a87,87,0,0,1-3.45-24.31,2.45,2.45,0,0,0-4.6-1.21A73.63,73.63,0,0,0,444,74c0,.29,0,.59,0,.88a2.45,2.45,0,0,0,3.9,1.94c3.77-2.8,7.8-6,12-9.53A2.46,2.46,0,0,0,460.71,64.73Z"/><path class="h" d="M481.7,102.36a97.74,97.74,0,0,1-17-26.44,2.43,2.43,0,0,0-3.77-.9c-5,4.08-9.89,7.81-14.48,11a2.45,2.45,0,0,0-1,2.48A73.21,73.21,0,0,0,461.69,122a2.42,2.42,0,0,0,3.56.11l16.37-16.37A2.45,2.45,0,0,0,481.7,102.36Z"/><path class="g" d="M513.39,126.08a98.88,98.88,0,0,1-23.74-15.79,2.43,2.43,0,0,0-3.37.07l-16.39,16.39a2.45,2.45,0,0,0,.17,3.61,73.12,73.12,0,0,0,30.33,15.52,2.45,2.45,0,0,0,2.6-1c3.17-4.74,7-9.83,11.24-15A2.42,2.42,0,0,0,513.39,126.08Z"/><path class="d" d="M414.6,123.4l-16-16a2.44,2.44,0,0,0-3.48,0c-4.59,4.71-9.05,9.46-13.24,14.15a2.45,2.45,0,0,0,1.22,4,79,79,0,0,0,30.14,2A2.45,2.45,0,0,0,414.6,123.4Z"/><path class="g" d="M390.52,99.33,371.65,80.45a2.44,2.44,0,0,0-3.46,0l-21.82,21.81a2.44,2.44,0,0,0,.09,3.55,91.43,91.43,0,0,0,24.61,15.63,2.44,2.44,0,0,0,2.79-.66c5.35-6.12,11-12.23,16.68-18A2.43,2.43,0,0,0,390.52,99.33Z"/><path class="d" d="M334.51,43.31,320.59,29.4a2.44,2.44,0,0,0-4.15,1.38,78.44,78.44,0,0,0,1.21,26.74,2.45,2.45,0,0,0,4,1.29c4.18-3.76,8.47-7.78,12.8-12A2.45,2.45,0,0,0,334.51,43.31Z"/><path class="h" d="M363.55,72.35,342.61,51.41a2.44,2.44,0,0,0-3.43,0c-5.51,5.37-11.31,10.78-17.13,15.9a2.42,2.42,0,0,0-.68,2.7,90.82,90.82,0,0,0,16.82,27.55,2.43,2.43,0,0,0,3.54.09l21.82-21.82A2.44,2.44,0,0,0,363.55,72.35Z"/><path class="d" d="M370,0a73.52,73.52,0,0,0-34.79,8.67,2.45,2.45,0,0,0,1.21,4.59,87.34,87.34,0,0,1,24.31,3.45,2.47,2.47,0,0,0,2.56-.77c3.54-4.23,6.73-8.26,9.53-12A2.45,2.45,0,0,0,370.88,0Z"/><path class="g" d="M444,74c0-1.59-.06-3.16-.16-4.73a2.45,2.45,0,0,0-3.87-1.8c-4,2.93-8.38,6.33-12.87,10.08a2.45,2.45,0,0,0-.75,2.64,87.86,87.86,0,0,1,4.39,27.42,2.44,2.44,0,0,0,4.59,1.18A73.52,73.52,0,0,0,444,74Z"/><path class="e" d="M393.54,42.19A90.82,90.82,0,0,0,366,25.37a2.42,2.42,0,0,0-2.7.68c-5.17,5.88-10.63,11.74-16.06,17.29a2.44,2.44,0,0,0,0,3.44l20.94,20.93a2.44,2.44,0,0,0,3.46,0l22-22A2.43,2.43,0,0,0,393.54,42.19Z"/><path class="e" d="M325.1,24.63l14,14.05a2.47,2.47,0,0,0,3.49,0c4.29-4.39,8.36-8.74,12.17-13a2.46,2.46,0,0,0-1.29-4.05,78.92,78.92,0,0,0-27-1.17A2.45,2.45,0,0,0,325.1,24.63Z"/><path class="g" d="M382,2.46c-3.15,4.59-6.88,9.48-11,14.48a2.43,2.43,0,0,0,.9,3.77,97.74,97.74,0,0,1,26.44,17,2.45,2.45,0,0,0,3.38-.08l16.37-16.37a2.42,2.42,0,0,0-.11-3.56A73.31,73.31,0,0,0,384.46,1.42,2.45,2.45,0,0,0,382,2.46Z"/><path class="f" d="M404.75,139.35a2.45,2.45,0,0,0-1.21-4.59h-.1a87.9,87.9,0,0,1-27.24-4.42,2.45,2.45,0,0,0-2.64.75c-3.75,4.49-7.16,8.83-10.09,12.89a2.44,2.44,0,0,0,1.8,3.86c1.57.11,3.14.16,4.73.16A73.49,73.49,0,0,0,404.75,139.35Z"/><path class="d" d="M403.2,102.73l16.17,16.17a2.45,2.45,0,0,0,4.16-1.37,79.3,79.3,0,0,0-2-30.47,2.46,2.46,0,0,0-4-1.23c-4.74,4.25-9.56,8.76-14.31,13.41A2.45,2.45,0,0,0,403.2,102.73Z"/><path class="e" d="M398.26,50.37l-22,22a2.44,2.44,0,0,0,0,3.46l18.87,18.88a2.44,2.44,0,0,0,3.43,0c5.84-5.7,12-11.45,18.19-16.85a2.44,2.44,0,0,0,.66-2.79,91.28,91.28,0,0,0-15.63-24.61A2.44,2.44,0,0,0,398.26,50.37Z"/><path class="g" d="M422.75,25.89,406.38,42.26a2.45,2.45,0,0,0-.08,3.38,98.11,98.11,0,0,1,15.78,23.75,2.43,2.43,0,0,0,3.73.84c5.22-4.24,10.3-8.07,15-11.24a2.44,2.44,0,0,0,1-2.6,73.12,73.12,0,0,0-15.52-30.33A2.45,2.45,0,0,0,422.75,25.89Z"/><path class="f" d="M312.71,64.73a87,87,0,0,1-3.45-24.31,2.45,2.45,0,0,0-4.6-1.21A73.63,73.63,0,0,0,296,74c0,.29,0,.59,0,.88a2.45,2.45,0,0,0,3.9,1.94c3.77-2.8,7.8-6,12-9.53A2.46,2.46,0,0,0,312.71,64.73Z"/><path class="e" d="M333.7,102.36a97.74,97.74,0,0,1-17-26.44,2.43,2.43,0,0,0-3.77-.9c-5,4.08-9.89,7.81-14.48,11a2.45,2.45,0,0,0-1,2.48A73.21,73.21,0,0,0,313.69,122a2.42,2.42,0,0,0,3.56.11l16.37-16.37A2.45,2.45,0,0,0,333.7,102.36Z"/><path class="f" d="M365.39,126.08a98.88,98.88,0,0,1-23.74-15.79,2.43,2.43,0,0,0-3.37.07l-16.39,16.39a2.45,2.45,0,0,0,.17,3.61,73.12,73.12,0,0,0,30.33,15.52,2.45,2.45,0,0,0,2.6-1c3.17-4.74,7-9.83,11.24-15A2.42,2.42,0,0,0,365.39,126.08Z"/><path class="f" d="M266.6,123.4l-16-16a2.44,2.44,0,0,0-3.48,0c-4.59,4.71-9.05,9.46-13.24,14.15a2.45,2.45,0,0,0,1.22,4,79,79,0,0,0,30.14,2A2.45,2.45,0,0,0,266.6,123.4Z"/><path class="f" d="M242.52,99.33,223.65,80.45a2.44,2.44,0,0,0-3.46,0l-21.82,21.81a2.44,2.44,0,0,0,.09,3.55,91.43,91.43,0,0,0,24.61,15.63,2.44,2.44,0,0,0,2.79-.66c5.35-6.12,11-12.23,16.68-18A2.43,2.43,0,0,0,242.52,99.33Z"/><path class="f" d="M186.51,43.31,172.59,29.4a2.44,2.44,0,0,0-4.15,1.38,78.44,78.44,0,0,0,1.21,26.74,2.45,2.45,0,0,0,4,1.29c4.18-3.76,8.47-7.78,12.8-12A2.45,2.45,0,0,0,186.51,43.31Z"/><path class="e" d="M215.55,72.35,194.61,51.41a2.44,2.44,0,0,0-3.43,0c-5.51,5.37-11.31,10.78-17.13,15.9a2.42,2.42,0,0,0-.68,2.7,90.82,90.82,0,0,0,16.82,27.55,2.43,2.43,0,0,0,3.54.09l21.82-21.82A2.44,2.44,0,0,0,215.55,72.35Z"/><path class="e" d="M222,0a73.52,73.52,0,0,0-34.79,8.67,2.45,2.45,0,0,0,1.21,4.59,87.34,87.34,0,0,1,24.31,3.45,2.47,2.47,0,0,0,2.56-.77c3.54-4.23,6.73-8.26,9.53-12A2.45,2.45,0,0,0,222.88,0Z"/><path class="d" d="M296,74c0-1.59-.06-3.16-.16-4.73a2.45,2.45,0,0,0-3.87-1.8c-4,2.93-8.38,6.33-12.87,10.08a2.45,2.45,0,0,0-.75,2.64,87.86,87.86,0,0,1,4.39,27.42,2.44,2.44,0,0,0,4.59,1.18A73.52,73.52,0,0,0,296,74Z"/><path class="h" d="M245.54,42.19A90.82,90.82,0,0,0,218,25.37a2.42,2.42,0,0,0-2.7.68c-5.17,5.88-10.63,11.74-16.06,17.29a2.44,2.44,0,0,0,0,3.44l20.94,20.93a2.44,2.44,0,0,0,3.46,0l22-22A2.43,2.43,0,0,0,245.54,42.19Z"/><path class="d" d="M177.1,24.63l14.05,14.05a2.47,2.47,0,0,0,3.49,0c4.29-4.39,8.36-8.74,12.17-13a2.46,2.46,0,0,0-1.29-4.05,78.92,78.92,0,0,0-27-1.17A2.45,2.45,0,0,0,177.1,24.63Z"/><path class="e" d="M234,2.46c-3.15,4.59-6.88,9.48-11,14.48a2.43,2.43,0,0,0,.9,3.77,97.74,97.74,0,0,1,26.44,17,2.45,2.45,0,0,0,3.38-.08l16.37-16.37a2.42,2.42,0,0,0-.11-3.56A73.31,73.31,0,0,0,236.46,1.42,2.45,2.45,0,0,0,234,2.46Z"/><path class="g" d="M256.75,139.35a2.45,2.45,0,0,0-1.21-4.59h-.1a87.9,87.9,0,0,1-27.24-4.42,2.45,2.45,0,0,0-2.64.75c-3.75,4.49-7.16,8.83-10.09,12.89a2.44,2.44,0,0,0,1.8,3.86c1.57.11,3.14.16,4.73.16A73.49,73.49,0,0,0,256.75,139.35Z"/><path class="d" d="M255.2,102.73l16.17,16.17a2.45,2.45,0,0,0,4.16-1.37,79.3,79.3,0,0,0-2-30.47,2.46,2.46,0,0,0-4-1.23c-4.74,4.25-9.56,8.76-14.31,13.41A2.45,2.45,0,0,0,255.2,102.73Z"/><path class="g" d="M250.26,50.37l-22,22a2.44,2.44,0,0,0,0,3.46l18.87,18.88a2.44,2.44,0,0,0,3.43,0c5.84-5.7,12-11.45,18.19-16.85a2.44,2.44,0,0,0,.66-2.79,91.28,91.28,0,0,0-15.63-24.61A2.44,2.44,0,0,0,250.26,50.37Z"/><path class="e" d="M274.75,25.89,258.38,42.26a2.45,2.45,0,0,0-.08,3.38,98.11,98.11,0,0,1,15.78,23.75,2.43,2.43,0,0,0,3.73.84c5.22-4.24,10.3-8.07,15-11.24a2.44,2.44,0,0,0,1-2.6,73.12,73.12,0,0,0-15.52-30.33A2.45,2.45,0,0,0,274.75,25.89Z"/><path class="d" d="M164.71,64.73a87,87,0,0,1-3.45-24.31,2.45,2.45,0,0,0-4.6-1.21A73.63,73.63,0,0,0,148,74c0,.29,0,.59,0,.88a2.45,2.45,0,0,0,3.9,1.94c3.77-2.8,7.8-6,12-9.53A2.46,2.46,0,0,0,164.71,64.73Z"/><path class="g" d="M185.7,102.36a97.74,97.74,0,0,1-17-26.44,2.43,2.43,0,0,0-3.77-.9c-5,4.08-9.89,7.81-14.48,11a2.45,2.45,0,0,0-1,2.48A73.21,73.21,0,0,0,165.69,122a2.42,2.42,0,0,0,3.56.11l16.37-16.37A2.45,2.45,0,0,0,185.7,102.36Z"/><path class="g" d="M217.39,126.08a98.88,98.88,0,0,1-23.74-15.79,2.43,2.43,0,0,0-3.37.07l-16.39,16.39a2.45,2.45,0,0,0,.17,3.61,73.12,73.12,0,0,0,30.33,15.52,2.45,2.45,0,0,0,2.6-1c3.17-4.74,7-9.83,11.24-15A2.42,2.42,0,0,0,217.39,126.08Z"/><path class="g" d="M118.6,123.4l-16-16a2.44,2.44,0,0,0-3.48,0c-4.59,4.71-9,9.46-13.24,14.15a2.45,2.45,0,0,0,1.22,4,79,79,0,0,0,30.14,2A2.45,2.45,0,0,0,118.6,123.4Z"/><path class="g" d="M94.52,99.33,75.65,80.45a2.44,2.44,0,0,0-3.46,0L50.37,102.26a2.44,2.44,0,0,0,.09,3.55,91.43,91.43,0,0,0,24.61,15.63,2.44,2.44,0,0,0,2.79-.66c5.35-6.12,11-12.23,16.68-18A2.43,2.43,0,0,0,94.52,99.33Z"/><path class="d" d="M38.51,43.31,24.59,29.4a2.44,2.44,0,0,0-4.15,1.38,78.44,78.44,0,0,0,1.21,26.74,2.45,2.45,0,0,0,4,1.29c4.18-3.76,8.47-7.78,12.8-12A2.45,2.45,0,0,0,38.51,43.31Z"/><path class="g" d="M67.55,72.35,46.61,51.41a2.44,2.44,0,0,0-3.43,0c-5.51,5.37-11.31,10.78-17.13,15.9a2.42,2.42,0,0,0-.68,2.7A90.82,90.82,0,0,0,42.19,97.54a2.43,2.43,0,0,0,3.54.09L67.55,75.81A2.44,2.44,0,0,0,67.55,72.35Z"/><path class="d" d="M74,0A73.52,73.52,0,0,0,39.21,8.67a2.45,2.45,0,0,0,1.21,4.59,87.34,87.34,0,0,1,24.31,3.45,2.47,2.47,0,0,0,2.56-.77c3.54-4.23,6.73-8.26,9.53-12A2.45,2.45,0,0,0,74.88,0Z"/><path class="d" d="M148,74c0-1.59-.06-3.16-.16-4.73a2.45,2.45,0,0,0-3.87-1.8c-4,2.93-8.38,6.33-12.87,10.08a2.45,2.45,0,0,0-.75,2.64,87.86,87.86,0,0,1,4.39,27.42,2.44,2.44,0,0,0,4.59,1.18A73.52,73.52,0,0,0,148,74Z"/><path class="e" d="M97.54,42.19A90.82,90.82,0,0,0,70,25.37a2.42,2.42,0,0,0-2.7.68c-5.17,5.88-10.63,11.74-16.06,17.29a2.44,2.44,0,0,0,0,3.44L72.19,67.71a2.44,2.44,0,0,0,3.46,0l22-22A2.43,2.43,0,0,0,97.54,42.19Z"/><path class="f" d="M29.1,24.63l14,14.05a2.47,2.47,0,0,0,3.49,0c4.29-4.39,8.36-8.74,12.17-13a2.46,2.46,0,0,0-1.29-4.05,78.92,78.92,0,0,0-27-1.17A2.45,2.45,0,0,0,29.1,24.63Z"/><path class="h" d="M86,2.46c-3.15,4.59-6.88,9.48-11,14.48a2.43,2.43,0,0,0,.9,3.77,97.74,97.74,0,0,1,26.44,17,2.45,2.45,0,0,0,3.38-.08l16.37-16.37a2.42,2.42,0,0,0-.11-3.56A73.31,73.31,0,0,0,88.46,1.42,2.45,2.45,0,0,0,86,2.46Z"/><path class="d" d="M108.75,139.35a2.45,2.45,0,0,0-1.21-4.59h-.1a87.9,87.9,0,0,1-27.24-4.42,2.45,2.45,0,0,0-2.64.75c-3.75,4.49-7.16,8.83-10.09,12.89a2.44,2.44,0,0,0,1.8,3.86c1.57.11,3.14.16,4.73.16A73.49,73.49,0,0,0,108.75,139.35Z"/><path class="f" d="M107.2,102.73l16.17,16.17a2.45,2.45,0,0,0,4.16-1.37,79.3,79.3,0,0,0-2-30.47,2.46,2.46,0,0,0-4-1.23c-4.74,4.25-9.56,8.76-14.31,13.41A2.45,2.45,0,0,0,107.2,102.73Z"/><path class="f" d="M102.26,50.37l-22,22a2.44,2.44,0,0,0,0,3.46L99.16,94.69a2.44,2.44,0,0,0,3.43,0c5.84-5.7,12-11.45,18.19-16.85a2.44,2.44,0,0,0,.66-2.79,91.28,91.28,0,0,0-15.63-24.61A2.44,2.44,0,0,0,102.26,50.37Z"/><path class="g" d="M126.75,25.89,110.38,42.26a2.45,2.45,0,0,0-.08,3.38,98.11,98.11,0,0,1,15.78,23.75,2.43,2.43,0,0,0,3.73.84c5.22-4.24,10.3-8.07,15-11.24a2.44,2.44,0,0,0,1-2.6,73.12,73.12,0,0,0-15.52-30.33A2.45,2.45,0,0,0,126.75,25.89Z"/><path class="e" d="M16.71,64.73a87,87,0,0,1-3.45-24.31,2.45,2.45,0,0,0-4.6-1.21A73.63,73.63,0,0,0,0,74c0,.29,0,.59,0,.88a2.45,2.45,0,0,0,3.9,1.94c3.77-2.8,7.8-6,12-9.53A2.46,2.46,0,0,0,16.71,64.73Z"/><path class="e" d="M37.7,102.36a97.74,97.74,0,0,1-17-26.44,2.43,2.43,0,0,0-3.77-.9c-5,4.08-9.89,7.81-14.48,11a2.45,2.45,0,0,0-1,2.48A73.21,73.21,0,0,0,17.69,122a2.42,2.42,0,0,0,3.56.11l16.37-16.37A2.45,2.45,0,0,0,37.7,102.36Z"/><path class="e" d="M69.39,126.08a98.88,98.88,0,0,1-23.74-15.79,2.43,2.43,0,0,0-3.37.07L25.89,126.75a2.45,2.45,0,0,0,.17,3.61,73.12,73.12,0,0,0,30.33,15.52,2.45,2.45,0,0,0,2.6-1c3.17-4.74,7-9.83,11.24-15A2.42,2.42,0,0,0,69.39,126.08Z"/></svg>