<svg xmlns="http://www.w3.org/2000/svg" xmlns:xlink="http://www.w3.org/1999/xlink" viewBox="0 0 390 505"><defs><style>.a,.k{fill:none;}.b{fill:#242a55;}.c{clip-path:url(#a);}.d,.l{isolation:isolate;}.e{fill:#fff;}.f{fill:#5aedc5;}.g{fill:#333889;}.h{fill:url(#b);}.i{fill:#e1e4ea;}.j{fill:#eff1f4;fill-rule:evenodd;}.k{stroke:#e3ebf6;}.l{opacity:0.34;fill:url(#c);}</style><clipPath id="a"><rect class="a" x="2.45" y="200" width="387" height="304" rx="12"/></clipPath><linearGradient id="b" x1="-1199.26" y1="-641.71" x2="-1198.74" y2="-635.79" gradientTransform="matrix(390, 0, 0, -76.71, 467870.48, -49108.51)" gradientUnits="userSpaceOnUse"><stop offset="0" stop-color="#242a55"/><stop offset="1" stop-color="#5256f2"/></linearGradient><linearGradient id="c" x1="-1199.31" y1="-627.97" x2="-1198.65" y2="-627.98" gradientTransform="matrix(387, 0, 0, -304, 464273.61, -190552.07)" gradientUnits="userSpaceOnUse"><stop offset="0" stop-color="#242a55" stop-opacity="0"/><stop offset="1" stop-color="#242a55"/></linearGradient></defs><title>step-03</title><rect class="b" x="0.45" y="200" width="389" height="304" rx="12"/><g class="c"><g class="d"><g class="d"><path class="e" d="M27.26,373.38a.4.4,0,0,1-.44-.39v-1a.4.4,0,0,1,.44-.38h3.5V359.1l-3.46,1.45c-.17.07-.48.14-.48-.17v-1.12c0-.16.06-.2.22-.29l3.94-1.8a1,1,0,0,1,.46-.14h.9a.42.42,0,0,1,.42.42v14.19h3.52a.4.4,0,0,1,.44.38v1a.4.4,0,0,1-.44.39Z"/><path class="e" d="M41.51,364.19h-1a.44.44,0,0,1-.44-.42v-2a.46.46,0,0,1,.44-.44h1a.46.46,0,0,1,.44.44v2A.42.42,0,0,1,41.51,364.19Zm0,9.19h-1A.43.43,0,0,1,40,373V370.9a.44.44,0,0,1,.44-.42h1a.43.43,0,0,1,.44.42V373A.41.41,0,0,1,41.51,373.38Z"/><path class="e" d="M52.12,365.07,50,366.5c-2.45,1.65-3.08,2.77-3.08,4.68v.46h7.41a.4.4,0,0,1,.44.38v1a.4.4,0,0,1-.44.39H45.61a.41.41,0,0,1-.44-.41v-1.79a6.58,6.58,0,0,1,3.36-5.78l2.22-1.5c1.83-1.23,2.27-1.76,2.27-3.08,0-1.59-.92-2.27-3.3-2.27a31.42,31.42,0,0,0-3.89.33h-.09a.35.35,0,0,1-.36-.39v-.77c0-.22.2-.36.42-.4a16.93,16.93,0,0,1,3.92-.44c3.56,0,5.26,1.23,5.26,3.94C55,362.56,54.16,363.68,52.12,365.07Z"/><path class="e" d="M63.38,373.54c-3.32,0-5.41-2-5.41-6.85v-3c0-4.86,2.09-6.84,5.41-6.84s5.39,2,5.39,6.84v3C68.77,371.56,66.7,373.54,63.38,373.54Zm3.39-9.82c0-3.71-1.32-5.15-3.39-5.15S60,360,60,363.72v3c0,3.72,1.32,5.15,3.39,5.15s3.39-1.43,3.39-5.15Z"/><path class="e" d="M73,364.19h-1a.44.44,0,0,1-.44-.42v-2a.45.45,0,0,1,.44-.44h1a.46.46,0,0,1,.44.44v2A.43.43,0,0,1,73,364.19Zm0,9.19h-1a.43.43,0,0,1-.44-.41V370.9a.43.43,0,0,1,.44-.42h1a.43.43,0,0,1,.44.42V373A.42.42,0,0,1,73,373.38Z"/><path class="e" d="M86.9,369H85v3.91a.41.41,0,0,1-.38.44H83.34a.39.39,0,0,1-.38-.44V369H76.6c-.66,0-.9-.22-.9-.86v-.84a1.32,1.32,0,0,1,.26-.81l6.52-9.13a.66.66,0,0,1,.64-.36h1.29c.36,0,.58.16.58.49v9.83H86.9a.41.41,0,0,1,.42.4v.88A.39.39,0,0,1,86.9,369ZM83,359.83c0-.09,0-.13-.08-.13h0a.24.24,0,0,0-.17.13l-5.08,7.22a.29.29,0,0,0-.07.17c0,.09.07.13.17.13H83Z"/><path class="e" d="M99.59,359.56l-6.33,13.49a.52.52,0,0,1-.49.33H91.45a.31.31,0,0,1-.33-.33.47.47,0,0,1,.07-.24L97.83,359s0,0,0-.09a.16.16,0,0,0-.16-.15H90.2c-.24,0-.44-.13-.44-.37v-.93a.44.44,0,0,1,.44-.42h8c1.23,0,1.65.64,1.65,1.39A2.64,2.64,0,0,1,99.59,359.56Z"/><path class="e" d="M112.79,366.87c-.7,0-1.63-.07-2.2-.11v6.18a.42.42,0,0,1-.39.44H109a.42.42,0,0,1-.4-.44V357.61a.54.54,0,0,1,.53-.55,35.31,35.31,0,0,1,3.65-.18c3.57,0,6.16,1.23,6.16,4.78v.28C119,365.62,116.36,366.87,112.79,366.87Zm4.16-5.21c0-2.23-1.32-3.09-4.16-3.09-.68,0-1.67.05-2.2.09v6.45c.51,0,1.63.09,2.2.09,3,0,4.16-1,4.16-3.26Z"/><path class="e" d="M134.55,373.38h-1.08a.44.44,0,0,1-.44-.44V359.89s0-.06,0-.06,0,0,0,0l-3.15,6.52a.94.94,0,0,1-1,.63h-1a.94.94,0,0,1-1-.63l-3.15-6.52s0,0,0,0,0,0,0,.06v13.05a.44.44,0,0,1-.44.44H122.1a.44.44,0,0,1-.44-.44V357.67a.64.64,0,0,1,.64-.64h1.43c.39,0,.57.09.7.38l3.63,7.55c.09.19.15.24.27.24s.17-.05.26-.24l3.63-7.55c.13-.29.31-.38.7-.38h1.43a.64.64,0,0,1,.64.64v15.27A.44.44,0,0,1,134.55,373.38Z"/></g></g><g class="d"><path class="f" d="M40.54,342.71H39a.48.48,0,0,1-.45-.39l-1.69-6H30.14l-1.67,6a.52.52,0,0,1-.46.39H26.47a.41.41,0,0,1-.44-.41.42.42,0,0,1,0-.19l4.81-16.92a2.55,2.55,0,0,1,2.65-2,2.51,2.51,0,0,1,2.62,2L41,342.11a.62.62,0,0,1,0,.19A.4.4,0,0,1,40.54,342.71Zm-6.53-17c-.07-.28-.23-.47-.49-.47s-.44.19-.52.47l-2.37,8.56h5.75Z"/><path class="f" d="M53.7,342.71H52.4a.5.5,0,0,1-.5-.52v-.49a7.88,7.88,0,0,1-4.13,1.19c-3.12,0-4.53-1.95-4.53-5.41v-8.55a.52.52,0,0,1,.52-.52H45a.52.52,0,0,1,.52.52v8.55c0,2.63.89,3.44,2.86,3.44a8.2,8.2,0,0,0,3.51-1v-11a.54.54,0,0,1,.52-.52H53.7a.51.51,0,0,1,.49.52v13.26A.5.5,0,0,1,53.7,342.71Z"/><path class="f" d="M64.85,342.76a12.37,12.37,0,0,1-1.69.13c-2.39,0-3.54-.62-3.54-3.48v-9.08l-2.52-.28c-.29,0-.49-.18-.49-.47v-.7a.45.45,0,0,1,.49-.47h2.52v-2.55a.53.53,0,0,1,.47-.52l1.35-.2h.08a.41.41,0,0,1,.39.44v2.83h2.81a.52.52,0,0,1,.52.52v.88a.52.52,0,0,1-.52.52H61.91v9.08c0,1.43.37,1.64,1.4,1.64h1.46c.36,0,.55.1.55.36v.91C65.32,342.55,65.19,342.71,64.85,342.76Z"/><path class="f" d="M72.65,342.89c-3.82,0-5.77-2.52-5.77-6.34v-2c0-3.82,2-6.34,5.77-6.34s5.8,2.52,5.8,6.34v2C78.45,340.37,76.47,342.89,72.65,342.89Zm3.51-8.32c0-2.65-1.07-4.34-3.51-4.34s-3.49,1.66-3.49,4.34v2c0,2.65,1,4.34,3.49,4.34s3.51-1.66,3.51-4.34Z"/><path class="f" d="M98.21,342.71H97a.52.52,0,0,1-.52-.52V333c0-2.19-1-2.79-2.37-2.79a9.09,9.09,0,0,0-3,.71,7.51,7.51,0,0,1,.24,2v9.26a.5.5,0,0,1-.47.52H89.42a.47.47,0,0,1-.44-.52v-9.26c0-2.26-.65-2.73-2-2.73a7.84,7.84,0,0,0-3.17,1v11a.49.49,0,0,1-.47.52H82a.48.48,0,0,1-.45-.52V328.93a.5.5,0,0,1,.5-.52h1.3a.5.5,0,0,1,.49.52v.5a7.24,7.24,0,0,1,3.8-1.23,3.15,3.15,0,0,1,2.6,1.07,10.37,10.37,0,0,1,4.32-1.07c2.34,0,4.21,1.17,4.21,4.79v9.2A.52.52,0,0,1,98.21,342.71Z"/><path class="f" d="M111.7,342.71h-1.2a.52.52,0,0,1-.52-.52v-.57a7.84,7.84,0,0,1-4,1.27c-2.21,0-4.24-1-4.24-4.21v-.31c0-2.81,1.64-4.21,6.27-4.21h1.92v-1c0-2.19-.75-2.94-2.78-2.94a36.23,36.23,0,0,0-4,.21H103c-.23,0-.47-.08-.47-.42v-.91c0-.29.19-.44.55-.49a22.57,22.57,0,0,1,4-.34c3.61,0,5.07,1.82,5.07,4.89v9.07A.52.52,0,0,1,111.7,342.71Zm-1.77-6.91H108c-3.15,0-4,.7-4,2.54v.31c0,1.88.88,2.37,2.39,2.37a7.11,7.11,0,0,0,3.51-1Z"/><path class="f" d="M122.26,342.76a12.37,12.37,0,0,1-1.69.13c-2.4,0-3.54-.62-3.54-3.48v-9.08l-2.52-.28c-.29,0-.5-.18-.5-.47v-.7a.46.46,0,0,1,.5-.47H117v-2.55a.53.53,0,0,1,.47-.52l1.35-.2h.08a.41.41,0,0,1,.39.44v2.83h2.81a.52.52,0,0,1,.52.52v.88a.52.52,0,0,1-.52.52h-2.81v9.08c0,1.43.36,1.64,1.4,1.64h1.46c.36,0,.54.1.54.36v.91C122.72,342.55,122.59,342.71,122.26,342.76Z"/><path class="f" d="M127.25,326.12h-1.33a.52.52,0,0,1-.52-.52v-2.08a.53.53,0,0,1,.52-.52h1.33a.52.52,0,0,1,.52.52v2.08A.52.52,0,0,1,127.25,326.12Zm0,16.59H126a.52.52,0,0,1-.52-.52V328.93a.52.52,0,0,1,.52-.52h1.25a.52.52,0,0,1,.52.52v13.26A.52.52,0,0,1,127.2,342.71Z"/><path class="f" d="M139.88,342.61a19.38,19.38,0,0,1-3.25.28c-3.53,0-5.53-2.49-5.53-6.32v-2c0-3.83,2-6.32,5.53-6.32a19.68,19.68,0,0,1,3.25.28c.42.08.52.21.52.58V330a.39.39,0,0,1-.44.39h-.1a25.46,25.46,0,0,0-3.23-.18c-2.08,0-3.25,1.38-3.25,4.32v2c0,2.92,1.15,4.32,3.25,4.32a25.46,25.46,0,0,0,3.23-.18h.1a.39.39,0,0,1,.44.39V342C140.4,342.37,140.3,342.53,139.88,342.61Z"/><path class="f" d="M155.28,342.89a36.84,36.84,0,0,1-4.74-.26A.59.59,0,0,1,150,342V324.12a.61.61,0,0,1,.54-.65,36.84,36.84,0,0,1,4.74-.26c4.81,0,7.87,2.47,7.87,8.09v3.51C163.15,340.37,160.09,342.89,155.28,342.89Zm5.51-11.59c0-4.71-2.39-6.06-5.51-6.06-1.23,0-2,0-2.89.08v15.49c.83.06,1.66.06,2.89.06,3.12,0,5.51-1.38,5.51-6.06Z"/><path class="f" d="M176.93,336.29h-8.71v.36c0,3.1,1.23,4.24,3.62,4.24a34.28,34.28,0,0,0,4.63-.29h.13a.37.37,0,0,1,.41.37v.88c0,.34-.1.52-.52.6a23.25,23.25,0,0,1-4.65.44c-3,0-5.9-1.4-5.9-6.24v-2.34c0-3.72,2.05-6.08,5.77-6.08s5.72,2.39,5.72,6.08v1.41A.5.5,0,0,1,176.93,336.29Zm-1.82-2c0-2.93-1.11-4.08-3.4-4.08s-3.49,1.28-3.49,4.08v.24h6.89Z"/><path class="f" d="M185.88,342.89a19.28,19.28,0,0,1-3-.28v4.7a.5.5,0,0,1-.5.5H181a.48.48,0,0,1-.47-.5V329.43c0-.34.08-.5.54-.6a21.43,21.43,0,0,1,4.79-.6c3.87,0,5.67,2.52,5.67,6.42v1.87C191.55,340.6,189.67,342.89,185.88,342.89Zm3.38-8.24c0-2.73-.81-4.5-3.38-4.5a19.15,19.15,0,0,0-3,.26v10.3a19.7,19.7,0,0,0,3,.26c2.55,0,3.38-1.67,3.38-4.45Z"/><path class="f" d="M196.69,342.71h-1.35a.49.49,0,0,1-.47-.52V323.65a.47.47,0,0,1,.47-.49h1.35a.47.47,0,0,1,.47.49v18.54A.49.49,0,0,1,196.69,342.71Z"/><path class="f" d="M206.26,342.89c-3.82,0-5.77-2.52-5.77-6.34v-2c0-3.82,1.95-6.34,5.77-6.34s5.8,2.52,5.8,6.34v2C212.06,340.37,210.08,342.89,206.26,342.89Zm3.51-8.32c0-2.65-1.06-4.34-3.51-4.34s-3.48,1.66-3.48,4.34v2c0,2.65,1,4.34,3.48,4.34s3.51-1.66,3.51-4.34Z"/><path class="f" d="M225.63,329l-4.29,15c-.8,2.81-1.77,3.85-4.76,3.85a10.88,10.88,0,0,1-2.18-.23c-.31-.08-.55-.16-.55-.42v-1c0-.29.21-.42.5-.42h.08c.57.05,1.74.16,2.31.16,1.48,0,2.13-.39,2.57-2.21l.26-1.07h-.36c-.78,0-1.46-.18-1.92-1.79L213.83,329a.38.38,0,0,1,0-.18.42.42,0,0,1,.47-.44h1.43a.52.52,0,0,1,.44.42l3.07,11.28c.13.52.31.57.49.57h.42l3.17-11.88a.53.53,0,0,1,.5-.39h1.45a.4.4,0,0,1,.42.44A.38.38,0,0,1,225.63,329Z"/></g><g class="d"><g class="d"><path class="e" d="M246.87,324.74h-1.25c-1.22,0-1.59.37-1.59,1.8v1.87h2.73a.48.48,0,0,1,.5.47v1a.45.45,0,0,1-.5.44H244v11.86a.53.53,0,0,1-.49.52h-1.28a.54.54,0,0,1-.52-.52V330.33l-2.52-.28a.49.49,0,0,1-.49-.47v-.7a.47.47,0,0,1,.49-.47h2.52v-1.87c0-2.78,1.36-3.62,3.64-3.62a5.82,5.82,0,0,1,1.46.16c.29.08.49.18.49.42v.85C247.33,324.64,247.15,324.74,246.87,324.74Z"/><path class="e" d="M254.48,342.89c-3.82,0-5.77-2.52-5.77-6.34v-2c0-3.82,1.95-6.34,5.77-6.34s5.8,2.52,5.8,6.34v2C260.28,340.37,258.31,342.89,254.48,342.89Zm3.51-8.32c0-2.65-1.06-4.34-3.51-4.34s-3.48,1.66-3.48,4.34v2c0,2.65,1,4.34,3.48,4.34s3.51-1.66,3.51-4.34Z"/><path class="e" d="M269.23,330.2a6.67,6.67,0,0,0-3.59,1.1v10.89a.54.54,0,0,1-.52.52h-1.28a.51.51,0,0,1-.49-.52V328.93a.5.5,0,0,1,.49-.52h1.23a.5.5,0,0,1,.49.52v.55a6.23,6.23,0,0,1,3.67-1.25c.36,0,.54.16.54.47v1.06C269.77,330.05,269.59,330.2,269.23,330.2Z"/><path class="e" d="M284,342.89a20.23,20.23,0,0,1-4.57-.46c-.29-.08-.5-.19-.5-.52v-1a.36.36,0,0,1,.39-.39h.13a26.52,26.52,0,0,0,4.55.37c2.94,0,4.24-1.43,4.24-4.08v-.4c0-2.6-1.61-3.48-5.43-3.48h-3.12a.43.43,0,0,1-.42-.44v0l.73-8.66a.51.51,0,0,1,.52-.44h8.94a.46.46,0,0,1,.52.44V325c0,.28-.23.41-.52.41H282l-.41,5.62h1.22c4.83,0,7.82,1.27,7.82,5.43v.4C290.62,340.68,288.21,342.89,284,342.89Z"/><path class="e" d="M299.7,342.89a19.6,19.6,0,0,1-4.4-.52.54.54,0,0,1-.49-.49V341a.41.41,0,0,1,.44-.45h.08a35.41,35.41,0,0,0,4.37.37c2.83,0,4.05-1.09,4.05-3.59v-.55a2.89,2.89,0,0,0-3-3.17H296a.45.45,0,0,1-.49-.47v-.91a.47.47,0,0,1,.49-.49h4.73a2.77,2.77,0,0,0,3-3.1v-.36c0-2.13-1.11-3.09-4.05-3.09a33.21,33.21,0,0,0-4.37.39h-.08a.41.41,0,0,1-.44-.44v-.92a.57.57,0,0,1,.49-.49,21.25,21.25,0,0,1,4.4-.52c3.87,0,6.47,1.22,6.47,5.07v.36a4.39,4.39,0,0,1-2.47,4.06,4.34,4.34,0,0,1,2.47,4.08v.55C306.17,341.23,303.49,342.89,299.7,342.89Z"/><path class="e" d="M319.56,342.71h-1.19a.52.52,0,0,1-.52-.52v-.57a7.91,7.91,0,0,1-4,1.27c-2.21,0-4.24-1-4.24-4.21v-.31c0-2.81,1.64-4.21,6.27-4.21h1.92v-1c0-2.19-.75-2.94-2.78-2.94a36.23,36.23,0,0,0-4,.21h-.13c-.23,0-.46-.08-.46-.42v-.91c0-.29.18-.44.54-.49a22.57,22.57,0,0,1,4-.34c3.62,0,5.07,1.82,5.07,4.89v9.07A.52.52,0,0,1,319.56,342.71Zm-1.77-6.91h-1.92c-3.15,0-4,.7-4,2.54v.31c0,1.88.89,2.37,2.39,2.37a7.08,7.08,0,0,0,3.51-1Z"/><path class="e" d="M329.86,342.89h-.26c-3.46,0-6.32-1.76-6.32-5.56v-.49a4.91,4.91,0,0,1,2.52-4.22,4.38,4.38,0,0,1-2.47-4.05v-.24c0-3.59,2.71-5.12,6.27-5.12h.26c3.56,0,6.26,1.53,6.26,5.12v.24a4.38,4.38,0,0,1-2.47,4.05,4.92,4.92,0,0,1,2.53,4.22v.49C336.18,341.13,333.32,342.89,329.86,342.89Zm4-14.56c0-2.08-1.41-3.19-4-3.19h-.26c-2.58,0-4,1.11-4,3.19v.24a3,3,0,0,0,3.3,3.12h1.61a3,3,0,0,0,3.31-3.12Zm0,8.51a3.1,3.1,0,0,0-3.28-3.28h-1.61a3.1,3.1,0,0,0-3.27,3.28v.49c0,2.23,1.37,3.59,4,3.59h.26c2.57,0,3.95-1.36,3.95-3.59Z"/><path class="e" d="M344.65,342.89a19.5,19.5,0,0,1-4.39-.52.55.55,0,0,1-.5-.49V341a.42.42,0,0,1,.45-.45h.07a35.41,35.41,0,0,0,4.37.37c2.84,0,4.06-1.09,4.06-3.59v-.55a2.9,2.9,0,0,0-3-3.17h-4.74a.46.46,0,0,1-.49-.47v-.91a.48.48,0,0,1,.49-.49h4.74a2.78,2.78,0,0,0,3-3.1v-.36c0-2.13-1.12-3.09-4.06-3.09a33.21,33.21,0,0,0-4.37.39h-.07a.42.42,0,0,1-.45-.44v-.92a.58.58,0,0,1,.5-.49,21.23,21.23,0,0,1,4.39-.52c3.88,0,6.48,1.22,6.48,5.07v.36a4.39,4.39,0,0,1-2.47,4.06,4.36,4.36,0,0,1,2.47,4.08v.55C351.13,341.23,348.45,342.89,344.65,342.89Z"/><path class="e" d="M366.83,326.38l-7.49,15.94a.61.61,0,0,1-.57.39h-1.56a.37.37,0,0,1-.39-.39.6.6,0,0,1,.08-.28l7.85-16.33s0-.06,0-.11a.18.18,0,0,0-.19-.18h-8.86a.46.46,0,0,1-.52-.44v-1.09a.52.52,0,0,1,.52-.5h9.49c1.45,0,1.95.76,1.95,1.64A3.21,3.21,0,0,1,366.83,326.38Z"/><path class="e" d="M372.5,331.84h-1.22a.51.51,0,0,1-.52-.49v-2.42a.54.54,0,0,1,.52-.52h1.22a.54.54,0,0,1,.52.52v2.42A.5.5,0,0,1,372.5,331.84Zm0,10.87h-1.22a.52.52,0,0,1-.52-.49v-2.45a.51.51,0,0,1,.52-.49h1.22a.52.52,0,0,1,.52.49v2.45A.5.5,0,0,1,372.5,342.71Z"/></g></g><g class="d"><g class="d"><path class="e" d="M398,342.71h-1.61a.88.88,0,0,1-.84-.41l-8-15.27s-.05-.08-.08-.08,0,0,0,.08v15.19a.49.49,0,0,1-.47.49h-1.35c-.26,0-.47,0-.47-.31V324.12a.73.73,0,0,1,.75-.73h1.43c.73,0,.86.13,1.07.52l8,15.19.05.08s0-.06,0-.08V323.89a.5.5,0,0,1,.47-.5h1.37a.48.48,0,0,1,.47.5V342A.76.76,0,0,1,398,342.71Z"/></g></g><g class="d"><g class="d"><path class="e" d="M27.26,468.09a.4.4,0,0,1-.44-.39v-1c0-.24.2-.37.44-.37h3.5V453.81l-3.46,1.46c-.17.06-.48.13-.48-.18V454c0-.16.06-.2.22-.29l3.94-1.8a1,1,0,0,1,.46-.13h.9a.41.41,0,0,1,.42.41v14.2h3.52c.24,0,.44.13.44.37v1a.4.4,0,0,1-.44.39Z"/><path class="e" d="M40.57,468.09a.4.4,0,0,1-.44-.39v-1c0-.24.2-.37.44-.37h3.5V453.81l-3.46,1.46c-.17.06-.48.13-.48-.18V454c0-.16.06-.2.22-.29l3.94-1.8a1,1,0,0,1,.46-.13h.9a.41.41,0,0,1,.42.41v14.2h3.52c.24,0,.44.13.44.37v1a.4.4,0,0,1-.44.39Z"/><path class="e" d="M54.82,458.9h-1a.44.44,0,0,1-.44-.42v-2.05a.46.46,0,0,1,.44-.44h1a.46.46,0,0,1,.44.44v2.05A.43.43,0,0,1,54.82,458.9Zm0,9.19h-1a.43.43,0,0,1-.44-.41v-2.07a.44.44,0,0,1,.44-.42h1a.44.44,0,0,1,.44.42v2.07A.42.42,0,0,1,54.82,468.09Z"/><path class="e" d="M68.77,463.74H66.86v3.91a.4.4,0,0,1-.38.44H65.21c-.25,0-.38-.19-.38-.44v-3.91H58.47c-.66,0-.9-.22-.9-.86V462a1.27,1.27,0,0,1,.27-.81l6.51-9.13a.66.66,0,0,1,.64-.35h1.3c.35,0,.57.15.57.48v9.84h1.91a.4.4,0,0,1,.42.39v.88A.39.39,0,0,1,68.77,463.74Zm-3.91-9.2c0-.09,0-.13-.09-.13h0a.23.23,0,0,0-.18.13l-5.08,7.22a.29.29,0,0,0-.07.17c0,.09.07.14.18.14h5.26Z"/><path class="e" d="M76.69,468.25c-3.32,0-5.41-2-5.41-6.84v-3c0-4.87,2.09-6.85,5.41-6.85s5.39,2,5.39,6.85v3C82.08,466.27,80,468.25,76.69,468.25Zm3.39-9.81c0-3.72-1.32-5.15-3.39-5.15s-3.39,1.43-3.39,5.15v3c0,3.71,1.32,5.14,3.39,5.14s3.39-1.43,3.39-5.14Z"/><path class="e" d="M86.26,458.9h-1a.44.44,0,0,1-.44-.42v-2.05a.45.45,0,0,1,.44-.44h1a.46.46,0,0,1,.44.44v2.05A.43.43,0,0,1,86.26,458.9Zm0,9.19h-1a.43.43,0,0,1-.44-.41v-2.07a.43.43,0,0,1,.44-.42h1a.44.44,0,0,1,.44.42v2.07A.42.42,0,0,1,86.26,468.09Z"/><path class="e" d="M90.13,468.09a.4.4,0,0,1-.44-.39v-1c0-.24.2-.37.44-.37h3.5V453.81l-3.45,1.46c-.18.06-.49.13-.49-.18V454c0-.16.07-.2.22-.29l3.94-1.8a1,1,0,0,1,.46-.13h.9a.41.41,0,0,1,.42.41v14.2h3.52c.25,0,.44.13.44.37v1a.4.4,0,0,1-.44.39Z"/><path class="e" d="M107.47,468.25a16.68,16.68,0,0,1-3.87-.4c-.25-.06-.42-.15-.42-.44v-.81a.3.3,0,0,1,.33-.33h.11a22.91,22.91,0,0,0,3.85.31c2.49,0,3.58-1.21,3.58-3.46v-.33c0-2.2-1.36-3-4.59-3h-2.64a.37.37,0,0,1-.36-.37v0l.62-7.33a.43.43,0,0,1,.44-.37h7.57c.24,0,.44.13.44.37v1c0,.24-.2.35-.44.35h-6.32l-.35,4.75h1c4.09,0,6.62,1.08,6.62,4.6v.33C113.08,466.38,111,468.25,107.47,468.25Z"/><path class="e" d="M133.12,468.09h-1.3a.39.39,0,0,1-.37-.33L130,462.7h-5.7l-1.41,5.06a.43.43,0,0,1-.39.33h-1.3a.36.36,0,0,1-.38-.35.27.27,0,0,1,0-.15l4.07-14.33a2.16,2.16,0,0,1,2.24-1.67,2.13,2.13,0,0,1,2.22,1.65l4.07,14.35a.27.27,0,0,1,0,.15A.34.34,0,0,1,133.12,468.09Zm-5.52-14.36c-.07-.25-.2-.4-.42-.4s-.37.15-.44.4l-2,7.24h4.86Z"/><path class="e" d="M148.74,468.09h-1.08a.44.44,0,0,1-.44-.44v-13c0-.05,0-.07,0-.07s0,0,0,0L144,461.1a1,1,0,0,1-1,.64h-1a1,1,0,0,1-1-.64l-3.15-6.51s0,0,0,0,0,0,0,.07v13a.44.44,0,0,1-.44.44h-1.08a.44.44,0,0,1-.44-.44V452.39a.63.63,0,0,1,.64-.64h1.43c.39,0,.57.08.7.37l3.63,7.55c.09.2.15.24.27.24s.17,0,.26-.24l3.63-7.55c.13-.29.31-.37.7-.37h1.43a.63.63,0,0,1,.64.64v15.26A.44.44,0,0,1,148.74,468.09Z"/></g></g><g class="d"><path class="f" d="M42.54,437.42H41.27a.52.52,0,0,1-.52-.52V421.48c0-.05,0-.07,0-.07s0,0,0,0L37,429.15a1.11,1.11,0,0,1-1.17.76H34.59a1.11,1.11,0,0,1-1.17-.76l-3.72-7.69s0,0-.06,0,0,0,0,.07V436.9a.52.52,0,0,1-.52.52H27.82a.52.52,0,0,1-.52-.52v-18a.76.76,0,0,1,.76-.76h1.69c.47,0,.68.11.83.45l4.29,8.92c.1.23.18.28.31.28s.21-.05.32-.28l4.29-8.92c.15-.34.36-.45.83-.45h1.69a.76.76,0,0,1,.75.76v18A.52.52,0,0,1,42.54,437.42Z"/><path class="f" d="M56.27,437.42h-1.2a.52.52,0,0,1-.52-.52v-.57a7.87,7.87,0,0,1-4,1.27c-2.21,0-4.24-1-4.24-4.21v-.31c0-2.81,1.64-4.21,6.27-4.21H54.5v-1c0-2.19-.75-2.94-2.78-2.94a36.23,36.23,0,0,0-4,.21h-.13c-.23,0-.47-.08-.47-.42v-.91c0-.28.18-.44.55-.49a22.48,22.48,0,0,1,4-.34c3.61,0,5.07,1.82,5.07,4.89v9.07A.52.52,0,0,1,56.27,437.42Zm-1.77-6.91H52.58c-3.15,0-4,.7-4,2.54v.32c0,1.87.88,2.36,2.39,2.36a7.11,7.11,0,0,0,3.51-1Z"/><path class="f" d="M70.75,437.42H69.5a.52.52,0,0,1-.52-.52v-8.55c0-2.63-.88-3.43-2.86-3.43a8.22,8.22,0,0,0-3.51,1v11a.54.54,0,0,1-.52.52H60.82a.52.52,0,0,1-.5-.52V423.64a.51.51,0,0,1,.5-.52h1.3a.5.5,0,0,1,.49.52v.5a7.81,7.81,0,0,1,4.14-1.2c3.12,0,4.52,1.95,4.52,5.41v8.55A.52.52,0,0,1,70.75,437.42Z"/><path class="f" d="M85.26,437.42H84a.5.5,0,0,1-.5-.52v-.49a7.76,7.76,0,0,1-4.13,1.19c-3.12,0-4.52-1.94-4.52-5.4v-8.56a.52.52,0,0,1,.52-.52h1.24a.52.52,0,0,1,.52.52v8.56c0,2.62.89,3.43,2.87,3.43a8.16,8.16,0,0,0,3.5-1v-11a.54.54,0,0,1,.52-.52h1.28a.52.52,0,0,1,.49.52V436.9A.49.49,0,0,1,85.26,437.42Z"/><path class="f" d="M98.73,437.42h-1.2a.52.52,0,0,1-.52-.52v-.57a7.9,7.9,0,0,1-4,1.27c-2.21,0-4.24-1-4.24-4.21v-.31c0-2.81,1.64-4.21,6.26-4.21H97v-1c0-2.19-.75-2.94-2.78-2.94a36.23,36.23,0,0,0-4,.21h-.13c-.24,0-.47-.08-.47-.42v-.91c0-.28.18-.44.55-.49a22.48,22.48,0,0,1,4-.34c3.61,0,5.07,1.82,5.07,4.89v9.07A.52.52,0,0,1,98.73,437.42ZM97,430.51H95c-3.14,0-4,.7-4,2.54v.32c0,1.87.88,2.36,2.39,2.36a7.14,7.14,0,0,0,3.51-1Z"/><path class="f" d="M104.86,437.42h-1.35a.49.49,0,0,1-.47-.52V418.36a.47.47,0,0,1,.47-.49h1.35a.47.47,0,0,1,.47.49V436.9A.49.49,0,0,1,104.86,437.42Z"/><path class="f" d="M121.09,437.6a36.84,36.84,0,0,1-4.74-.26.59.59,0,0,1-.54-.65V418.83a.61.61,0,0,1,.54-.65,36.84,36.84,0,0,1,4.74-.26c4.81,0,7.87,2.47,7.87,8.09v3.51C129,435.08,125.9,437.6,121.09,437.6ZM126.6,426c0-4.71-2.39-6.06-5.51-6.06-1.23,0-2,0-2.89.08v15.49c.83.06,1.66.06,2.89.06,3.12,0,5.51-1.38,5.51-6.06Z"/><path class="f" d="M142.74,431H134v.36c0,3.1,1.23,4.24,3.62,4.24a36.1,36.1,0,0,0,4.63-.28h.13a.36.36,0,0,1,.41.36v.88c0,.34-.1.53-.52.6a23.25,23.25,0,0,1-4.65.44c-3,0-5.9-1.4-5.9-6.24V429c0-3.71,2.05-6.08,5.77-6.08s5.72,2.39,5.72,6.08v1.41C143.24,430.77,143.06,431,142.74,431Zm-1.82-2c0-2.93-1.11-4.08-3.4-4.08S134,426.22,134,429v.24h6.89Z"/><path class="f" d="M151.69,437.6a19.51,19.51,0,0,1-3.05-.28V442a.48.48,0,0,1-.49.49h-1.33a.47.47,0,0,1-.46-.49V424.14c0-.34.08-.5.54-.6a21.43,21.43,0,0,1,4.79-.6c3.87,0,5.67,2.52,5.67,6.42v1.87C157.36,435.32,155.48,437.6,151.69,437.6Zm3.38-8.24c0-2.73-.81-4.5-3.38-4.5a19.4,19.4,0,0,0-3.05.26v10.3a19.94,19.94,0,0,0,3.05.26c2.55,0,3.38-1.66,3.38-4.45Z"/><path class="f" d="M162.5,437.42h-1.35a.49.49,0,0,1-.47-.52V418.36a.47.47,0,0,1,.47-.49h1.35a.47.47,0,0,1,.47.49V436.9A.49.49,0,0,1,162.5,437.42Z"/><path class="f" d="M172.07,437.6c-3.82,0-5.77-2.52-5.77-6.34v-2c0-3.82,1.95-6.34,5.77-6.34s5.8,2.52,5.8,6.34v2C177.87,435.08,175.89,437.6,172.07,437.6Zm3.51-8.32c0-2.65-1.06-4.34-3.51-4.34s-3.48,1.67-3.48,4.34v2c0,2.65,1,4.34,3.48,4.34s3.51-1.66,3.51-4.34Z"/><path class="f" d="M191.44,423.75l-4.29,15c-.8,2.81-1.77,3.85-4.76,3.85a10.8,10.8,0,0,1-2.18-.23c-.31-.08-.55-.16-.55-.42v-1c0-.29.21-.42.5-.42h.07c.58,0,1.75.16,2.32.16,1.48,0,2.13-.39,2.57-2.21l.26-1.07H185c-.78,0-1.46-.18-1.93-1.79l-3.45-11.88a.46.46,0,0,1,.44-.63h1.43a.52.52,0,0,1,.44.42L185,434.82c.13.52.31.57.49.57h.42l3.17-11.88a.53.53,0,0,1,.5-.39h1.45a.4.4,0,0,1,.42.44A.42.42,0,0,1,191.44,423.75Z"/></g><g class="d"><g class="d"><path class="e" d="M208.93,437.42h-1.36a.49.49,0,0,1-.46-.52V418.36a.47.47,0,0,1,.46-.49h1.36a.47.47,0,0,1,.46.49V436.9A.49.49,0,0,1,208.93,437.42Z"/><path class="e" d="M215.3,420.83H214a.52.52,0,0,1-.52-.52v-2.08a.52.52,0,0,1,.52-.52h1.33a.53.53,0,0,1,.52.52v2.08A.52.52,0,0,1,215.3,420.83Zm-.06,16.59H214a.52.52,0,0,1-.52-.52V423.64a.52.52,0,0,1,.52-.52h1.24a.52.52,0,0,1,.52.52V436.9A.52.52,0,0,1,215.24,437.42Z"/><path class="e" d="M230.58,423.75l-3.51,12.37c-.33,1.17-1.22,1.48-2.34,1.48a2.09,2.09,0,0,1-2.34-1.48l-3.51-12.37a.68.68,0,0,1,0-.19.4.4,0,0,1,.41-.44h1.43c.21,0,.39.16.5.5l3,11.33c.15.63.28.76.54.76s.39-.13.55-.76l3-11.33c.1-.34.29-.5.49-.5h1.43a.4.4,0,0,1,.42.44A.47.47,0,0,1,230.58,423.75Z"/><path class="e" d="M243.4,431h-8.71v.36c0,3.1,1.22,4.24,3.62,4.24a35.94,35.94,0,0,0,4.62-.28h.13c.21,0,.42.1.42.36v.88c0,.34-.1.53-.52.6a23.25,23.25,0,0,1-4.65.44c-3,0-5.91-1.4-5.91-6.24V429c0-3.71,2.06-6.08,5.78-6.08s5.72,2.39,5.72,6.08v1.41A.5.5,0,0,1,243.4,431Zm-1.82-2c0-2.93-1.12-4.08-3.4-4.08s-3.49,1.28-3.49,4.08v.24h6.89Z"/><path class="e" d="M260.46,419.46h-1.25c-1.22,0-1.59.36-1.59,1.79v1.87h2.73a.48.48,0,0,1,.5.47v1a.46.46,0,0,1-.5.45h-2.73V436.9a.53.53,0,0,1-.49.52h-1.27a.54.54,0,0,1-.52-.52V425.05l-2.53-.29a.49.49,0,0,1-.49-.47v-.7a.47.47,0,0,1,.49-.47h2.53v-1.87c0-2.78,1.35-3.61,3.64-3.61a5.9,5.9,0,0,1,1.45.15c.29.08.5.18.5.42v.86C260.93,419.35,260.74,419.46,260.46,419.46Z"/><path class="e" d="M268.08,437.6c-3.83,0-5.78-2.52-5.78-6.34v-2c0-3.82,1.95-6.34,5.78-6.34s5.79,2.52,5.79,6.34v2C273.87,435.08,271.9,437.6,268.08,437.6Zm3.51-8.32c0-2.65-1.07-4.34-3.51-4.34s-3.49,1.67-3.49,4.34v2c0,2.65,1,4.34,3.49,4.34s3.51-1.66,3.51-4.34Z"/><path class="e" d="M282.82,424.92a6.65,6.65,0,0,0-3.59,1.09V436.9a.54.54,0,0,1-.52.52h-1.27a.52.52,0,0,1-.5-.52V423.64a.51.51,0,0,1,.5-.52h1.22a.5.5,0,0,1,.49.52v.55a6.23,6.23,0,0,1,3.67-1.25c.36,0,.54.16.54.47v1.06C283.36,424.76,283.18,424.92,282.82,424.92Z"/><path class="e" d="M298.34,437.6c-3.88,0-6.29-2.28-6.29-7.38v-4.55c0-5.56,2.34-7.75,6.78-7.75a20.27,20.27,0,0,1,4.48.44c.31.08.59.19.59.5v1a.43.43,0,0,1-.46.47c-.06,0-.11,0-.16,0a22.94,22.94,0,0,0-4.45-.41c-4,0-4.44,2.36-4.44,5.77V426a16.7,16.7,0,0,1,3.92-.52c3.38,0,6.37,1.24,6.37,5.43V431C304.68,435.14,302.6,437.6,298.34,437.6Zm4-6.73c0-2.81-2-3.59-4-3.59a19.31,19.31,0,0,0-3.92.47v2.47c0,4.24,1.43,5.46,3.95,5.46s4-1.14,4-4.65Z"/><path class="e" d="M320.47,432.27H318.2v4.63a.47.47,0,0,1-.44.52h-1.51a.46.46,0,0,1-.44-.52v-4.63H308.3c-.78,0-1.07-.26-1.07-1v-1a1.53,1.53,0,0,1,.31-1l7.7-10.79a.79.79,0,0,1,.75-.42h1.54c.41,0,.67.19.67.58V430.3h2.27a.47.47,0,0,1,.49.47v1A.45.45,0,0,1,320.47,432.27Zm-4.63-10.86c0-.11,0-.16-.11-.16h0c-.08,0-.16.08-.21.16l-6,8.52a.43.43,0,0,0-.07.21c0,.11.07.16.2.16h6.22Z"/><path class="e" d="M333.15,437.42H332a.52.52,0,0,1-.52-.52v-.57a7.91,7.91,0,0,1-4,1.27c-2.21,0-4.23-1-4.23-4.21v-.31c0-2.81,1.63-4.21,6.26-4.21h1.93v-1c0-2.19-.76-2.94-2.79-2.94a36,36,0,0,0-4,.21h-.13c-.24,0-.47-.08-.47-.42v-.91c0-.28.18-.44.54-.49a22.66,22.66,0,0,1,4-.34c3.62,0,5.07,1.82,5.07,4.89v9.07A.52.52,0,0,1,333.15,437.42Zm-1.76-6.91h-1.93c-3.14,0-4,.7-4,2.54v.32c0,1.87.89,2.36,2.4,2.36a7.14,7.14,0,0,0,3.51-1Z"/><path class="e" d="M343.45,437.6h-.26c-3.46,0-6.32-1.76-6.32-5.56v-.49a4.9,4.9,0,0,1,2.52-4.21,4.43,4.43,0,0,1-2.47-4.06V423c0-3.58,2.71-5.12,6.27-5.12h.26c3.56,0,6.26,1.54,6.26,5.12v.24a4.42,4.42,0,0,1-2.46,4.06,4.9,4.9,0,0,1,2.52,4.21V432C349.77,435.84,346.91,437.6,343.45,437.6Zm4-14.56c0-2.08-1.41-3.19-4-3.19h-.26c-2.57,0-4,1.11-4,3.19v.24a3,3,0,0,0,3.3,3.12h1.62a3,3,0,0,0,3.3-3.12Zm0,8.51a3.1,3.1,0,0,0-3.27-3.28h-1.62a3.1,3.1,0,0,0-3.27,3.28V432c0,2.24,1.38,3.59,3.95,3.59h.26c2.57,0,3.95-1.35,3.95-3.59Z"/><path class="e" d="M358.24,437.6a20.14,20.14,0,0,1-4.39-.51.57.57,0,0,1-.5-.5v-.88a.42.42,0,0,1,.45-.45h.08a35.1,35.1,0,0,0,4.36.37c2.84,0,4.06-1.09,4.06-3.59v-.54a2.91,2.91,0,0,0-3-3.18h-4.74a.46.46,0,0,1-.49-.47v-.91a.48.48,0,0,1,.49-.49h4.74a2.78,2.78,0,0,0,3-3.09V423c0-2.13-1.12-3.09-4.06-3.09a33.07,33.07,0,0,0-4.36.39h-.08a.42.42,0,0,1-.45-.44v-.91a.58.58,0,0,1,.5-.5,21.23,21.23,0,0,1,4.39-.52c3.88,0,6.48,1.22,6.48,5.07v.37a4.37,4.37,0,0,1-2.47,4.05,4.37,4.37,0,0,1,2.47,4.09V432C364.72,435.94,362,437.6,358.24,437.6Z"/><path class="e" d="M374.08,437.6a19.68,19.68,0,0,1-4.48-.44c-.33-.07-.62-.18-.62-.49v-1a.44.44,0,0,1,.47-.47l.15,0a23.13,23.13,0,0,0,4.45.42c4,0,4.47-2.37,4.47-5.77v-.29a17.75,17.75,0,0,1-3.92.52c-3.41,0-6.4-1.25-6.4-5.43v-.16c0-4.11,2.11-6.58,6.35-6.58,3.9,0,6.31,2.29,6.31,7.39v4.55C380.86,435.42,378.52,437.6,374.08,437.6Zm4.44-12.29c0-4.24-1.43-5.46-3.95-5.46s-4,1.14-4,4.65v.16c0,2.81,2,3.58,4,3.58a19.55,19.55,0,0,0,3.93-.46Z"/><path class="e" d="M386.09,426.55h-1.22a.51.51,0,0,1-.52-.49v-2.42a.54.54,0,0,1,.52-.52h1.22a.54.54,0,0,1,.52.52v2.42A.49.49,0,0,1,386.09,426.55Zm0,10.87h-1.22a.51.51,0,0,1-.52-.49v-2.45a.51.51,0,0,1,.52-.49h1.22a.52.52,0,0,1,.52.49v2.45A.49.49,0,0,1,386.09,437.42Z"/></g></g><g class="d"><g class="d"><path class="e" d="M27.26,278.67a.4.4,0,0,1-.44-.39v-1a.4.4,0,0,1,.44-.38h3.5V264.39l-3.46,1.45c-.17.07-.48.14-.48-.17v-1.12c0-.16.06-.2.22-.29l3.94-1.8a1,1,0,0,1,.46-.14h.9a.42.42,0,0,1,.42.42v14.19h3.52a.4.4,0,0,1,.44.38v1a.4.4,0,0,1-.44.39Z"/><path class="e" d="M41.51,269.47h-1a.43.43,0,0,1-.44-.41V267a.46.46,0,0,1,.44-.44h1A.46.46,0,0,1,42,267v2.05A.41.41,0,0,1,41.51,269.47Zm0,9.2h-1a.43.43,0,0,1-.44-.42v-2.06a.44.44,0,0,1,.44-.42h1a.43.43,0,0,1,.44.42v2.06A.42.42,0,0,1,41.51,278.67Z"/><path class="e" d="M52.12,270.35,50,271.79c-2.45,1.65-3.08,2.77-3.08,4.68v.46h7.41a.4.4,0,0,1,.44.38v1a.4.4,0,0,1-.44.39H45.61a.42.42,0,0,1-.44-.42v-1.78a6.61,6.61,0,0,1,3.36-5.79l2.22-1.49C52.58,268,53,267.43,53,266.11c0-1.59-.92-2.27-3.3-2.27a31.42,31.42,0,0,0-3.89.33h-.09a.35.35,0,0,1-.36-.39V263c0-.22.2-.36.42-.4a16.93,16.93,0,0,1,3.92-.44c3.56,0,5.26,1.23,5.26,3.94C55,267.85,54.16,269,52.12,270.35Z"/><path class="e" d="M63.38,278.83c-3.32,0-5.41-2-5.41-6.85v-3c0-4.86,2.09-6.84,5.41-6.84s5.39,2,5.39,6.84v3C68.77,276.85,66.7,278.83,63.38,278.83ZM66.77,269c0-3.72-1.32-5.15-3.39-5.15S60,265.29,60,269v3c0,3.72,1.32,5.15,3.39,5.15s3.39-1.43,3.39-5.15Z"/><path class="e" d="M73,269.47h-1a.43.43,0,0,1-.44-.41V267a.45.45,0,0,1,.44-.44h1a.46.46,0,0,1,.44.44v2.05A.42.42,0,0,1,73,269.47Zm0,9.2h-1a.43.43,0,0,1-.44-.42v-2.06a.43.43,0,0,1,.44-.42h1a.43.43,0,0,1,.44.42v2.06A.42.42,0,0,1,73,278.67Z"/><path class="e" d="M80.85,278.83a17.24,17.24,0,0,1-3.87-.4c-.25-.07-.42-.15-.42-.44v-.81a.3.3,0,0,1,.33-.33H77a22.82,22.82,0,0,0,3.85.3c2.49,0,3.59-1.21,3.59-3.45v-.33c0-2.2-1.37-2.95-4.6-2.95H77.2a.37.37,0,0,1-.36-.37v0l.62-7.32a.43.43,0,0,1,.44-.38h7.57a.4.4,0,0,1,.44.38v1c0,.24-.2.35-.44.35H79.15l-.35,4.75h1c4.09,0,6.62,1.08,6.62,4.6v.33C86.46,277,84.41,278.83,80.85,278.83Z"/><path class="e" d="M94.82,278.83c-3.32,0-5.41-2-5.41-6.85v-3c0-4.86,2.09-6.84,5.41-6.84s5.39,2,5.39,6.84v3C100.21,276.85,98.14,278.83,94.82,278.83ZM98.21,269c0-3.72-1.32-5.15-3.39-5.15s-3.39,1.43-3.39,5.15v3c0,3.72,1.32,5.15,3.39,5.15s3.39-1.43,3.39-5.15Z"/><path class="e" d="M112.79,272.16c-.7,0-1.63-.07-2.2-.11v6.18a.42.42,0,0,1-.39.44H109a.42.42,0,0,1-.4-.44V262.9a.54.54,0,0,1,.53-.55,35.31,35.31,0,0,1,3.65-.18c3.57,0,6.16,1.23,6.16,4.77v.29C119,270.9,116.36,272.16,112.79,272.16Zm4.16-5.22c0-2.22-1.32-3.08-4.16-3.08-.68,0-1.67.05-2.2.09v6.45c.51,0,1.63.09,2.2.09,3,0,4.16-1,4.16-3.26Z"/><path class="e" d="M134.55,278.67h-1.08a.44.44,0,0,1-.44-.44V265.18s0-.06,0-.06,0,0,0,0l-3.15,6.52a.94.94,0,0,1-1,.63h-1a.94.94,0,0,1-1-.63l-3.15-6.52s0,0,0,0,0,0,0,.06v13.05a.44.44,0,0,1-.44.44H122.1a.44.44,0,0,1-.44-.44V263a.64.64,0,0,1,.64-.64h1.43c.39,0,.57.09.7.38l3.63,7.55c.09.19.15.24.27.24s.17-.05.26-.24l3.63-7.55c.13-.29.31-.38.7-.38h1.43a.64.64,0,0,1,.64.64v15.27A.44.44,0,0,1,134.55,278.67Z"/></g></g><g class="d"><path class="f" d="M40.54,248H39a.48.48,0,0,1-.45-.39l-1.69-6H30.14l-1.67,6A.52.52,0,0,1,28,248H26.47a.42.42,0,0,1-.44-.42.38.38,0,0,1,0-.18l4.81-16.92a2.55,2.55,0,0,1,2.65-2,2.51,2.51,0,0,1,2.62,1.95l4.82,17a.55.55,0,0,1,0,.18A.4.4,0,0,1,40.54,248ZM34,231c-.07-.28-.23-.47-.49-.47s-.44.19-.52.47l-2.37,8.56h5.75Z"/><path class="f" d="M53.7,248H52.4a.5.5,0,0,1-.5-.52V247a7.88,7.88,0,0,1-4.13,1.19c-3.12,0-4.53-2-4.53-5.41v-8.55a.52.52,0,0,1,.52-.52H45a.52.52,0,0,1,.52.52v8.55c0,2.63.89,3.44,2.86,3.44a8.2,8.2,0,0,0,3.51-1v-11a.54.54,0,0,1,.52-.52H53.7a.51.51,0,0,1,.49.52v13.26A.5.5,0,0,1,53.7,248Z"/><path class="f" d="M64.85,248.05a12.37,12.37,0,0,1-1.69.13c-2.39,0-3.54-.62-3.54-3.48v-9.08l-2.52-.28c-.29,0-.49-.18-.49-.47v-.7a.45.45,0,0,1,.49-.47h2.52v-2.55a.53.53,0,0,1,.47-.52l1.35-.21h.08a.42.42,0,0,1,.39.45v2.83h2.81a.52.52,0,0,1,.52.52v.88a.52.52,0,0,1-.52.52H61.91v9.08c0,1.43.37,1.64,1.4,1.64h1.46c.36,0,.55.1.55.36v.91C65.32,247.84,65.19,248,64.85,248.05Z"/><path class="f" d="M72.65,248.18c-3.82,0-5.77-2.52-5.77-6.34v-2c0-3.82,2-6.34,5.77-6.34s5.8,2.52,5.8,6.34v2C78.45,245.66,76.47,248.18,72.65,248.18Zm3.51-8.32c0-2.65-1.07-4.34-3.51-4.34s-3.49,1.66-3.49,4.34v2c0,2.65,1,4.34,3.49,4.34s3.51-1.66,3.51-4.34Z"/><path class="f" d="M98.21,248H97a.52.52,0,0,1-.52-.52v-9.2c0-2.19-1-2.79-2.37-2.79a9.09,9.09,0,0,0-3,.71,7.51,7.51,0,0,1,.24,2v9.26a.5.5,0,0,1-.47.52H89.42a.47.47,0,0,1-.44-.52v-9.26c0-2.26-.65-2.73-2-2.73a7.84,7.84,0,0,0-3.17,1v11a.49.49,0,0,1-.47.52H82a.48.48,0,0,1-.45-.52V234.22a.5.5,0,0,1,.5-.52h1.3a.5.5,0,0,1,.49.52v.49a7.32,7.32,0,0,1,3.8-1.22,3.15,3.15,0,0,1,2.6,1.07,10.37,10.37,0,0,1,4.32-1.07c2.34,0,4.21,1.17,4.21,4.79v9.2A.52.52,0,0,1,98.21,248Z"/><path class="f" d="M111.7,248h-1.2a.52.52,0,0,1-.52-.52v-.57a7.84,7.84,0,0,1-4,1.27c-2.21,0-4.24-1-4.24-4.21v-.31c0-2.81,1.64-4.21,6.27-4.21h1.92v-1c0-2.19-.75-2.94-2.78-2.94a36.23,36.23,0,0,0-4,.21H103c-.23,0-.47-.08-.47-.42v-.91c0-.29.19-.44.55-.49a21.67,21.67,0,0,1,4-.34c3.61,0,5.07,1.82,5.07,4.89v9.07A.52.52,0,0,1,111.7,248Zm-1.77-6.92H108c-3.15,0-4,.71-4,2.55v.31c0,1.88.88,2.37,2.39,2.37a7.11,7.11,0,0,0,3.51-1Z"/><path class="f" d="M122.26,248.05a12.37,12.37,0,0,1-1.69.13c-2.4,0-3.54-.62-3.54-3.48v-9.08l-2.52-.28c-.29,0-.5-.18-.5-.47v-.7a.46.46,0,0,1,.5-.47H117v-2.55a.53.53,0,0,1,.47-.52l1.35-.21h.08a.42.42,0,0,1,.39.45v2.83h2.81a.52.52,0,0,1,.52.52v.88a.52.52,0,0,1-.52.52h-2.81v9.08c0,1.43.36,1.64,1.4,1.64h1.46c.36,0,.54.1.54.36v.91C122.72,247.84,122.59,248,122.26,248.05Z"/><path class="f" d="M127.25,231.41h-1.33a.52.52,0,0,1-.52-.52v-2.08a.53.53,0,0,1,.52-.52h1.33a.52.52,0,0,1,.52.52v2.08A.52.52,0,0,1,127.25,231.41Zm0,16.59H126a.52.52,0,0,1-.52-.52V234.22a.52.52,0,0,1,.52-.52h1.25a.52.52,0,0,1,.52.52v13.26A.52.52,0,0,1,127.2,248Z"/><path class="f" d="M139.88,247.9a19.38,19.38,0,0,1-3.25.28c-3.53,0-5.53-2.49-5.53-6.32v-2c0-3.83,2-6.32,5.53-6.32a19.68,19.68,0,0,1,3.25.28c.42.08.52.21.52.58v.93a.39.39,0,0,1-.44.39h-.1a25.46,25.46,0,0,0-3.23-.18c-2.08,0-3.25,1.38-3.25,4.32v2c0,2.92,1.15,4.32,3.25,4.32a25.46,25.46,0,0,0,3.23-.18h.1a.39.39,0,0,1,.44.39v.93C140.4,247.66,140.3,247.82,139.88,247.9Z"/><path class="f" d="M155.28,248.18a36.84,36.84,0,0,1-4.74-.26.59.59,0,0,1-.54-.65V229.41a.61.61,0,0,1,.54-.65,36.84,36.84,0,0,1,4.74-.26c4.81,0,7.87,2.47,7.87,8.09v3.51C163.15,245.66,160.09,248.18,155.28,248.18Zm5.51-11.59c0-4.71-2.39-6.06-5.51-6.06-1.23,0-2,0-2.89.08V246.1c.83.05,1.66.05,2.89.05,3.12,0,5.51-1.37,5.51-6.05Z"/><path class="f" d="M176.93,241.58h-8.71v.36c0,3.1,1.23,4.24,3.62,4.24a34.28,34.28,0,0,0,4.63-.29h.13a.37.37,0,0,1,.41.37v.88c0,.34-.1.52-.52.6a23.25,23.25,0,0,1-4.65.44c-3,0-5.9-1.4-5.9-6.24V239.6c0-3.72,2.05-6.08,5.77-6.08s5.72,2.39,5.72,6.08V241A.5.5,0,0,1,176.93,241.58Zm-1.82-2c0-2.94-1.11-4.08-3.4-4.08s-3.49,1.27-3.49,4.08v.24h6.89Z"/><path class="f" d="M185.88,248.18a19.28,19.28,0,0,1-3-.28v4.7a.5.5,0,0,1-.5.5H181a.48.48,0,0,1-.47-.5V234.71c0-.33.08-.49.54-.59a21.43,21.43,0,0,1,4.79-.6c3.87,0,5.67,2.52,5.67,6.42v1.87C191.55,245.89,189.67,248.18,185.88,248.18Zm3.38-8.24c0-2.73-.81-4.5-3.38-4.5a19.15,19.15,0,0,0-3,.26V246a21,21,0,0,0,3,.26c2.55,0,3.38-1.67,3.38-4.45Z"/><path class="f" d="M196.69,248h-1.35a.49.49,0,0,1-.47-.52V228.94a.47.47,0,0,1,.47-.49h1.35a.47.47,0,0,1,.47.49v18.54A.49.49,0,0,1,196.69,248Z"/><path class="f" d="M206.26,248.18c-3.82,0-5.77-2.52-5.77-6.34v-2c0-3.82,1.95-6.34,5.77-6.34s5.8,2.52,5.8,6.34v2C212.06,245.66,210.08,248.18,206.26,248.18Zm3.51-8.32c0-2.65-1.06-4.34-3.51-4.34s-3.48,1.66-3.48,4.34v2c0,2.65,1,4.34,3.48,4.34s3.51-1.66,3.51-4.34Z"/><path class="f" d="M225.63,234.32l-4.29,15c-.8,2.81-1.77,3.85-4.76,3.85a10.84,10.84,0,0,1-2.18-.24c-.31-.07-.55-.15-.55-.41v-1c0-.29.21-.42.5-.42h.08c.57,0,1.74.16,2.31.16,1.48,0,2.13-.39,2.57-2.21l.26-1.07h-.36c-.78,0-1.46-.18-1.92-1.79l-3.46-11.89a.38.38,0,0,1,0-.18.42.42,0,0,1,.47-.44h1.43a.52.52,0,0,1,.44.42l3.07,11.28c.13.52.31.57.49.57h.42l3.17-11.88a.53.53,0,0,1,.5-.39h1.45a.4.4,0,0,1,.42.44A.38.38,0,0,1,225.63,234.32Z"/></g><g class="d"><g class="d"><path class="e" d="M241.93,248h-1.36a.49.49,0,0,1-.46-.52V228.94a.47.47,0,0,1,.46-.49h1.36a.47.47,0,0,1,.46.49v18.54A.49.49,0,0,1,241.93,248Z"/><path class="e" d="M248.3,231.41H247a.52.52,0,0,1-.52-.52v-2.08a.52.52,0,0,1,.52-.52h1.33a.53.53,0,0,1,.52.52v2.08A.52.52,0,0,1,248.3,231.41ZM248.24,248H247a.52.52,0,0,1-.52-.52V234.22a.52.52,0,0,1,.52-.52h1.24a.52.52,0,0,1,.52.52v13.26A.52.52,0,0,1,248.24,248Z"/><path class="e" d="M263.58,234.32l-3.51,12.38c-.33,1.17-1.22,1.48-2.34,1.48a2.09,2.09,0,0,1-2.34-1.48l-3.51-12.38a.62.62,0,0,1,0-.18.4.4,0,0,1,.41-.44h1.43c.21,0,.39.16.5.49l3,11.34c.15.62.28.75.54.75s.39-.13.55-.75l3-11.34c.1-.33.29-.49.49-.49h1.43a.4.4,0,0,1,.42.44A.42.42,0,0,1,263.58,234.32Z"/><path class="e" d="M276.4,241.58h-8.71v.36c0,3.1,1.22,4.24,3.62,4.24a34.13,34.13,0,0,0,4.62-.29h.13a.38.38,0,0,1,.42.37v.88c0,.34-.1.52-.52.6a23.25,23.25,0,0,1-4.65.44c-3,0-5.91-1.4-5.91-6.24V239.6c0-3.72,2.06-6.08,5.78-6.08s5.72,2.39,5.72,6.08V241A.51.51,0,0,1,276.4,241.58Zm-1.82-2c0-2.94-1.12-4.08-3.4-4.08s-3.49,1.27-3.49,4.08v.24h6.89Z"/><path class="e" d="M293.46,230h-1.25c-1.22,0-1.59.37-1.59,1.8v1.87h2.73a.48.48,0,0,1,.5.47v1a.45.45,0,0,1-.5.44h-2.73v11.86a.53.53,0,0,1-.49.52h-1.27a.54.54,0,0,1-.52-.52V235.62l-2.53-.28a.49.49,0,0,1-.49-.47v-.7a.47.47,0,0,1,.49-.47h2.53v-1.87c0-2.78,1.35-3.62,3.64-3.62a5.79,5.79,0,0,1,1.45.16c.29.08.5.18.5.42v.85C293.93,229.93,293.74,230,293.46,230Z"/><path class="e" d="M301.08,248.18c-3.83,0-5.78-2.52-5.78-6.34v-2c0-3.82,1.95-6.34,5.78-6.34s5.79,2.52,5.79,6.34v2C306.87,245.66,304.9,248.18,301.08,248.18Zm3.51-8.32c0-2.65-1.07-4.34-3.51-4.34s-3.49,1.66-3.49,4.34v2c0,2.65,1,4.34,3.49,4.34s3.51-1.66,3.51-4.34Z"/><path class="e" d="M315.82,235.49a6.67,6.67,0,0,0-3.59,1.1v10.89a.54.54,0,0,1-.52.52h-1.27a.52.52,0,0,1-.5-.52V234.22a.5.5,0,0,1,.5-.52h1.22a.5.5,0,0,1,.49.52v.55a6.23,6.23,0,0,1,3.67-1.25c.36,0,.54.15.54.47v1.06C316.36,235.34,316.18,235.49,315.82,235.49Z"/><path class="e" d="M330.59,248.18a19.73,19.73,0,0,1-4.58-.47c-.29-.07-.49-.18-.49-.52v-1a.35.35,0,0,1,.39-.39H326a26.44,26.44,0,0,0,4.55.37c2.93,0,4.23-1.43,4.23-4.09v-.39c0-2.6-1.61-3.48-5.43-3.48h-3.12a.44.44,0,0,1-.42-.44v0l.73-8.66a.51.51,0,0,1,.52-.44h8.95a.47.47,0,0,1,.52.44v1.15c0,.28-.24.41-.52.41h-7.47l-.41,5.62h1.22c4.84,0,7.83,1.27,7.83,5.43v.39C337.22,246,334.8,248.18,330.59,248.18Z"/><path class="e" d="M346.29,248.18a19.43,19.43,0,0,1-4.39-.52.54.54,0,0,1-.5-.49v-.89a.41.41,0,0,1,.44-.44h.08a35.41,35.41,0,0,0,4.37.37c2.83,0,4.06-1.1,4.06-3.59v-.55a2.9,2.9,0,0,0-3.05-3.17h-4.73a.46.46,0,0,1-.49-.47v-.91a.48.48,0,0,1,.49-.49h4.73a2.78,2.78,0,0,0,3.05-3.1v-.36c0-2.13-1.12-3.09-4.06-3.09a33.21,33.21,0,0,0-4.37.39h-.08a.41.41,0,0,1-.44-.45v-.91a.57.57,0,0,1,.5-.49,21.14,21.14,0,0,1,4.39-.52c3.87,0,6.47,1.22,6.47,5.07v.36a4.37,4.37,0,0,1-2.47,4.06,4.34,4.34,0,0,1,2.47,4.08v.55C352.76,246.52,350.09,248.18,346.29,248.18Z"/><path class="e" d="M366.15,248H365a.52.52,0,0,1-.52-.52v-.57a7.91,7.91,0,0,1-4,1.27c-2.21,0-4.23-1-4.23-4.21v-.31c0-2.81,1.63-4.21,6.26-4.21h1.93v-1c0-2.19-.76-2.94-2.79-2.94a36,36,0,0,0-4,.21h-.13c-.24,0-.47-.08-.47-.42v-.91c0-.29.18-.44.54-.49a21.75,21.75,0,0,1,4-.34c3.62,0,5.07,1.82,5.07,4.89v9.07A.52.52,0,0,1,366.15,248Zm-1.76-6.92h-1.93c-3.14,0-4,.71-4,2.55v.31c0,1.88.89,2.37,2.4,2.37a7.14,7.14,0,0,0,3.51-1Z"/><path class="e" d="M376.45,248.18h-.26c-3.46,0-6.32-1.77-6.32-5.56v-.5a4.93,4.93,0,0,1,2.52-4.21,4.4,4.4,0,0,1-2.47-4v-.24c0-3.59,2.71-5.12,6.27-5.12h.26c3.56,0,6.26,1.53,6.26,5.12v.24a4.39,4.39,0,0,1-2.46,4,4.93,4.93,0,0,1,2.52,4.21v.5C382.77,246.41,379.91,248.18,376.45,248.18Zm4-14.56c0-2.08-1.41-3.2-4-3.2h-.26c-2.57,0-4,1.12-4,3.2v.24a3,3,0,0,0,3.3,3.12h1.62a3,3,0,0,0,3.3-3.12Zm0,8.5a3.1,3.1,0,0,0-3.27-3.27h-1.62a3.1,3.1,0,0,0-3.27,3.27v.5c0,2.23,1.38,3.59,3.95,3.59h.26c2.57,0,3.95-1.36,3.95-3.59Z"/><path class="e" d="M391.24,248.18a19.5,19.5,0,0,1-4.39-.52.55.55,0,0,1-.5-.49v-.89a.42.42,0,0,1,.45-.44h.08a35.1,35.1,0,0,0,4.36.37c2.84,0,4.06-1.1,4.06-3.59v-.55a2.9,2.9,0,0,0-3-3.17h-4.74a.46.46,0,0,1-.49-.47v-.91a.48.48,0,0,1,.49-.49h4.74a2.78,2.78,0,0,0,3-3.1v-.36c0-2.13-1.12-3.09-4.06-3.09a33.07,33.07,0,0,0-4.36.39h-.08a.42.42,0,0,1-.45-.45v-.91a.58.58,0,0,1,.5-.49,21.23,21.23,0,0,1,4.39-.52c3.88,0,6.48,1.22,6.48,5.07v.36a4.39,4.39,0,0,1-2.47,4.06,4.36,4.36,0,0,1,2.47,4.08v.55C397.72,246.52,395,248.18,391.24,248.18Z"/></g></g></g><path class="g" d="M280.77,173.05a2,2,0,0,1-1.44-.62l-7.28-7.57a2,2,0,0,1,2.89-2.77l5.8,6,5.53-6a2,2,0,1,1,2.94,2.71l-7,7.57a2,2,0,0,1-1.45.65Z"/><rect class="f" x="324.25" y="142" width="65.2" height="42" rx="11"/><g class="d"><g class="d"><path class="e" d="M341.35,169.49h5.52V172h-8.32V155.29h2.8Z"/><path class="e" d="M350.08,158a1.59,1.59,0,0,1-1.17-.49,1.56,1.56,0,0,1-.49-1.16,1.64,1.64,0,0,1,1.66-1.65,1.66,1.66,0,0,1,1.65,1.65,1.56,1.56,0,0,1-.49,1.16A1.57,1.57,0,0,1,350.08,158Zm-1.38,14V160.21h2.7V172Z"/><path class="e" d="M362.06,160.21h2.87L360,172h-2.33l-4.87-11.79h2.86l3.17,8.7Z"/><path class="e" d="M376.57,165.91l0,.68h-9a3.51,3.51,0,0,0,1,2.57,3.33,3.33,0,0,0,2.38.89,3.24,3.24,0,0,0,1.75-.48,3,3,0,0,0,1.17-1.37l2.46.43a5.2,5.2,0,0,1-2,2.64,5.82,5.82,0,0,1-3.32.95,6.33,6.33,0,0,1-4.42-10.6,5.9,5.9,0,0,1,4.34-1.64,5.63,5.63,0,0,1,4.09,1.5A6,6,0,0,1,376.57,165.91ZM370.93,162a3.43,3.43,0,0,0-2.13.64,3.16,3.16,0,0,0-1.12,1.95h6.18a2.79,2.79,0,0,0-.94-1.93A3,3,0,0,0,370.93,162Z"/></g></g><g class="d"><g class="d"><path class="g" d="M17.15,176.23H14.48a.61.61,0,0,1-.58-.61v-9.54c0-2.52-.43-3.16-2.38-3.16a7.54,7.54,0,0,0-3.36,1v11.71a.61.61,0,0,1-.58.61H4.91a.61.61,0,0,1-.58-.61V154.74a.58.58,0,0,1,.58-.58H7.58a.58.58,0,0,1,.58.58v6a7.84,7.84,0,0,1,4.38-1.07c4,0,5.19,2.84,5.19,6.41v9.54A.61.61,0,0,1,17.15,176.23Z"/><path class="g" d="M28.69,176.26a11.49,11.49,0,0,1-2,.21c-3.28,0-4.61-.73-4.61-4.62v-9.1l-2.73-.41a.62.62,0,0,1-.58-.58v-1.31a.58.58,0,0,1,.58-.58h2.73V157.5a.62.62,0,0,1,.58-.58l2.7-.47h.11a.43.43,0,0,1,.47.44v3h2.61a.58.58,0,0,1,.58.58v1.72a.59.59,0,0,1-.58.58H26v9.1c0,1.45.08,1.63,1.13,1.63h1.53c.38,0,.61.14.61.43v1.83C29.24,176,29.07,176.2,28.69,176.26Z"/><path class="g" d="M39.63,176.26a11.71,11.71,0,0,1-2,.21c-3.27,0-4.61-.73-4.61-4.62v-9.1l-2.73-.41a.63.63,0,0,1-.58-.58v-1.31a.59.59,0,0,1,.58-.58H33V157.5a.62.62,0,0,1,.58-.58l2.7-.47h.12a.42.42,0,0,1,.46.44v3h2.61a.58.58,0,0,1,.58.58v1.72a.59.59,0,0,1-.58.58H36.9v9.1c0,1.45.09,1.63,1.13,1.63h1.54c.38,0,.61.14.61.43v1.83C40.18,176,40,176.2,39.63,176.26Z"/><path class="g" d="M48.59,176.47a21.34,21.34,0,0,1-2.79-.21v5.14a.58.58,0,0,1-.58.58H42.55a.58.58,0,0,1-.58-.58V161.21c0-.44.12-.61.79-.79a24.85,24.85,0,0,1,5.83-.75c4.67,0,6.93,2.76,6.93,7.28v2.23C55.52,173.71,53.26,176.47,48.59,176.47Zm3.1-9.52c0-2.38-.61-4.15-3.1-4.15a16.34,16.34,0,0,0-2.79.21v10.12a23.32,23.32,0,0,0,2.79.2c2.49,0,3.1-1.77,3.1-4.15Z"/><path class="g" d="M63.2,176.47a24.3,24.3,0,0,1-5.19-.58.66.66,0,0,1-.55-.67v-1.74A.49.49,0,0,1,58,173h.12c1.39.18,4,.32,4.87.32,1.8,0,2.06-.61,2.06-1.39,0-.55-.35-.9-1.28-1.48l-4-2.44a4.78,4.78,0,0,1-2.44-4c0-2.9,1.83-4.35,5.51-4.35a21.51,21.51,0,0,1,5.17.58.63.63,0,0,1,.52.67v1.68c0,.35-.17.55-.46.55h-.12a44.06,44.06,0,0,0-4.79-.35c-1.39,0-2,.32-2,1.22,0,.47.44.76,1.16,1.19l3.8,2.32c2.44,1.48,2.79,2.93,2.79,4.41C68.89,174.46,67,176.47,63.2,176.47Z"/><path class="g" d="M74.42,164.78H71.84a.56.56,0,0,1-.58-.56V161a.58.58,0,0,1,.58-.58h2.58A.59.59,0,0,1,75,161v3.27A.57.57,0,0,1,74.42,164.78Zm0,11.45H71.84a.58.58,0,0,1-.58-.58v-3.28a.56.56,0,0,1,.58-.55h2.58a.57.57,0,0,1,.59.55v3.28A.59.59,0,0,1,74.42,176.23Z"/><path class="g" d="M83.41,154.68h2.35a.42.42,0,0,1,.44.58l-6.3,20.36c-.08.29-.23.61-.55.61H77a.45.45,0,0,1-.46-.61l6.32-20.36C83,155,83.1,154.68,83.41,154.68Z"/><path class="g" d="M92.61,154.68H95a.41.41,0,0,1,.43.58L89.1,175.62c-.09.29-.23.61-.55.61H86.2a.45.45,0,0,1-.47-.61l6.33-20.36C92.14,155,92.29,154.68,92.61,154.68Z"/><path class="g" d="M110.53,160.54l-4.84,16.94c-.9,3.16-2,4.56-5.92,4.56a13.54,13.54,0,0,1-3.07-.38c-.32-.09-.61-.2-.61-.49v-1.86a.53.53,0,0,1,.58-.52h0c.82,0,2.47.17,3.28.17,1.25,0,1.89-.35,2.29-1.86l.24-.87h-.44c-.84,0-1.88-.2-2.52-2.4l-3.8-13.29a.54.54,0,0,1,0-.2c0-.29.17-.47.55-.47h2.93a.65.65,0,0,1,.55.53l2.93,11.8c.12.49.23.64.41.64h.26l3.13-12.47a.63.63,0,0,1,.58-.5h3a.52.52,0,0,1,.52.5A.36.36,0,0,1,110.53,160.54Z"/><path class="g" d="M118.07,176.47c-4.55,0-6.93-3.08-6.93-7.23v-2.35c0-4.14,2.38-7.22,6.93-7.22s6.93,3.08,6.93,7.22v2.35C125,173.39,122.62,176.47,118.07,176.47Zm3.1-9.58c0-2.38-1.07-3.91-3.1-3.91s-3.1,1.53-3.1,3.91v2.35c0,2.38,1.07,3.92,3.1,3.92s3.1-1.54,3.1-3.92Z"/><path class="g" d="M140.29,176.23h-2.67a.58.58,0,0,1-.58-.58V175a7.53,7.53,0,0,1-4.56,1.45,5,5,0,0,1-3.57-1.22c-1.07-1.08-1.45-2.87-1.45-5.28v-9.46a.61.61,0,0,1,.59-.61h2.66a.61.61,0,0,1,.58.61v9.46c0,1.45.12,2.29.67,2.78a2.51,2.51,0,0,0,1.8.53,8.2,8.2,0,0,0,3.28-1.17v-11.6a.61.61,0,0,1,.58-.61h2.67a.61.61,0,0,1,.58.61v15.17A.59.59,0,0,1,140.29,176.23Z"/><path class="g" d="M151.65,162.92a8.31,8.31,0,0,0-4,1v11.66a.61.61,0,0,1-.58.61H144.4a.61.61,0,0,1-.58-.61V160.45a.58.58,0,0,1,.58-.58h2.52a.58.58,0,0,1,.58.58v.61a6.76,6.76,0,0,1,4.15-1.39.58.58,0,0,1,.58.58v2.09A.58.58,0,0,1,151.65,162.92Z"/><path class="g" d="M159.19,176.47a24.3,24.3,0,0,1-5.19-.58.66.66,0,0,1-.55-.67v-1.74a.49.49,0,0,1,.49-.47h.12c1.39.18,4,.32,4.87.32,1.8,0,2.06-.61,2.06-1.39,0-.55-.35-.9-1.28-1.48l-4-2.44a4.78,4.78,0,0,1-2.44-4c0-2.9,1.83-4.35,5.51-4.35a21.51,21.51,0,0,1,5.17.58.63.63,0,0,1,.52.67v1.68c0,.35-.17.55-.46.55h-.12a44.06,44.06,0,0,0-4.79-.35c-1.39,0-2,.32-2,1.22,0,.47.44.76,1.16,1.19l3.8,2.32c2.44,1.48,2.79,2.93,2.79,4.41C164.88,174.46,163,176.47,159.19,176.47Z"/><path class="g" d="M170.67,157.7h-2.81a.61.61,0,0,1-.61-.58v-2.55a.61.61,0,0,1,.61-.58h2.81a.58.58,0,0,1,.58.58v2.55A.58.58,0,0,1,170.67,157.7Zm-.08,18.53h-2.67a.61.61,0,0,1-.58-.61V160.45a.58.58,0,0,1,.58-.58h2.67a.58.58,0,0,1,.58.58v15.17A.61.61,0,0,1,170.59,176.23Z"/><path class="g" d="M182.8,176.26a11.7,11.7,0,0,1-2,.21c-3.28,0-4.62-.73-4.62-4.62v-9.1l-2.72-.41a.62.62,0,0,1-.58-.58v-1.31a.58.58,0,0,1,.58-.58h2.72V157.5a.62.62,0,0,1,.58-.58l2.7-.47h.12a.42.42,0,0,1,.46.44v3h2.61a.58.58,0,0,1,.58.58v1.72a.59.59,0,0,1-.58.58h-2.61v9.1c0,1.45.09,1.63,1.13,1.63h1.54c.38,0,.61.14.61.43v1.83C183.35,176,183.17,176.2,182.8,176.26Z"/><path class="g" d="M197.94,169.39h-9.46v.08c0,1.69.7,3.69,3.48,3.69,2.12,0,4.12-.18,5.34-.29h.08c.3,0,.53.14.53.43v1.92c0,.46-.09.67-.61.75a25.69,25.69,0,0,1-5.63.5c-2.9,0-7-1.57-7-7.29V167c0-4.53,2.52-7.37,7-7.37s6.91,3.05,6.91,7.37v1.62C198.52,169.13,198.34,169.39,197.94,169.39Zm-3.28-2.85c0-2.26-1.25-3.56-3-3.56s-3.1,1.27-3.1,3.56v.12h6.15Z"/><path class="g" d="M204.14,176.23h-2.58a.58.58,0,0,1-.58-.58v-3.28a.56.56,0,0,1,.58-.55h2.58a.56.56,0,0,1,.58.55v3.28A.58.58,0,0,1,204.14,176.23Z"/><path class="g" d="M217.45,176.09a16,16,0,0,1-3.74.38c-3.77,0-6.61-2.33-6.61-7.05v-2.7c0-4.73,2.84-7.05,6.61-7.05a15.47,15.47,0,0,1,3.74.38c.5.11.61.29.61.75v1.89c0,.29-.23.43-.52.43h-.09a25.64,25.64,0,0,0-3.74-.2c-1.36,0-2.78.78-2.78,3.8v2.7c0,3,1.42,3.8,2.78,3.8a24.05,24.05,0,0,0,3.74-.21h.09c.29,0,.52.15.52.44v1.88C218.06,175.8,218,176,217.45,176.09Z"/><path class="g" d="M226.44,176.47c-4.55,0-6.93-3.08-6.93-7.23v-2.35c0-4.14,2.38-7.22,6.93-7.22s6.93,3.08,6.93,7.22v2.35C233.37,173.39,231,176.47,226.44,176.47Zm3.11-9.58c0-2.38-1.08-3.91-3.11-3.91s-3.1,1.53-3.1,3.91v2.35c0,2.38,1.07,3.92,3.1,3.92s3.11-1.54,3.11-3.92Z"/><path class="g" d="M256.08,176.23h-2.67a.61.61,0,0,1-.58-.61v-9.86c0-2.23-.46-2.81-2.09-2.81a6.29,6.29,0,0,0-2.69.72,17.37,17.37,0,0,1,.11,2.09v9.86a.61.61,0,0,1-.58.61h-2.67a.61.61,0,0,1-.58-.61v-9.86c0-2.23-.37-2.81-2-2.81a6.42,6.42,0,0,0-2.67,1v11.71a.61.61,0,0,1-.58.61h-2.66a.61.61,0,0,1-.58-.61V160.45a.58.58,0,0,1,.58-.58h2.52a.58.58,0,0,1,.58.58v.61a7.29,7.29,0,0,1,4.15-1.39,4.09,4.09,0,0,1,3.39,1.31,9,9,0,0,1,4.79-1.31c3.94,0,4.81,2.7,4.81,6.09v9.86A.61.61,0,0,1,256.08,176.23Z"/></g></g><rect class="h" width="390" height="76.71" rx="12"/><g class="d"><g class="d"><path class="i" d="M185.33,47.81a27.44,27.44,0,0,1-4.77.36c-3,0-6.22-2-6.22-7.47V37.49c0-5.84,3.36-7.49,6.43-7.49a28.35,28.35,0,0,1,4.56.33c.22,0,.41.12.41.36v1.2c0,.17-.1.25-.31.25h-.1a44.8,44.8,0,0,0-4.56-.17c-2.23,0-4.25,1.2-4.25,5.52V40.7c0,4,1.8,5.52,4,5.52,1.46,0,2.44-.09,3-.14V39.22a.44.44,0,0,1,.43-.48h1.3a.47.47,0,0,1,.45.48v8.06A.52.52,0,0,1,185.33,47.81Z"/><path class="i" d="M192.2,48h-1.32a.46.46,0,0,1-.44-.48V30.62a.43.43,0,0,1,.44-.45h1.32a.43.43,0,0,1,.43.45v16.9A.46.46,0,0,1,192.2,48Z"/><path class="i" d="M208.3,32h-4.68V47.52a.46.46,0,0,1-.43.48h-1.32a.46.46,0,0,1-.43-.48V32h-4.68c-.27,0-.49-.12-.49-.39v-1a.46.46,0,0,1,.49-.43H208.3a.42.42,0,0,1,.46.43v1A.41.41,0,0,1,208.3,32Z"/><path class="i" d="M223.35,40.9c-.77,0-1.78-.08-2.4-.12v6.74a.46.46,0,0,1-.44.48h-1.29a.46.46,0,0,1-.43-.48V30.79a.58.58,0,0,1,.57-.6,38.68,38.68,0,0,1,4-.19c3.89,0,6.72,1.34,6.72,5.21v.31C230.07,39.53,227.24,40.9,223.35,40.9Zm4.53-5.69c0-2.43-1.44-3.36-4.53-3.36-.75,0-1.83,0-2.4.09v7c.55,0,1.77.09,2.4.09,3.28,0,4.53-1,4.53-3.55Z"/><path class="i" d="M239.79,48.17c-3.89,0-6.15-2.07-6.15-6.65V30.62a.45.45,0,0,1,.46-.45h1.29a.46.46,0,0,1,.46.45v10.9c0,3.1,1,4.78,3.94,4.78s3.93-1.66,3.93-4.78V30.62a.46.46,0,0,1,.46-.45h1.3a.45.45,0,0,1,.45.45v10.9C245.93,46.1,243.68,48.17,239.79,48.17Z"/><path class="i" d="M254.5,48.17a23.81,23.81,0,0,1-4-.34c-.4-.07-.45-.17-.45-.43v-1a.37.37,0,0,1,.41-.38h.07c1.1.09,2.85.14,4,.14,2.88,0,3.65-1.15,3.65-2.83,0-1.2-.7-1.87-2.88-3.22l-2.33-1.41c-2.21-1.35-3.31-2.57-3.31-4.49,0-2.91,2.08-4.25,5.73-4.25a31.43,31.43,0,0,1,4.18.29c.24,0,.41.16.41.4v1a.37.37,0,0,1-.41.38h-.05c-1.06-.07-2.74-.14-4.13-.14-2.47,0-3.53.53-3.53,2.28,0,1.13.8,1.8,2.62,2.9l2.21,1.32c2.78,1.66,3.77,3,3.77,4.9C260.43,45.67,259.23,48.17,254.5,48.17Z"/><path class="i" d="M276.29,48h-1.22a.48.48,0,0,1-.48-.48v-8h-8.21v8a.49.49,0,0,1-.48.48h-1.23a.49.49,0,0,1-.48-.48V30.65a.48.48,0,0,1,.48-.48h1.23a.48.48,0,0,1,.48.48v7h8.21v-7a.47.47,0,0,1,.48-.48h1.22a.48.48,0,0,1,.48.48V47.52A.49.49,0,0,1,276.29,48Z"/></g></g><path class="j" d="M122.7,17a21.49,21.49,0,0,0-6.79,41.87c1.07.2,1.46-.47,1.46-1s0-1.86,0-3.65c-6,1.3-7.23-2.88-7.23-2.88a5.71,5.71,0,0,0-2.39-3.15c-2-1.33.15-1.3.15-1.3a4.53,4.53,0,0,1,3.29,2.21c1.92,3.29,5,2.34,6.25,1.79A4.55,4.55,0,0,1,118.78,48C114,47.43,109,45.59,109,37.36a8.32,8.32,0,0,1,2.21-5.77,7.74,7.74,0,0,1,.21-5.68s1.8-.58,5.91,2.2a20.46,20.46,0,0,1,10.76,0c4.1-2.78,5.9-2.2,5.9-2.2a7.69,7.69,0,0,1,.21,5.68,8.34,8.34,0,0,1,2.21,5.77c0,8.25-5,10.07-9.81,10.6a5.15,5.15,0,0,1,1.46,4c0,2.87,0,5.19,0,5.89s.39,1.24,1.48,1A21.48,21.48,0,0,0,122.7,17Z"/><circle class="f" cx="195.6" cy="99.15" r="3.15"/><circle class="f" cx="195.6" cy="115.8" r="3.15"/><circle class="f" cx="195.6" cy="132.8" r="3.15"/><line class="k" x1="0.45" y1="301.07" x2="389.45" y2="301.07"/><line class="k" x1="0.45" y1="394" x2="389.45" y2="394"/><rect class="l" x="2.45" y="200" width="387" height="304" rx="12"/></svg>