<svg xmlns="http://www.w3.org/2000/svg" xmlns:xlink="http://www.w3.org/1999/xlink" viewBox="0 0 390 457"><defs><style>.a,.d{fill:none;}.b{isolation:isolate;}.c{fill:#242a55;}.d{stroke:#d2ddeb;stroke-width:2px;}.e{fill:#eff1f4;}.f{fill:#5aedc5;}.g{clip-path:url(#a);}.h{fill:#e1e4ea;}</style><clipPath id="a"><rect class="a" x="333.23" y="50.52" width="28" height="305"/></clipPath></defs><title>step-02</title><g class="b"><g class="b"><path class="c" d="M10.51,16.7a23.2,23.2,0,0,1-3.8-.24c-.73-.13-1.06-.38-1.06-1.19V1.41c0-.79.29-1.08,1-1.19A27,27,0,0,1,10.31,0c4,0,6.78,1.14,6.78,4.47v.44a3.44,3.44,0,0,1-2,3.32,3.38,3.38,0,0,1,2.13,3.34V12C17.2,15.45,14.61,16.7,10.51,16.7ZM14.12,4.64c0-1.54-1-2.11-3.81-2.11-.52,0-1.14,0-1.6,0V7H11.5c2.05,0,2.62-1,2.62-2.09Zm.09,7c0-1.21-.64-2.33-2.71-2.33H8.71v4.84c.53,0,1.34,0,1.8,0,2.82,0,3.7-.73,3.7-2.27Z"/><path class="c" d="M32.45,16.52H29.76c-.24,0-.33-.22-.44-.44l-3.17-5.87h-.3c-.58,0-1.46-.07-2-.09v6a.42.42,0,0,1-.42.44h-2.2a.44.44,0,0,1-.44-.44V1c0-.44.26-.6.7-.66A29.56,29.56,0,0,1,25.85,0c3.39,0,6.33,1.21,6.33,5v.2a4.45,4.45,0,0,1-3,4.49l3.46,6.42a.35.35,0,0,1,0,.18A.24.24,0,0,1,32.45,16.52ZM29.15,5c0-1.65-1.1-2.35-3.3-2.35-.47,0-1.57,0-2,.09v5c.35,0,1.58.06,2,.06,2.26,0,3.3-.61,3.3-2.55Z"/><path class="c" d="M47.83,16.52H45.49a.45.45,0,0,1-.41-.37l-1-4.18H39l-1,4.18a.46.46,0,0,1-.42.37H35.24a.38.38,0,0,1-.4-.37.81.81,0,0,0,0-.11l3.6-13.8A2.84,2.84,0,0,1,41.53,0a2.83,2.83,0,0,1,3.06,2.24L48.2,16s0,.09,0,.11A.37.37,0,0,1,47.83,16.52ZM41.88,2.93c-.06-.27-.13-.36-.35-.36s-.28.09-.35.36L39.6,9.46h3.87Z"/><path class="c" d="M62.65,16.52H60.43a1.18,1.18,0,0,1-1.34-.79L54.2,5c-.06-.14-.13-.18-.19-.18s-.11,0-.11.18V16.08a.42.42,0,0,1-.42.44H51.61a.44.44,0,0,1-.44-.44v-15a.87.87,0,0,1,.88-.88h2.37c.47,0,.71.13,1,.7l5.13,11.31c0,.11.11.18.18.18s.11-.07.11-.2V.59a.39.39,0,0,1,.41-.41h1.9a.39.39,0,0,1,.41.41V15.64A.87.87,0,0,1,62.65,16.52Z"/><path class="c" d="M77,16.35a16.62,16.62,0,0,1-3.48.35c-2.64,0-6.23-1.3-6.23-6.73V6.73C67.27,1.21,70.86,0,73.5,0A16.62,16.62,0,0,1,77,.35c.28.09.48.2.48.51V2.33c0,.27-.11.46-.44.46h0c-.77-.06-2.27-.17-3.44-.17-1.85,0-3.19,1-3.19,4.11V10c0,3.06,1.34,4.11,3.19,4.11,1.17,0,2.67-.11,3.44-.17h0c.33,0,.44.19.44.46v1.47C77.46,16.15,77.26,16.26,77,16.35Z"/><path class="c" d="M92.9,16.52H90.72a.44.44,0,0,1-.44-.44V9.35H84v6.73a.44.44,0,0,1-.44.44H81.42a.44.44,0,0,1-.44-.44V.59a.42.42,0,0,1,.44-.41H83.6A.42.42,0,0,1,84,.59V6.67h6.24V.59a.42.42,0,0,1,.44-.41H92.9a.41.41,0,0,1,.44.41V16.08A.43.43,0,0,1,92.9,16.52Z"/></g></g><rect class="c" y="28.52" width="390" height="72.14" rx="12"/><rect class="d" x="1" y="29.52" width="388" height="70.14" rx="11"/><g class="b"><g class="b"><path class="e" d="M41.33,72H40.09a.52.52,0,0,1-.52-.52V62.31c0-2.18-1-2.78-2.37-2.78a9,9,0,0,0-3,.7,8,8,0,0,1,.23,2v9.26a.49.49,0,0,1-.47.52H32.55a.49.49,0,0,1-.45-.52V62.26c0-2.26-.65-2.73-2-2.73a8,8,0,0,0-3.17,1v11a.49.49,0,0,1-.47.52H25.08a.48.48,0,0,1-.44-.52V58.26a.5.5,0,0,1,.5-.52h1.3a.5.5,0,0,1,.49.52v.49a7.32,7.32,0,0,1,3.8-1.22,3.19,3.19,0,0,1,2.6,1.06,10.5,10.5,0,0,1,4.31-1.06c2.34,0,4.21,1.17,4.21,4.78v9.21A.52.52,0,0,1,41.33,72Z"/><path class="e" d="M54.83,72h-1.2a.52.52,0,0,1-.52-.52v-.58a7.92,7.92,0,0,1-4,1.28c-2.21,0-4.24-1-4.24-4.21v-.32c0-2.8,1.64-4.21,6.26-4.21h1.93v-1c0-2.18-.76-2.94-2.78-2.94a38.93,38.93,0,0,0-4,.21h-.13c-.24,0-.47-.08-.47-.41v-.91c0-.29.18-.45.55-.5a22.48,22.48,0,0,1,4-.34c3.61,0,5.07,1.82,5.07,4.89v9.08A.53.53,0,0,1,54.83,72Zm-1.77-6.92H51.13c-3.14,0-4,.7-4,2.55V68c0,1.87.88,2.37,2.39,2.37a7.21,7.21,0,0,0,3.51-1Z"/><path class="e" d="M63.07,72.22A20.32,20.32,0,0,1,59,71.83c-.34-.08-.54-.24-.54-.52V70.4a.41.41,0,0,1,.46-.39H59c1.24.15,3.14.28,4.08.28,1.69,0,2.57-.44,2.57-1.84,0-.78-.47-1.28-2-2.16l-2.62-1.56c-1.59-1-2.65-2.08-2.65-3.72,0-2.7,2-3.46,4.7-3.46a24.13,24.13,0,0,1,4.06.34.49.49,0,0,1,.49.52v.86a.4.4,0,0,1-.44.44h-.08c-.91-.08-2.57-.21-4-.21S60.7,59.69,60.7,61c0,.78.6,1.28,1.8,2l2.57,1.53c2.16,1.28,2.86,2.39,2.86,3.93C67.93,71.1,66,72.22,63.07,72.22Z"/><path class="e" d="M77.79,72.09a12.52,12.52,0,0,1-1.7.13c-2.39,0-3.53-.63-3.53-3.49V59.66L70,59.37c-.29,0-.5-.18-.5-.46V58.2a.46.46,0,0,1,.5-.46h2.52V55.19a.53.53,0,0,1,.47-.52l1.35-.21h.08a.41.41,0,0,1,.39.44v2.84h2.8a.52.52,0,0,1,.52.52v.88a.52.52,0,0,1-.52.52h-2.8v9.07c0,1.43.36,1.64,1.4,1.64h1.46c.36,0,.54.11.54.37v.91C78.25,71.88,78.12,72,77.79,72.09Z"/><path class="e" d="M91.2,65.61H82.49V66c0,3.09,1.22,4.24,3.61,4.24a35.88,35.88,0,0,0,4.63-.29h.13c.21,0,.42.1.42.36v.89c0,.34-.1.52-.52.6a24,24,0,0,1-4.66.44c-3,0-5.9-1.41-5.9-6.24V63.64c0-3.72,2.06-6.09,5.78-6.09S91.7,60,91.7,63.64V65A.5.5,0,0,1,91.2,65.61Zm-1.82-2c0-2.94-1.12-4.08-3.4-4.08s-3.49,1.27-3.49,4.08v.23h6.89Z"/><path class="e" d="M100.69,59.53a6.65,6.65,0,0,0-3.59,1.09v10.9a.54.54,0,0,1-.52.52H95.31a.53.53,0,0,1-.5-.52V58.26a.5.5,0,0,1,.5-.52h1.22a.49.49,0,0,1,.49.52v.54a6.23,6.23,0,0,1,3.67-1.25c.36,0,.55.16.55.47v1.07C101.24,59.37,101.05,59.53,100.69,59.53Z"/></g></g><g class="b"><g class="b"><path class="c" d="M10.51,149.7a23.2,23.2,0,0,1-3.8-.24c-.73-.13-1.06-.38-1.06-1.19V134.41c0-.79.29-1.08,1-1.19a27,27,0,0,1,3.67-.22c4,0,6.78,1.14,6.78,4.47v.44a3.44,3.44,0,0,1-2,3.32,3.38,3.38,0,0,1,2.13,3.34V145C17.2,148.45,14.61,149.7,10.51,149.7Zm3.61-12.06c0-1.54-1-2.11-3.81-2.11-.52,0-1.14,0-1.6,0V140H11.5c2.05,0,2.62-1,2.62-2.09Zm.09,7c0-1.21-.64-2.33-2.71-2.33H8.71v4.84c.53,0,1.34,0,1.8,0,2.82,0,3.7-.73,3.7-2.27Z"/><path class="c" d="M26.77,149.7c-3.54,0-6.05-1.54-6.05-6.23v-9.88a.42.42,0,0,1,.44-.41h2.18a.42.42,0,0,1,.44.41v9.88c0,2.51.61,3.7,3,3.7s3-1.19,3-3.7v-9.88a.42.42,0,0,1,.44-.41h2.18a.42.42,0,0,1,.44.41v9.88C32.82,148.16,30.31,149.7,26.77,149.7Z"/><path class="c" d="M39.51,149.52H37.33a.44.44,0,0,1-.44-.44V133.59a.42.42,0,0,1,.44-.41h2.18a.42.42,0,0,1,.44.41v15.49A.44.44,0,0,1,39.51,149.52Z"/><path class="c" d="M53,149.39a23.1,23.1,0,0,1-3.74.31c-2.86,0-5.08-.77-5.08-4.51V133.62a.44.44,0,0,1,.44-.44h2.18a.44.44,0,0,1,.44.44v11.57c0,1.45.44,1.89,1.71,1.89H53a.44.44,0,0,1,.44.44v1.41C53.39,149.24,53.28,149.33,53,149.39Z"/><path class="c" d="M61.27,149.7a37.47,37.47,0,0,1-4.34-.26.61.61,0,0,1-.57-.69V134a.61.61,0,0,1,.57-.69,37.47,37.47,0,0,1,4.34-.26c4.4,0,6.9,2.38,6.9,6.73V143C68.17,147.32,65.67,149.7,61.27,149.7Zm3.87-10c0-3.3-1.67-4.16-3.87-4.16-.82,0-1.39.05-1.85.07v11.42c.46,0,1,.07,1.85.07,2.2,0,3.87-.86,3.87-4.16Z"/><path class="c" d="M87.56,149.35a16.62,16.62,0,0,1-3.48.35c-2.64,0-6.23-1.3-6.23-6.73v-3.24c0-5.52,3.59-6.73,6.23-6.73a16.62,16.62,0,0,1,3.48.35c.28.09.48.2.48.51v1.47c0,.27-.11.46-.44.46h0c-.77-.06-2.27-.17-3.44-.17-1.84,0-3.19,1-3.19,4.11V143c0,3.06,1.35,4.11,3.19,4.11,1.17,0,2.67-.11,3.44-.17h0c.33,0,.44.19.44.46v1.47C88,149.15,87.84,149.26,87.56,149.35Z"/><path class="c" d="M96.84,149.7c-3.63,0-6.27-2-6.27-6.87v-3c0-4.85,2.64-6.87,6.27-6.87s6.27,2,6.27,6.87v3C103.11,147.68,100.47,149.7,96.84,149.7Zm3.19-9.83c0-2.91-1-4.21-3.19-4.21s-3.19,1.3-3.19,4.21v3c0,2.91,1,4.21,3.19,4.21s3.19-1.3,3.19-4.21Z"/><path class="c" d="M120.6,149.52h-2.22a.41.41,0,0,1-.35-.44V138.85c0-.15,0-.22-.07-.22s-.07.07-.11.13L115.74,143a.8.8,0,0,1-.71.37h-2.22a.79.79,0,0,1-.7-.37L110,138.76c0-.06-.08-.13-.11-.13s-.06.07-.06.22v10.23a.42.42,0,0,1-.35.44h-2.23a.33.33,0,0,1-.37-.33V134.06a.88.88,0,0,1,.88-.88h1.8a.94.94,0,0,1,.82.52l3.32,6.74c.11.19.15.31.24.31s.13-.12.24-.31l3.33-6.74a.92.92,0,0,1,.81-.52h1.8a.88.88,0,0,1,.89.88v15.13A.34.34,0,0,1,120.6,149.52Z"/><path class="c" d="M138.9,149.52h-2.22a.41.41,0,0,1-.35-.44V138.85c0-.15,0-.22-.07-.22s-.06.07-.11.13L134,143a.79.79,0,0,1-.7.37h-2.22a.8.8,0,0,1-.71-.37l-2.13-4.21c-.05-.06-.09-.13-.11-.13s-.07.07-.07.22v10.23a.41.41,0,0,1-.35.44h-2.22a.34.34,0,0,1-.38-.33V134.06a.88.88,0,0,1,.88-.88h1.81a.92.92,0,0,1,.81.52l3.32,6.74c.11.19.16.31.25.31s.13-.12.24-.31l3.32-6.74a.92.92,0,0,1,.81-.52h1.81a.88.88,0,0,1,.88.88v15.13A.34.34,0,0,1,138.9,149.52Z"/><path class="c" d="M155.21,149.52h-2.34a.45.45,0,0,1-.41-.37l-1-4.18h-5.06l-1,4.18a.46.46,0,0,1-.42.37h-2.33a.38.38,0,0,1-.4-.37.81.81,0,0,0,0-.11l3.6-13.8a3.21,3.21,0,0,1,6.12,0l3.61,13.8s0,.09,0,.11A.37.37,0,0,1,155.21,149.52Zm-5.94-13.59c-.07-.27-.14-.36-.36-.36s-.28.09-.35.36L147,142.46h3.87Z"/><path class="c" d="M170,149.52h-2.22a1.18,1.18,0,0,1-1.34-.79L161.58,138c-.06-.14-.13-.18-.19-.18s-.11,0-.11.18v11.06a.42.42,0,0,1-.42.44H159a.44.44,0,0,1-.44-.44v-15a.87.87,0,0,1,.88-.88h2.38c.46,0,.7.13,1,.7l5.13,11.31c0,.11.11.18.18.18s.11-.07.11-.2V133.59a.39.39,0,0,1,.41-.41h1.9a.39.39,0,0,1,.41.41v15A.87.87,0,0,1,170,149.52Z"/><path class="c" d="M180,149.7a37.63,37.63,0,0,1-4.34-.26.61.61,0,0,1-.57-.69V134a.61.61,0,0,1,.57-.69A37.63,37.63,0,0,1,180,133c4.4,0,6.91,2.38,6.91,6.73V143C186.91,147.32,184.4,149.7,180,149.7Zm3.87-10c0-3.3-1.67-4.16-3.87-4.16-.82,0-1.39.05-1.85.07v11.42c.46,0,1,.07,1.85.07,2.2,0,3.87-.86,3.87-4.16Z"/></g></g><rect class="c" y="161.52" width="390" height="72.14" rx="12"/><rect class="d" x="1" y="162.52" width="388" height="70.14" rx="11"/><g class="b"><g class="b"><path class="e" d="M35.72,191.36l-4.29,15c-.81,2.8-1.77,3.84-4.76,3.84a10.72,10.72,0,0,1-2.18-.23c-.32-.08-.55-.16-.55-.42v-1c0-.28.21-.41.49-.41h.08c.57.05,1.74.15,2.32.15,1.48,0,2.13-.39,2.57-2.21l.26-1.06H29.3c-.78,0-1.46-.19-1.93-1.8l-3.46-11.88a.55.55,0,0,1,0-.18.41.41,0,0,1,.46-.44h1.44a.52.52,0,0,1,.44.41l3.07,11.29c.13.52.31.57.49.57h.42l3.17-11.88a.52.52,0,0,1,.49-.39h1.46a.4.4,0,0,1,.41.44A.55.55,0,0,1,35.72,191.36Z"/><path class="e" d="M48,205H46.77a.52.52,0,0,1-.52-.52v-.58a7.92,7.92,0,0,1-4,1.28c-2.21,0-4.24-1-4.24-4.21v-.32c0-2.8,1.64-4.21,6.27-4.21H46.2v-1c0-2.18-.76-2.94-2.79-2.94a38.71,38.71,0,0,0-4,.21H39.3c-.23,0-.46-.08-.46-.41v-.91c0-.29.18-.45.54-.5a22.66,22.66,0,0,1,4-.34c3.62,0,5.07,1.82,5.07,4.89v9.08A.52.52,0,0,1,48,205Zm-1.76-6.92H44.27c-3.15,0-4,.7-4,2.55V201c0,1.87.89,2.37,2.4,2.37a7.24,7.24,0,0,0,3.51-1Z"/><path class="e" d="M57.9,192.53a6.65,6.65,0,0,0-3.59,1.09v10.9a.54.54,0,0,1-.52.52H52.51a.52.52,0,0,1-.49-.52V191.26a.5.5,0,0,1,.49-.52h1.23a.5.5,0,0,1,.49.52v.54a6.23,6.23,0,0,1,3.67-1.25c.36,0,.54.16.54.47v1.07C58.44,192.37,58.26,192.53,57.9,192.53Z"/><path class="e" d="M71.34,205H70.09a.52.52,0,0,1-.52-.52V196c0-2.62-.88-3.43-2.86-3.43a8.32,8.32,0,0,0-3.51,1v11a.54.54,0,0,1-.52.52H61.4a.52.52,0,0,1-.49-.52V191.26a.5.5,0,0,1,.49-.52h1.3a.5.5,0,0,1,.5.52v.49a7.8,7.8,0,0,1,4.13-1.2c3.12,0,4.53,1.95,4.53,5.41v8.56A.53.53,0,0,1,71.34,205Z"/><path class="e" d="M87.14,205.22a25.31,25.31,0,0,1-4.78-.44c-.47-.08-.55-.24-.55-.6V186a.48.48,0,0,1,.47-.5h1.33a.49.49,0,0,1,.49.5v4.83a18.72,18.72,0,0,1,3-.26c3.78,0,5.67,2.29,5.67,6.37v1.88C92.81,202.7,91,205.22,87.14,205.22Zm3.38-8.3c0-2.78-.83-4.36-3.38-4.36a19.82,19.82,0,0,0-3,.18v10.32c.89.08,2.16.16,3,.16,2.58,0,3.38-1.59,3.38-4.42Z"/><path class="e" d="M106.33,205H105a.5.5,0,0,1-.49-.52V204a7.81,7.81,0,0,1-4.14,1.2c-3.12,0-4.52-1.95-4.52-5.41v-8.55a.52.52,0,0,1,.52-.52h1.25a.52.52,0,0,1,.52.52v8.55c0,2.63.88,3.43,2.86,3.43a8.22,8.22,0,0,0,3.51-1v-11a.54.54,0,0,1,.52-.52h1.27a.52.52,0,0,1,.5.52v13.26A.51.51,0,0,1,106.33,205Z"/><path class="e" d="M112.47,188.45h-1.33a.53.53,0,0,1-.52-.52v-2.08a.52.52,0,0,1,.52-.52h1.33a.52.52,0,0,1,.52.52v2.08A.53.53,0,0,1,112.47,188.45Zm0,16.59h-1.25a.52.52,0,0,1-.52-.52V191.26a.52.52,0,0,1,.52-.52h1.25a.52.52,0,0,1,.52.52v13.26A.53.53,0,0,1,112.42,205Z"/><path class="e" d="M118.86,205h-1.35a.5.5,0,0,1-.47-.52V186a.48.48,0,0,1,.47-.5h1.35a.48.48,0,0,1,.47.5v18.54A.49.49,0,0,1,118.86,205Z"/><path class="e" d="M133.11,204.78a25.16,25.16,0,0,1-4.78.44c-3.88,0-5.67-2.52-5.67-6.42v-1.88c0-4.08,1.87-6.37,5.67-6.37a19.19,19.19,0,0,1,3,.26V186a.5.5,0,0,1,.49-.5h1.33a.48.48,0,0,1,.47.5v18.2C133.66,204.52,133.58,204.7,133.11,204.78Zm-1.74-12a19.6,19.6,0,0,0-3-.18c-2.55,0-3.38,1.58-3.38,4.36v1.88c0,2.83.8,4.42,3.38,4.42.88,0,2.16-.08,3-.16Z"/></g></g><g class="b"><g class="b"><path class="c" d="M9.76,282.7a16.36,16.36,0,0,1-3.89-.4.46.46,0,0,1-.42-.44v-1.58a.42.42,0,0,1,.42-.42h0c.88.11,3.08.22,3.9.22,2,0,2.55-.7,2.55-2,0-.86-.42-1.3-1.87-2.15l-2.9-1.74c-2-1.21-2.6-2.49-2.6-4,0-2.42,1.41-4.18,5.5-4.18a24.25,24.25,0,0,1,4.23.4.43.43,0,0,1,.39.41v1.63a.38.38,0,0,1-.37.4h-.05c-1.45-.13-2.9-.22-4.33-.22-1.63,0-2.31.57-2.31,1.56,0,.73.37,1.17,1.8,2l2.64,1.47c2.42,1.35,3.06,2.75,3.06,4.49C15.55,280.32,14.17,282.7,9.76,282.7Z"/><path class="c" d="M29.17,268.73H25.32v13.35a.44.44,0,0,1-.44.44H22.7a.44.44,0,0,1-.44-.44V268.73H18.41a.41.41,0,0,1-.44-.4v-1.74a.42.42,0,0,1,.44-.41H29.17a.42.42,0,0,1,.44.41v1.74A.41.41,0,0,1,29.17,268.73Z"/><path class="c" d="M42.79,282.52H40.46a.46.46,0,0,1-.42-.37L39,278H34l-1,4.18a.46.46,0,0,1-.42.37H30.2a.37.37,0,0,1-.39-.37s0-.07,0-.11l3.61-13.8A2.82,2.82,0,0,1,36.49,266a2.83,2.83,0,0,1,3.06,2.24L43.16,282s0,.09,0,.11A.37.37,0,0,1,42.79,282.52Zm-5.94-13.59c-.07-.27-.14-.36-.36-.36s-.28.09-.35.36l-1.58,6.53h3.87Z"/><path class="c" d="M57.75,282.52H55.06c-.24,0-.33-.22-.44-.44l-3.17-5.87h-.3c-.58,0-1.46-.07-2-.09v6a.42.42,0,0,1-.42.44h-2.2a.44.44,0,0,1-.44-.44V267c0-.44.26-.6.7-.66a29.56,29.56,0,0,1,4.32-.29c3.39,0,6.33,1.21,6.33,5v.2a4.45,4.45,0,0,1-3,4.49L58,282.08a.35.35,0,0,1,0,.18A.24.24,0,0,1,57.75,282.52ZM54.45,271c0-1.65-1.1-2.35-3.3-2.35-.47,0-1.57,0-2,.09v5c.35,0,1.58.06,2,.06,2.26,0,3.3-.61,3.3-2.55Z"/><path class="c" d="M70.68,268.73H66.83v13.35a.44.44,0,0,1-.44.44H64.21a.44.44,0,0,1-.44-.44V268.73H59.92a.41.41,0,0,1-.44-.4v-1.74a.42.42,0,0,1,.44-.41H70.68a.41.41,0,0,1,.44.41v1.74A.41.41,0,0,1,70.68,268.73Z"/><path class="c" d="M89.85,282.35a16.62,16.62,0,0,1-3.48.35c-2.64,0-6.23-1.3-6.23-6.73v-3.24c0-5.52,3.59-6.73,6.23-6.73a16.62,16.62,0,0,1,3.48.35c.28.09.48.2.48.51v1.47c0,.27-.11.46-.44.46h0c-.77-.06-2.27-.17-3.44-.17-1.85,0-3.19,1-3.19,4.11V276c0,3.06,1.34,4.11,3.19,4.11,1.17,0,2.67-.11,3.44-.17h0c.33,0,.44.19.44.46v1.47C90.33,282.15,90.13,282.26,89.85,282.35Z"/><path class="c" d="M99.13,282.7c-3.63,0-6.27-2-6.27-6.87v-3c0-4.85,2.64-6.87,6.27-6.87s6.27,2,6.27,6.87v3C105.4,280.68,102.76,282.7,99.13,282.7Zm3.19-9.83c0-2.91-1-4.21-3.19-4.21s-3.19,1.3-3.19,4.21v3c0,2.91,1,4.21,3.19,4.21s3.19-1.3,3.19-4.21Z"/><path class="c" d="M122.89,282.52h-2.22a.42.42,0,0,1-.36-.44V271.85c0-.15,0-.22-.06-.22s-.07.07-.11.13L118,276a.8.8,0,0,1-.71.37H115.1a.78.78,0,0,1-.7-.37l-2.14-4.21c0-.06-.09-.13-.11-.13s-.06.07-.06.22v10.23a.42.42,0,0,1-.36.44h-2.22a.33.33,0,0,1-.37-.33V267.06a.87.87,0,0,1,.88-.88h1.8a1,1,0,0,1,.82.52l3.32,6.74c.11.19.15.31.24.31s.13-.12.24-.31l3.33-6.74a.92.92,0,0,1,.81-.52h1.8a.87.87,0,0,1,.88.88v15.13A.33.33,0,0,1,122.89,282.52Z"/><path class="c" d="M141.19,282.52H139a.41.41,0,0,1-.35-.44V271.85c0-.15,0-.22-.07-.22s-.06.07-.11.13L136.33,276a.79.79,0,0,1-.7.37H133.4a.79.79,0,0,1-.7-.37l-2.13-4.21c0-.06-.09-.13-.11-.13s-.07.07-.07.22v10.23a.41.41,0,0,1-.35.44h-2.22a.34.34,0,0,1-.38-.33V267.06a.88.88,0,0,1,.88-.88h1.81a.92.92,0,0,1,.81.52l3.32,6.74c.11.19.16.31.24.31s.14-.12.25-.31l3.32-6.74a.92.92,0,0,1,.81-.52h1.81a.88.88,0,0,1,.88.88v15.13A.34.34,0,0,1,141.19,282.52Z"/><path class="c" d="M157.5,282.52h-2.34a.47.47,0,0,1-.42-.37l-1-4.18h-5.06l-1,4.18a.46.46,0,0,1-.42.37h-2.33a.38.38,0,0,1-.4-.37.81.81,0,0,0,0-.11l3.6-13.8a3.21,3.21,0,0,1,6.12,0l3.61,13.8s0,.09,0,.11A.37.37,0,0,1,157.5,282.52Zm-5.95-13.59c-.06-.27-.13-.36-.35-.36s-.28.09-.35.36l-1.58,6.53h3.87Z"/><path class="c" d="M172.32,282.52H170.1a1.18,1.18,0,0,1-1.34-.79L163.87,271c-.06-.14-.13-.18-.19-.18s-.11,0-.11.18v11.06a.42.42,0,0,1-.42.44h-1.87a.44.44,0,0,1-.44-.44v-15a.87.87,0,0,1,.88-.88h2.37c.47,0,.71.13,1,.7l5.13,11.31c0,.11.11.18.17.18s.11-.07.11-.2V266.59a.4.4,0,0,1,.42-.41h1.9a.39.39,0,0,1,.41.41v15.05A.87.87,0,0,1,172.32,282.52Z"/><path class="c" d="M182.29,282.7a37.63,37.63,0,0,1-4.34-.26.61.61,0,0,1-.57-.69V267a.61.61,0,0,1,.57-.69,37.63,37.63,0,0,1,4.34-.26c4.4,0,6.91,2.38,6.91,6.73V276C189.2,280.32,186.69,282.7,182.29,282.7Zm3.87-10c0-3.3-1.67-4.16-3.87-4.16-.82,0-1.39.05-1.85.07v11.42c.46,0,1,.07,1.85.07,2.2,0,3.87-.86,3.87-4.16Z"/></g></g><rect class="c" y="294.52" width="390" height="72.14" rx="12"/><rect class="d" x="1" y="295.52" width="388" height="70.14" rx="11"/><g class="b"><g class="b"><path class="e" d="M35.72,324.36l-4.29,15c-.81,2.8-1.77,3.84-4.76,3.84a10.72,10.72,0,0,1-2.18-.23c-.32-.08-.55-.16-.55-.42v-1c0-.28.21-.41.49-.41h.08c.57,0,1.74.15,2.32.15,1.48,0,2.13-.39,2.57-2.21l.26-1.06H29.3c-.78,0-1.46-.19-1.93-1.8l-3.46-11.88a.55.55,0,0,1,0-.18.41.41,0,0,1,.46-.44h1.44a.52.52,0,0,1,.44.41l3.07,11.29c.13.52.31.57.49.57h.42l3.17-11.88a.52.52,0,0,1,.49-.39h1.46a.4.4,0,0,1,.41.44A.55.55,0,0,1,35.72,324.36Z"/><path class="e" d="M48,338H46.77a.52.52,0,0,1-.52-.52v-.58a7.92,7.92,0,0,1-4,1.28c-2.21,0-4.24-1-4.24-4.21v-.32c0-2.8,1.64-4.21,6.27-4.21H46.2v-1c0-2.18-.76-2.94-2.79-2.94a38.71,38.71,0,0,0-4,.21H39.3c-.23,0-.46-.08-.46-.41v-.91c0-.29.18-.45.54-.5a22.66,22.66,0,0,1,4-.34c3.62,0,5.07,1.82,5.07,4.89v9.08A.52.52,0,0,1,48,338Zm-1.76-6.92H44.27c-3.15,0-4,.7-4,2.55V334c0,1.87.89,2.37,2.4,2.37a7.24,7.24,0,0,0,3.51-1Z"/><path class="e" d="M57.9,325.53a6.65,6.65,0,0,0-3.59,1.09v10.9a.54.54,0,0,1-.52.52H52.51a.52.52,0,0,1-.49-.52V324.26a.5.5,0,0,1,.49-.52h1.23a.5.5,0,0,1,.49.52v.54a6.23,6.23,0,0,1,3.67-1.25c.36,0,.54.16.54.47v1.07C58.44,325.37,58.26,325.53,57.9,325.53Z"/><path class="e" d="M71.34,338H70.09a.52.52,0,0,1-.52-.52V329c0-2.62-.88-3.43-2.86-3.43a8.32,8.32,0,0,0-3.51,1v11a.54.54,0,0,1-.52.52H61.4a.52.52,0,0,1-.49-.52V324.26a.5.5,0,0,1,.49-.52h1.3a.5.5,0,0,1,.5.52v.49a7.8,7.8,0,0,1,4.13-1.2c3.12,0,4.53,1.95,4.53,5.41v8.56A.53.53,0,0,1,71.34,338Z"/><path class="e" d="M86,338.22a20.38,20.38,0,0,1-4.11-.39c-.34-.08-.54-.24-.54-.52v-.91a.41.41,0,0,1,.46-.39h.11c1.25.15,3.14.28,4.08.28,1.69,0,2.57-.44,2.57-1.84,0-.78-.46-1.28-1.95-2.16L84,330.73c-1.59-1-2.65-2.08-2.65-3.72,0-2.7,2-3.46,4.7-3.46a24.13,24.13,0,0,1,4.06.34.49.49,0,0,1,.49.52v.86a.4.4,0,0,1-.44.44h-.08c-.91-.08-2.57-.21-4-.21s-2.42.19-2.42,1.51c0,.78.6,1.28,1.8,2L88,330.52c2.16,1.28,2.86,2.39,2.86,3.93C90.86,337.1,88.91,338.22,86,338.22Z"/><path class="e" d="M100.72,338.09a12.37,12.37,0,0,1-1.69.13c-2.4,0-3.54-.63-3.54-3.49v-9.07L93,325.37c-.29,0-.5-.18-.5-.46v-.71a.46.46,0,0,1,.5-.46h2.52v-2.55a.53.53,0,0,1,.47-.52l1.35-.21h.08a.41.41,0,0,1,.39.44v2.84h2.81a.52.52,0,0,1,.52.52v.88a.52.52,0,0,1-.52.52H97.78v9.07c0,1.43.36,1.64,1.4,1.64h1.46c.36,0,.54.11.54.37v.91C101.18,337.88,101.05,338,100.72,338.09Z"/><path class="e" d="M113,338h-1.2a.53.53,0,0,1-.52-.52v-.58a7.86,7.86,0,0,1-4,1.28c-2.21,0-4.24-1-4.24-4.21v-.32c0-2.8,1.64-4.21,6.27-4.21h1.92v-1c0-2.18-.75-2.94-2.78-2.94a38.93,38.93,0,0,0-4,.21h-.13c-.23,0-.47-.08-.47-.41v-.91c0-.29.19-.45.55-.5a22.57,22.57,0,0,1,4-.34c3.61,0,5.07,1.82,5.07,4.89v9.08A.52.52,0,0,1,113,338Zm-1.77-6.92h-1.92c-3.15,0-4,.7-4,2.55V334c0,1.87.88,2.37,2.39,2.37a7.21,7.21,0,0,0,3.51-1Z"/><path class="e" d="M123,325.53a6.67,6.67,0,0,0-3.59,1.09v10.9a.54.54,0,0,1-.52.52h-1.27a.52.52,0,0,1-.49-.52V324.26a.49.49,0,0,1,.49-.52h1.22a.5.5,0,0,1,.5.52v.54a6.2,6.2,0,0,1,3.66-1.25c.37,0,.55.16.55.47v1.07C123.52,325.37,123.34,325.53,123,325.53Z"/><path class="e" d="M133.11,338.09a12.25,12.25,0,0,1-1.69.13c-2.39,0-3.53-.63-3.53-3.49v-9.07l-2.53-.29a.47.47,0,0,1-.49-.46v-.71a.45.45,0,0,1,.49-.46h2.53v-2.55a.53.53,0,0,1,.46-.52l1.36-.21h.07a.41.41,0,0,1,.39.44v2.84H133a.52.52,0,0,1,.52.52v.88a.52.52,0,0,1-.52.52h-2.81v9.07c0,1.43.37,1.64,1.41,1.64H133c.37,0,.55.11.55.37v.91C133.58,337.88,133.45,338,133.11,338.09Z"/></g></g><rect class="a" y="28.52" width="390" height="72.14" rx="12"/><path class="f" d="M378,100.66H12a12,12,0,0,1-12-12V40.52a12,12,0,0,1,12-12H378a12,12,0,0,1,12,12V88.66A12,12,0,0,1,378,100.66ZM12,31.52a9,9,0,0,0-9,9V88.66a9,9,0,0,0,9,9H378a9,9,0,0,0,9-9V40.52a9,9,0,0,0-9-9Z"/><rect class="a" y="161.52" width="390" height="72.14" rx="12"/><path class="f" d="M378,233.66H12a12,12,0,0,1-12-12V173.52a12,12,0,0,1,12-12H378a12,12,0,0,1,12,12v48.14A12,12,0,0,1,378,233.66ZM12,164.52a9,9,0,0,0-9,9v48.14a9,9,0,0,0,9,9H378a9,9,0,0,0,9-9V173.52a9,9,0,0,0-9-9Z"/><rect class="a" y="294.52" width="390" height="72.14" rx="12"/><path class="f" d="M378,366.66H12a12,12,0,0,1-12-12V306.52a12,12,0,0,1,12-12H378a12,12,0,0,1,12,12v48.14A12,12,0,0,1,378,366.66ZM12,297.52a9,9,0,0,0-9,9v48.14a9,9,0,0,0,9,9H378a9,9,0,0,0,9-9V306.52a9,9,0,0,0-9-9Z"/><g class="g"><circle class="f" cx="347.23" cy="64.52" r="14"/><path class="c" d="M346.09,72a2,2,0,0,1-1.45-.62l-4.93-5.23a2,2,0,0,1,2.91-2.75L346.07,67l6.49-7.13a2,2,0,0,1,3,2.69l-7.95,8.73a2,2,0,0,1-1.46.65Z"/><circle class="f" cx="347.23" cy="197.52" r="14"/><path class="c" d="M346.09,205a2,2,0,0,1-1.45-.62l-4.93-5.23a2,2,0,1,1,2.91-2.75l3.45,3.66,6.49-7.13a2,2,0,0,1,3,2.69l-7.95,8.73a2,2,0,0,1-1.46.65Z"/><circle class="f" cx="347.23" cy="330.52" r="14"/><path class="c" d="M346.09,338a2,2,0,0,1-1.45-.62l-4.93-5.23a2,2,0,1,1,2.91-2.75l3.45,3.66,6.49-7.13a2,2,0,0,1,3,2.69l-7.95,8.73a2,2,0,0,1-1.46.65Z"/></g><rect class="c" x="254.87" y="400.52" width="135.13" height="56" rx="12"/><g class="b"><g class="b"><path class="h" d="M286,437.59a33.74,33.74,0,0,1-4.37-.24.55.55,0,0,1-.51-.6V420.26a.57.57,0,0,1,.51-.6,33.74,33.74,0,0,1,4.37-.24c4.44,0,7.27,2.28,7.27,7.47v3.24C293.23,435.26,290.4,437.59,286,437.59Zm5.09-10.7c0-4.35-2.21-5.6-5.09-5.6-1.13,0-1.88,0-2.67.08v14.3c.77.05,1.54.05,2.67.05,2.88,0,5.09-1.27,5.09-5.59Z"/><path class="h" d="M307,437.47c-.92.1-3.27.12-4.68.12-3.36,0-5.12-1.27-5.12-4.46v-9.24c0-3.2,1.76-4.47,5.12-4.47,1.41,0,3.67.05,4.68.15a.34.34,0,0,1,.24.33v1.2a.26.26,0,0,1-.27.29H302.3c-2.54,0-2.95.67-2.95,2.5v3.33h7.37a.49.49,0,0,1,.48.48v.92a.48.48,0,0,1-.48.47h-7.37v4c0,1.82.41,2.49,2.95,2.49h4.63a.26.26,0,0,1,.27.29v1.22A.34.34,0,0,1,307,437.47Z"/><path class="h" d="M315.64,430.32c-.76,0-1.77-.07-2.4-.12v6.74a.45.45,0,0,1-.43.48h-1.29a.46.46,0,0,1-.44-.48V420.21a.6.6,0,0,1,.58-.6,38.48,38.48,0,0,1,4-.19c3.89,0,6.72,1.35,6.72,5.21v.31C322.36,429,319.53,430.32,315.64,430.32Zm4.54-5.69c0-2.42-1.44-3.36-4.54-3.36-.74,0-1.82.05-2.4.1v7c.56,0,1.78.09,2.4.09,3.29,0,4.54-1.05,4.54-3.55Z"/><path class="h" d="M335.8,437.38a41.73,41.73,0,0,1-4.68.21c-2.56,0-5.11-.5-5.11-4.46V420.07a.49.49,0,0,1,.48-.48h1.23a.49.49,0,0,1,.48.48v13.06c0,1.82.4,2.49,2.95,2.49h4.63a.26.26,0,0,1,.26.29V437A.35.35,0,0,1,335.8,437.38Z"/><path class="h" d="M344,437.59c-3.77,0-6.51-2.21-6.51-7.54V427c0-5.33,2.74-7.54,6.51-7.54s6.48,2.21,6.48,7.54v3.09C350.52,435.38,347.8,437.59,344,437.59ZM348.31,427c0-4-1.63-5.57-4.27-5.57s-4.3,1.54-4.3,5.57v3.09c0,4,1.66,5.57,4.3,5.57s4.27-1.53,4.27-5.57Z"/><path class="h" d="M364.82,420.19l-3.72,8.35a2.81,2.81,0,0,1-1.3,1.59v6.81a.47.47,0,0,1-.43.48h-1.32a.47.47,0,0,1-.43-.48v-6.81a2.81,2.81,0,0,1-1.3-1.59l-3.69-8.35a.6.6,0,0,1-.07-.26.35.35,0,0,1,.4-.34h1.47a.55.55,0,0,1,.43.34l3.31,7.77c.24.55.41.63.55.63s.32-.08.56-.63l3.33-7.77a.49.49,0,0,1,.41-.34h1.46c.25,0,.41.14.41.34A.6.6,0,0,1,364.82,420.19Z"/></g></g></svg>