<svg xmlns="http://www.w3.org/2000/svg" viewBox="0 0 390 480"><defs><style>.a{fill:#242a55;}.b{fill:none;stroke:#d2ddeb;stroke-width:2px;}.c{isolation:isolate;}.d{fill:#eff1f4;}.e{fill:#5aedc5;}.f{fill:#f8f7f8;}</style></defs><title>step-01</title><path class="a" d="M12,98.67H378a12.05,12.05,0,0,1,12,12.1V467.9A12.05,12.05,0,0,1,378,480H12A12.05,12.05,0,0,1,0,467.9V110.77A12.05,12.05,0,0,1,12,98.67Z"/><path class="b" d="M12,99.68H378a11,11,0,0,1,11,11.09V467.9A11,11,0,0,1,378,479H12A11,11,0,0,1,1,467.9V110.77A11,11,0,0,1,12,99.68Z"/><g class="c"><g class="c"><path class="a" d="M9.76,16.7a16.36,16.36,0,0,1-3.89-.4.46.46,0,0,1-.42-.44V14.28a.42.42,0,0,1,.42-.42h0c.88.11,3.08.22,3.9.22,2,0,2.55-.7,2.55-2,0-.86-.42-1.3-1.87-2.15L7.59,8.21C5.54,7,5,5.72,5,4.18,5,1.76,6.4,0,10.49,0a24.25,24.25,0,0,1,4.23.4.43.43,0,0,1,.39.41V2.44a.38.38,0,0,1-.37.4h-.05c-1.45-.13-2.9-.22-4.33-.22-1.63,0-2.31.57-2.31,1.56,0,.73.37,1.17,1.8,2l2.64,1.47c2.42,1.35,3.06,2.75,3.06,4.49C15.55,14.32,14.17,16.7,9.76,16.7Z"/><path class="a" d="M28.33,16.39a20.62,20.62,0,0,1-4.18.31c-2.86,0-5.08-.77-5.08-4.51V4.51C19.07.77,21.29,0,24.15,0a20.62,20.62,0,0,1,4.18.31c.33,0,.44.15.44.46V2.18a.44.44,0,0,1-.44.44H23.84c-1.27,0-1.73.44-1.73,1.89V6.89h6a.44.44,0,0,1,.44.44V8.91a.44.44,0,0,1-.44.44h-6v2.84c0,1.45.46,1.89,1.73,1.89h4.49a.44.44,0,0,1,.44.44v1.41C28.77,16.24,28.66,16.35,28.33,16.39Z"/><path class="a" d="M44.24,16.52H41.56c-.25,0-.34-.22-.44-.44L38,10.21h-.31c-.57,0-1.45-.07-2-.09v6a.42.42,0,0,1-.42.44h-2.2a.44.44,0,0,1-.44-.44V1c0-.44.27-.6.71-.66A29.31,29.31,0,0,1,37.64,0C41,0,44,1.21,44,5v.2a4.46,4.46,0,0,1-3,4.49l3.46,6.42a.35.35,0,0,1,0,.18A.24.24,0,0,1,44.24,16.52ZM40.94,5c0-1.65-1.1-2.35-3.3-2.35-.46,0-1.56,0-2,.09v5c.35,0,1.58.06,2,.06,2.26,0,3.3-.61,3.3-2.55Z"/><path class="a" d="M59.4.66l-3.61,13.8a2.83,2.83,0,0,1-3.06,2.24,2.83,2.83,0,0,1-3.06-2.24L46.06.66s0-.07,0-.11a.38.38,0,0,1,.4-.37h2.33a.47.47,0,0,1,.42.37l3.19,13.22c.06.27.13.36.35.36s.29-.09.35-.36L56.27.55a.47.47,0,0,1,.42-.37H59a.38.38,0,0,1,.4.37S59.4.62,59.4.66Z"/><path class="a" d="M65.09,16.52H62.92a.43.43,0,0,1-.44-.44V.59a.41.41,0,0,1,.44-.41h2.17a.41.41,0,0,1,.44.41V16.08A.43.43,0,0,1,65.09,16.52Z"/><path class="a" d="M79,16.35a16.62,16.62,0,0,1-3.48.35c-2.64,0-6.23-1.3-6.23-6.73V6.73C69.27,1.21,72.86,0,75.5,0A16.62,16.62,0,0,1,79,.35c.28.09.48.2.48.51V2.33c0,.27-.11.46-.44.46h0c-.77-.06-2.27-.17-3.44-.17-1.84,0-3.19,1-3.19,4.11V10c0,3.06,1.35,4.11,3.19,4.11,1.17,0,2.67-.11,3.44-.17h0c.33,0,.44.19.44.46v1.47C79.46,16.15,79.26,16.26,79,16.35Z"/><path class="a" d="M92.24,16.39a20.62,20.62,0,0,1-4.18.31c-2.86,0-5.08-.77-5.08-4.51V4.51C83,.77,85.2,0,88.06,0a20.62,20.62,0,0,1,4.18.31c.33,0,.44.15.44.46V2.18a.44.44,0,0,1-.44.44H87.75c-1.27,0-1.73.44-1.73,1.89V6.89h6a.44.44,0,0,1,.44.44V8.91a.44.44,0,0,1-.44.44H86v2.84c0,1.45.46,1.89,1.73,1.89h4.49a.44.44,0,0,1,.44.44v1.41C92.68,16.24,92.57,16.35,92.24,16.39Z"/><path class="a" d="M113,2.73h-3.85V16.08a.44.44,0,0,1-.44.44h-2.18a.44.44,0,0,1-.44-.44V2.73h-3.85a.41.41,0,0,1-.44-.4V.59a.42.42,0,0,1,.44-.41H113a.42.42,0,0,1,.44.41V2.33A.41.41,0,0,1,113,2.73Z"/><path class="a" d="M127.82.68l-3.35,7.64a2.66,2.66,0,0,1-1.34,1.6v6.16a.42.42,0,0,1-.42.44h-2.2a.42.42,0,0,1-.42-.44V9.92a2.66,2.66,0,0,1-1.34-1.6L115.43.68a.77.77,0,0,1-.05-.17.33.33,0,0,1,.36-.33h2.44a.49.49,0,0,1,.42.35l2.64,6.55c.15.38.28.45.37.45s.24-.07.4-.45L124.65.53a.48.48,0,0,1,.42-.35h2.42a.34.34,0,0,1,.37.33A.53.53,0,0,1,127.82.68Z"/><path class="a" d="M136,10.43c-.57,0-1.45-.07-1.95-.09v5.74a.42.42,0,0,1-.42.44h-2.2a.44.44,0,0,1-.44-.44V1c0-.44.26-.6.7-.66A29.52,29.52,0,0,1,136,0c3.39,0,6.34,1.19,6.34,5.08v.2C142.29,9.18,139.34,10.43,136,10.43Zm3.31-5.35c0-1.85-1.1-2.55-3.31-2.55-.46,0-1.56,0-1.95.09V7.86c.35,0,1.58.06,1.95.06,2.38,0,3.31-.88,3.31-2.64Z"/><path class="a" d="M154.85,16.39a20.62,20.62,0,0,1-4.18.31c-2.86,0-5.08-.77-5.08-4.51V4.51c0-3.74,2.22-4.51,5.08-4.51a20.62,20.62,0,0,1,4.18.31c.33,0,.44.15.44.46V2.18a.44.44,0,0,1-.44.44h-4.49c-1.27,0-1.73.44-1.73,1.89V6.89h6a.44.44,0,0,1,.44.44V8.91a.44.44,0,0,1-.44.44h-6v2.84c0,1.45.46,1.89,1.73,1.89h4.49a.44.44,0,0,1,.44.44v1.41C155.29,16.24,155.18,16.35,154.85,16.39Z"/></g></g><rect class="a" y="28.52" width="390" height="72.14" rx="12"/><rect class="b" x="1" y="29.52" width="388" height="70.14" rx="11"/><g class="c"><g class="c"><path class="d" d="M86.28,79.86H84.72a.59.59,0,0,1-.57-.57v-27a.59.59,0,0,1,.57-.57h1.56a.56.56,0,0,1,.54.57v27A.56.56,0,0,1,86.28,79.86Z"/></g></g><g class="c"><g class="c"><path class="d" d="M69.34,220.78a26.36,26.36,0,0,1-4.32-.36c-.44-.08-.49-.18-.49-.47v-1a.4.4,0,0,1,.44-.41h.08c1.2.1,3.09.15,4.29.15,3.12,0,4-1.25,4-3.07,0-1.3-.75-2-3.12-3.48l-2.52-1.53c-2.39-1.46-3.59-2.79-3.59-4.87,0-3.14,2.26-4.6,6.22-4.6a36.42,36.42,0,0,1,4.52.31c.26.06.44.19.44.45V203a.4.4,0,0,1-.44.42h0c-1.15-.08-3-.16-4.47-.16-2.68,0-3.83.58-3.83,2.47,0,1.23.86,2,2.84,3.15l2.39,1.43c3,1.79,4.08,3.22,4.08,5.3C75.76,218.08,74.46,220.78,69.34,220.78Z"/><path class="d" d="M85.72,220.65a12.37,12.37,0,0,1-1.69.13c-2.39,0-3.54-.62-3.54-3.48v-9.07L78,207.94c-.28,0-.49-.18-.49-.47v-.7a.46.46,0,0,1,.49-.47h2.52v-2.55a.54.54,0,0,1,.47-.52l1.35-.2h.08a.41.41,0,0,1,.39.44v2.83h2.81a.52.52,0,0,1,.52.52v.89a.52.52,0,0,1-.52.52H82.78v9.07c0,1.43.37,1.64,1.41,1.64h1.45c.37,0,.55.1.55.36v.91C86.19,220.45,86.06,220.6,85.72,220.65Z"/><path class="d" d="M98.83,220.6h-1.2a.52.52,0,0,1-.52-.52v-.57a7.91,7.91,0,0,1-4,1.27c-2.21,0-4.23-1-4.23-4.21v-.31c0-2.81,1.63-4.21,6.26-4.21h1.93v-1c0-2.19-.76-2.94-2.79-2.94a36,36,0,0,0-4,.21h-.13c-.24,0-.47-.08-.47-.42V207c0-.28.18-.44.54-.49a22.66,22.66,0,0,1,4-.34c3.62,0,5.08,1.82,5.08,4.89v9.07A.52.52,0,0,1,98.83,220.6Zm-1.77-6.91H95.13c-3.14,0-4,.7-4,2.54v.32c0,1.87.89,2.36,2.4,2.36a7.14,7.14,0,0,0,3.51-1Z"/><path class="d" d="M110.16,220.65a12.25,12.25,0,0,1-1.69.13c-2.39,0-3.54-.62-3.54-3.48v-9.07l-2.52-.29c-.28,0-.49-.18-.49-.47v-.7a.46.46,0,0,1,.49-.47h2.52v-2.55a.54.54,0,0,1,.47-.52l1.36-.2h.07a.41.41,0,0,1,.39.44v2.83H110a.52.52,0,0,1,.52.52v.89a.52.52,0,0,1-.52.52h-2.81v9.07c0,1.43.37,1.64,1.41,1.64h1.45c.37,0,.55.1.55.36v.91C110.63,220.45,110.5,220.6,110.16,220.65Z"/><path class="d" d="M115.93,204h-1.32a.52.52,0,0,1-.52-.52v-2.08a.52.52,0,0,1,.52-.52h1.32a.52.52,0,0,1,.52.52v2.08A.52.52,0,0,1,115.93,204Zm-.05,16.59h-1.25a.52.52,0,0,1-.52-.52V206.82a.53.53,0,0,1,.52-.52h1.25a.52.52,0,0,1,.52.52v13.26A.52.52,0,0,1,115.88,220.6Z"/><path class="d" d="M129.35,220.5a19.58,19.58,0,0,1-3.25.28c-3.54,0-5.54-2.49-5.54-6.31v-2c0-3.82,2-6.32,5.54-6.32a18.74,18.74,0,0,1,3.25.29c.42.07.52.2.52.57v.93a.4.4,0,0,1-.44.39h-.11a25.3,25.3,0,0,0-3.22-.18c-2.08,0-3.25,1.38-3.25,4.32v2c0,2.91,1.14,4.31,3.25,4.31a25.3,25.3,0,0,0,3.22-.18h.11a.4.4,0,0,1,.44.39v.94C129.87,220.26,129.77,220.42,129.35,220.5Z"/><path class="d" d="M145,220.78a19.62,19.62,0,0,1-4.11-.39c-.34-.07-.55-.23-.55-.52V219a.43.43,0,0,1,.47-.39h.11a40.21,40.21,0,0,0,4.08.29c1.69,0,2.57-.44,2.57-1.85,0-.78-.47-1.27-2-2.15L143,213.3c-1.59-1-2.66-2.08-2.66-3.72,0-2.71,2-3.46,4.71-3.46a24.23,24.23,0,0,1,4.06.34.5.5,0,0,1,.49.52v.86a.4.4,0,0,1-.44.44H149c-.91-.08-2.57-.21-4-.21s-2.42.18-2.42,1.51c0,.78.6,1.27,1.8,2l2.57,1.54c2.16,1.27,2.86,2.39,2.86,3.92C149.81,219.67,147.86,220.78,145,220.78Z"/><path class="d" d="M155.76,204h-1.32a.52.52,0,0,1-.52-.52v-2.08a.52.52,0,0,1,.52-.52h1.32a.52.52,0,0,1,.52.52v2.08A.52.52,0,0,1,155.76,204Zm0,16.59h-1.25a.52.52,0,0,1-.52-.52V206.82a.53.53,0,0,1,.52-.52h1.25a.52.52,0,0,1,.52.52v13.26A.52.52,0,0,1,155.71,220.6Z"/><path class="d" d="M168,220.65a12.25,12.25,0,0,1-1.69.13c-2.39,0-3.53-.62-3.53-3.48v-9.07l-2.52-.29c-.29,0-.5-.18-.5-.47v-.7a.46.46,0,0,1,.5-.47h2.52v-2.55a.53.53,0,0,1,.47-.52l1.35-.2h.08a.42.42,0,0,1,.39.44v2.83h2.8a.52.52,0,0,1,.52.52v.89a.52.52,0,0,1-.52.52h-2.8v9.07c0,1.43.36,1.64,1.4,1.64h1.46c.36,0,.54.1.54.36v.91C168.45,220.45,168.32,220.6,168,220.65Z"/><path class="d" d="M182.18,214.18h-8.71v.36c0,3.1,1.22,4.24,3.61,4.24a36,36,0,0,0,4.63-.28h.13c.21,0,.42.1.42.36v.88c0,.34-.11.52-.52.6a23.28,23.28,0,0,1-4.66.44c-3,0-5.9-1.4-5.9-6.24V212.2c0-3.71,2.06-6.08,5.77-6.08s5.72,2.39,5.72,6.08v1.41C182.67,214,182.49,214.18,182.18,214.18Zm-1.82-2c0-2.93-1.12-4.08-3.41-4.08s-3.48,1.28-3.48,4.08v.24h6.89Z"/><path class="d" d="M190.76,220.78a19.68,19.68,0,0,1-4.11-.39c-.34-.07-.54-.23-.54-.52V219a.42.42,0,0,1,.46-.39h.11a40.41,40.41,0,0,0,4.08.29c1.69,0,2.57-.44,2.57-1.85,0-.78-.46-1.27-2-2.15l-2.62-1.56c-1.59-1-2.65-2.08-2.65-3.72,0-2.71,2-3.46,4.7-3.46a24.13,24.13,0,0,1,4.06.34c.34,0,.49.23.49.52v.86a.4.4,0,0,1-.44.44h-.08c-.91-.08-2.57-.21-4-.21s-2.42.18-2.42,1.51c0,.78.6,1.27,1.8,2l2.57,1.54c2.16,1.27,2.86,2.39,2.86,3.92C195.62,219.67,193.67,220.78,190.76,220.78Z"/></g></g><path class="e" d="M35.09,159a2,2,0,0,1-1.45-.62l-4.93-5.23a2,2,0,1,1,2.91-2.75L35.07,154l6.49-7.13a2,2,0,0,1,3,2.69l-8,8.73a2,2,0,0,1-1.46.65Z"/><g class="c"><g class="c"><path class="d" d="M83.33,142.75l-2.89,17.58a1.4,1.4,0,0,1-1.61,1.32H77.71a1.57,1.57,0,0,1-1.48-1.3l-2.55-9.62c-.05-.23-.08-.23-.15-.23h-.06c-.07,0-.1,0-.15.23l-2.57,9.62a1.57,1.57,0,0,1-1.49,1.3H68.17a1.4,1.4,0,0,1-1.61-1.32l-2.89-17.58v-.08a.42.42,0,0,1,.44-.44h1.51a.47.47,0,0,1,.44.44l2.53,16.57c0,.26,0,.39.13.39s.13-.16.18-.39l2.55-9.62a1.15,1.15,0,0,1,1.22-1h1.66a1.17,1.17,0,0,1,1.23,1l2.54,9.62c.06.23.08.39.19.39s.07-.13.12-.39l2.53-16.57a.47.47,0,0,1,.44-.44h1.51a.42.42,0,0,1,.44.44Z"/><path class="d" d="M96.49,155.13H87.78v.36c0,3.1,1.22,4.24,3.61,4.24a34.28,34.28,0,0,0,4.63-.29h.13a.37.37,0,0,1,.41.37v.88c0,.34-.1.52-.52.6a23.25,23.25,0,0,1-4.65.44c-3,0-5.9-1.4-5.9-6.24v-2.34c0-3.72,2.05-6.08,5.77-6.08S97,149.46,97,153.15v1.41C97,154.89,96.8,155.13,96.49,155.13Zm-1.82-2c0-2.94-1.12-4.08-3.41-4.08s-3.48,1.27-3.48,4.08v.24h6.89Z"/><path class="d" d="M106.21,161.73a25.49,25.49,0,0,1-4.79-.44c-.46-.08-.54-.23-.54-.6v-18.2a.47.47,0,0,1,.47-.49h1.32a.5.5,0,0,1,.5.49v4.84a18.72,18.72,0,0,1,3-.26c3.77,0,5.67,2.29,5.67,6.37v1.87C111.88,159.21,110.11,161.73,106.21,161.73Zm3.38-8.29c0-2.78-.83-4.37-3.38-4.37a21,21,0,0,0-3,.18v10.32c.88.08,2.16.16,3,.16,2.57,0,3.38-1.59,3.38-4.42Z"/><path class="d" d="M127.11,161.73a20.38,20.38,0,0,1-4.11-.39c-.33-.08-.54-.23-.54-.52v-.91a.43.43,0,0,1,.47-.39h.1a40.61,40.61,0,0,0,4.08.29c1.69,0,2.58-.44,2.58-1.85,0-.78-.47-1.27-2-2.16l-2.63-1.56c-1.59-1-2.65-2.08-2.65-3.71,0-2.71,2-3.46,4.7-3.46a24.13,24.13,0,0,1,4.06.34c.34.05.49.23.49.52v.85a.4.4,0,0,1-.44.45h-.08c-.91-.08-2.57-.21-4-.21s-2.41.18-2.41,1.51c0,.78.59,1.27,1.79,2l2.57,1.54c2.16,1.27,2.86,2.39,2.86,3.92C132,160.61,130,161.73,127.11,161.73Z"/><path class="d" d="M146.35,155.13h-8.71v.36c0,3.1,1.22,4.24,3.62,4.24a34.13,34.13,0,0,0,4.62-.29H146a.38.38,0,0,1,.42.37v.88c0,.34-.1.52-.52.6a23.25,23.25,0,0,1-4.65.44c-3,0-5.91-1.4-5.91-6.24v-2.34c0-3.72,2.06-6.08,5.78-6.08s5.72,2.39,5.72,6.08v1.41A.51.51,0,0,1,146.35,155.13Zm-1.82-2c0-2.94-1.12-4.08-3.4-4.08s-3.49,1.27-3.49,4.08v.24h6.89Z"/><path class="d" d="M156.62,149a6.69,6.69,0,0,0-3.59,1.1V161a.54.54,0,0,1-.52.52h-1.27a.51.51,0,0,1-.49-.52V147.77a.49.49,0,0,1,.49-.52h1.22a.5.5,0,0,1,.5.52v.55a6.2,6.2,0,0,1,3.66-1.25c.37,0,.55.15.55.47v1.06C157.17,148.89,157,149,156.62,149Z"/><path class="d" d="M171.39,147.87l-3.51,12.38c-.34,1.17-1.22,1.48-2.34,1.48s-2-.31-2.34-1.48l-3.51-12.38a.42.42,0,0,1,0-.18.4.4,0,0,1,.42-.44h1.43c.21,0,.39.16.49.49l3,11.34c.16.62.29.75.55.75s.39-.13.55-.75l3-11.34c.1-.33.28-.49.49-.49H171a.4.4,0,0,1,.42.44A.42.42,0,0,1,171.39,147.87Z"/><path class="d" d="M185,155.13h-8.71v.36c0,3.1,1.22,4.24,3.61,4.24a34.28,34.28,0,0,0,4.63-.29h.13a.38.38,0,0,1,.42.37v.88c0,.34-.11.52-.52.6a23.42,23.42,0,0,1-4.66.44c-3,0-5.9-1.4-5.9-6.24v-2.34c0-3.72,2-6.08,5.77-6.08s5.72,2.39,5.72,6.08v1.41C185.48,154.89,185.3,155.13,185,155.13Zm-1.82-2c0-2.94-1.12-4.08-3.41-4.08s-3.48,1.27-3.48,4.08v.24h6.89Z"/><path class="d" d="M195.26,149a6.67,6.67,0,0,0-3.59,1.1V161a.54.54,0,0,1-.52.52h-1.27a.52.52,0,0,1-.5-.52V147.77a.5.5,0,0,1,.5-.52h1.22a.5.5,0,0,1,.49.52v.55a6.23,6.23,0,0,1,3.67-1.25c.36,0,.54.15.54.47v1.06C195.8,148.89,195.62,149,195.26,149Z"/><path class="d" d="M203.24,161.73a20.38,20.38,0,0,1-4.11-.39c-.34-.08-.55-.23-.55-.52v-.91a.43.43,0,0,1,.47-.39h.11a40.41,40.41,0,0,0,4.08.29c1.69,0,2.57-.44,2.57-1.85,0-.78-.46-1.27-1.95-2.16l-2.62-1.56c-1.59-1-2.66-2.08-2.66-3.71,0-2.71,2-3.46,4.71-3.46a24.13,24.13,0,0,1,4.06.34c.34.05.49.23.49.52v.85a.4.4,0,0,1-.44.45h-.08c-.91-.08-2.57-.21-4-.21s-2.42.18-2.42,1.51c0,.78.6,1.27,1.8,2l2.57,1.54c2.16,1.27,2.86,2.39,2.86,3.92C208.1,160.61,206.15,161.73,203.24,161.73Z"/></g></g><g class="c"><g class="c"><path class="d" d="M44.42,56.69,41.54,74.27a1.41,1.41,0,0,1-1.62,1.32H38.81a1.57,1.57,0,0,1-1.49-1.3l-2.54-9.62c-.06-.23-.08-.23-.16-.23h0c-.08,0-.11,0-.16.23l-2.57,9.62a1.57,1.57,0,0,1-1.49,1.3H29.26a1.4,1.4,0,0,1-1.61-1.32L24.77,56.69v-.08a.42.42,0,0,1,.44-.44h1.51c.2,0,.38.15.44.44l2.52,16.56c.05.26,0,.39.13.39s.13-.15.18-.39l2.55-9.62a1.17,1.17,0,0,1,1.22-1h1.67a1.17,1.17,0,0,1,1.22,1l2.55,9.62c0,.24.07.39.18.39s.08-.13.13-.39L42,56.61a.46.46,0,0,1,.44-.44H44a.42.42,0,0,1,.44.44Z"/><path class="d" d="M57.58,69.06H48.87v.37c0,3.09,1.22,4.24,3.61,4.24a36,36,0,0,0,4.63-.29h.13c.21,0,.42.1.42.36v.89c0,.34-.11.52-.52.6a24.19,24.19,0,0,1-4.66.44c-3,0-5.9-1.4-5.9-6.24V67.09c0-3.72,2.05-6.09,5.77-6.09s5.72,2.4,5.72,6.09v1.4C58.07,68.83,57.89,69.06,57.58,69.06Zm-1.82-2c0-2.94-1.12-4.08-3.41-4.08s-3.48,1.27-3.48,4.08v.23h6.89Z"/><path class="d" d="M67.3,75.67a25.31,25.31,0,0,1-4.78-.44c-.47-.08-.55-.24-.55-.6V56.43a.48.48,0,0,1,.47-.5h1.33a.49.49,0,0,1,.49.5v4.83a18.72,18.72,0,0,1,3-.26C71.07,61,73,63.29,73,67.37v1.88C73,73.15,71.2,75.67,67.3,75.67Zm3.38-8.3c0-2.78-.83-4.36-3.38-4.36a19.82,19.82,0,0,0-3,.18V73.51c.88.08,2.16.16,3,.16,2.58,0,3.38-1.59,3.38-4.42Z"/></g></g><path class="e" d="M35.09,218a2,2,0,0,1-1.45-.62l-4.93-5.23a2,2,0,1,1,2.91-2.75L35.07,213l6.49-7.13a2,2,0,0,1,3,2.69l-8,8.73a2,2,0,0,1-1.46.65Z"/><g class="c"><g class="c"><path class="d" d="M70.07,279.71a36.53,36.53,0,0,1-4.73-.26.6.6,0,0,1-.55-.65V260.93a.62.62,0,0,1,.55-.65,36.53,36.53,0,0,1,4.73-.26c4.81,0,7.88,2.47,7.88,8.09v3.51C78,277.18,74.88,279.71,70.07,279.71Zm5.51-11.6c0-4.71-2.39-6.06-5.51-6.06-1.22,0-2,0-2.89.08v15.5c.83.05,1.67.05,2.89.05,3.12,0,5.51-1.38,5.51-6.06Z"/><path class="d" d="M87.28,279.71c-3.82,0-5.77-2.53-5.77-6.35v-2c0-3.83,1.95-6.35,5.77-6.35s5.8,2.52,5.8,6.35v2C93.08,277.18,91.1,279.71,87.28,279.71Zm3.51-8.32c0-2.66-1.07-4.35-3.51-4.35s-3.48,1.67-3.48,4.35v2c0,2.65,1,4.34,3.48,4.34s3.51-1.66,3.51-4.34Z"/><path class="d" d="M105.25,279.42a18.47,18.47,0,0,1-3.25.29c-3.54,0-5.54-2.5-5.54-6.32v-2c0-3.82,2-6.32,5.54-6.32a18.74,18.74,0,0,1,3.25.29c.41.08.52.21.52.57v.94a.4.4,0,0,1-.45.39h-.1A25.24,25.24,0,0,0,102,267c-2.08,0-3.25,1.38-3.25,4.32v2c0,2.91,1.14,4.31,3.25,4.31a25.3,25.3,0,0,0,3.22-.18h.1a.4.4,0,0,1,.45.39v.94C105.77,279.19,105.66,279.34,105.25,279.42Z"/><path class="d" d="M119.39,279.52h-1.87c-.29,0-.39-.07-.6-.33l-5.17-6.4V279a.52.52,0,0,1-.52.52H110a.52.52,0,0,1-.52-.52V260.49A.52.52,0,0,1,110,260h1.25a.53.53,0,0,1,.52.52v10.82l5.2-5.85a.56.56,0,0,1,.52-.24h1.82c.26,0,.39.13.39.29a.48.48,0,0,1-.13.29L113.83,272l5.77,7a.38.38,0,0,1,.08.24A.3.3,0,0,1,119.39,279.52Z"/><path class="d" d="M132.75,273.1H124v.37c0,3.09,1.23,4.23,3.62,4.23a36.1,36.1,0,0,0,4.63-.28h.13a.36.36,0,0,1,.41.36v.89c0,.33-.1.52-.52.59a23.22,23.22,0,0,1-4.65.45c-3,0-5.9-1.41-5.9-6.24v-2.34c0-3.72,2-6.09,5.77-6.09s5.72,2.39,5.72,6.09v1.4C133.25,272.87,133.07,273.1,132.75,273.1Zm-1.82-2c0-2.94-1.11-4.09-3.4-4.09s-3.49,1.28-3.49,4.09v.23h6.89Z"/><path class="d" d="M143,267a6.64,6.64,0,0,0-3.58,1.09V279a.54.54,0,0,1-.52.52h-1.28a.51.51,0,0,1-.49-.52V265.74a.5.5,0,0,1,.49-.52h1.22a.51.51,0,0,1,.5.52v.55A6.2,6.2,0,0,1,143,265c.37,0,.55.16.55.47v1.07C143.57,266.86,143.39,267,143,267Z"/><path class="d" d="M162.34,279.42a18.47,18.47,0,0,1-3.25.29c-3.53,0-5.54-2.5-5.54-6.32v-2c0-3.82,2-6.32,5.54-6.32a18.65,18.65,0,0,1,3.25.29c.42.08.52.21.52.57v.94a.4.4,0,0,1-.44.39h-.1a25.4,25.4,0,0,0-3.23-.19c-2.08,0-3.25,1.38-3.25,4.32v2c0,2.91,1.15,4.31,3.25,4.31a25.46,25.46,0,0,0,3.23-.18h.1a.4.4,0,0,1,.44.39v.94C162.86,279.19,162.76,279.34,162.34,279.42Z"/><path class="d" d="M170.92,279.71c-3.82,0-5.77-2.53-5.77-6.35v-2c0-3.83,1.95-6.35,5.77-6.35s5.8,2.52,5.8,6.35v2C176.72,277.18,174.74,279.71,170.92,279.71Zm3.51-8.32c0-2.66-1.06-4.35-3.51-4.35s-3.48,1.67-3.48,4.35v2c0,2.65,1,4.34,3.48,4.34s3.51-1.66,3.51-4.34Z"/><path class="d" d="M191,279.52h-1.24a.52.52,0,0,1-.52-.52v-8.55c0-2.63-.89-3.43-2.86-3.43a8.14,8.14,0,0,0-3.51,1v11a.54.54,0,0,1-.52.52h-1.28a.51.51,0,0,1-.49-.52V265.74a.5.5,0,0,1,.49-.52h1.3a.51.51,0,0,1,.5.52v.5A7.8,7.8,0,0,1,187,265c3.12,0,4.52,1.95,4.52,5.41V279A.52.52,0,0,1,191,279.52Z"/><path class="d" d="M202.43,279.58a14,14,0,0,1-1.69.13c-2.39,0-3.53-.63-3.53-3.49v-9.07l-2.52-.29a.47.47,0,0,1-.5-.47v-.7a.47.47,0,0,1,.5-.47h2.52v-2.54a.53.53,0,0,1,.47-.52L199,262h.08a.42.42,0,0,1,.39.44v2.83h2.8a.52.52,0,0,1,.52.52v.89a.52.52,0,0,1-.52.52h-2.8v9.07c0,1.43.36,1.64,1.4,1.64h1.46c.36,0,.54.1.54.36v.91C202.9,279.37,202.77,279.52,202.43,279.58Z"/><path class="d" d="M215.54,279.52h-1.2a.52.52,0,0,1-.52-.52v-.57a7.92,7.92,0,0,1-4,1.28c-2.21,0-4.24-1-4.24-4.22v-.31c0-2.81,1.64-4.21,6.27-4.21h1.92v-1c0-2.18-.75-2.94-2.78-2.94a38.93,38.93,0,0,0-4,.21h-.13c-.23,0-.47-.08-.47-.42v-.91c0-.28.18-.44.55-.49a22.48,22.48,0,0,1,4-.34c3.61,0,5.07,1.82,5.07,4.89V279A.52.52,0,0,1,215.54,279.52Zm-1.77-6.91h-1.92c-3.15,0-4,.7-4,2.55v.31c0,1.87.88,2.36,2.39,2.36a7.11,7.11,0,0,0,3.51-1Z"/><path class="d" d="M222.48,262.94h-1.33a.53.53,0,0,1-.52-.52v-2.08a.52.52,0,0,1,.52-.52h1.33a.52.52,0,0,1,.52.52v2.08A.52.52,0,0,1,222.48,262.94Zm0,16.58h-1.25a.52.52,0,0,1-.52-.52V265.74a.52.52,0,0,1,.52-.52h1.25a.53.53,0,0,1,.52.52V279A.52.52,0,0,1,222.43,279.52Z"/><path class="d" d="M238,279.52h-1.25a.52.52,0,0,1-.52-.52v-8.55c0-2.63-.88-3.43-2.86-3.43a8.22,8.22,0,0,0-3.51,1v11a.54.54,0,0,1-.52.52h-1.27a.51.51,0,0,1-.49-.52V265.74a.5.5,0,0,1,.49-.52h1.3a.5.5,0,0,1,.49.52v.5A7.81,7.81,0,0,1,234,265c3.12,0,4.52,1.95,4.52,5.41V279A.52.52,0,0,1,238,279.52Z"/><path class="d" d="M253.37,273.1h-8.71v.37c0,3.09,1.22,4.23,3.61,4.23a36.1,36.1,0,0,0,4.63-.28H253c.21,0,.42.1.42.36v.89c0,.33-.11.52-.52.59a23.39,23.39,0,0,1-4.66.45c-3,0-5.9-1.41-5.9-6.24v-2.34c0-3.72,2-6.09,5.77-6.09s5.72,2.39,5.72,6.09v1.4C253.86,272.87,253.68,273.1,253.37,273.1Zm-1.82-2c0-2.94-1.12-4.09-3.41-4.09s-3.48,1.28-3.48,4.09v.23h6.89Z"/><path class="d" d="M263.64,267a6.65,6.65,0,0,0-3.59,1.09V279a.54.54,0,0,1-.52.52h-1.27a.52.52,0,0,1-.5-.52V265.74a.51.51,0,0,1,.5-.52h1.22a.5.5,0,0,1,.49.52v.55a6.23,6.23,0,0,1,3.67-1.25c.36,0,.54.16.54.47v1.07C264.18,266.86,264,267,263.64,267Z"/><path class="d" d="M271.62,279.71a20.38,20.38,0,0,1-4.11-.39c-.34-.08-.55-.24-.55-.52v-.91a.42.42,0,0,1,.47-.39h.11c1.25.15,3.14.28,4.08.28,1.69,0,2.57-.44,2.57-1.84,0-.78-.46-1.28-1.95-2.16l-2.62-1.56c-1.59-1-2.66-2.08-2.66-3.72,0-2.7,2-3.46,4.71-3.46a24.13,24.13,0,0,1,4.06.34c.34.05.49.23.49.52v.86a.4.4,0,0,1-.44.44h-.08c-.91-.08-2.57-.21-4-.21s-2.42.18-2.42,1.51c0,.78.6,1.27,1.8,2l2.57,1.53c2.16,1.27,2.86,2.39,2.86,3.93C276.48,278.59,274.53,279.71,271.62,279.71Z"/></g></g><path class="e" d="M35.09,277a2,2,0,0,1-1.45-.62l-4.93-5.23a2,2,0,0,1,2.91-2.75L35.07,272l6.49-7.13a2,2,0,0,1,3,2.69l-8,8.73a2,2,0,0,1-1.46.65Z"/><g class="c"><g class="c"><path class="d" d="M75.5,338.37a20.25,20.25,0,0,1-4.31.34c-3.2,0-6.87-1.72-6.87-8v-3.61c0-6.37,3.67-8,6.87-8a28.28,28.28,0,0,1,4.37.42c.23,0,.41.1.41.34v1.32c0,.16,0,.29-.31.29h-.08c-.94-.08-2.86-.23-4.37-.23-2.55,0-4.52,1.48-4.52,5.9v3.61c0,4.37,2,5.9,4.52,5.9,1.49,0,3.36-.13,4.29-.2h.11a.36.36,0,0,1,.41.41v1.07C76,338.16,75.79,338.32,75.5,338.37Z"/><path class="d" d="M85.36,326a6.65,6.65,0,0,0-3.59,1.09V338a.54.54,0,0,1-.52.52H80a.51.51,0,0,1-.49-.52V324.74a.5.5,0,0,1,.49-.52H81.2a.5.5,0,0,1,.49.52v.55A6.23,6.23,0,0,1,85.36,324c.36,0,.54.16.54.47v1.07C85.9,325.86,85.72,326,85.36,326Z"/><path class="d" d="M93.81,338.71c-3.83,0-5.77-2.53-5.77-6.35v-2C88,326.56,90,324,93.81,324s5.8,2.52,5.8,6.35v2C99.61,336.18,97.63,338.71,93.81,338.71Zm3.51-8.32c0-2.66-1.07-4.35-3.51-4.35s-3.49,1.67-3.49,4.35v2c0,2.65,1,4.34,3.49,4.34s3.51-1.66,3.51-4.34Z"/><path class="d" d="M113.88,338.52h-1.25a.52.52,0,0,1-.52-.52v-8.55c0-2.63-.88-3.43-2.86-3.43a8.22,8.22,0,0,0-3.51,1v11a.54.54,0,0,1-.52.52H104a.52.52,0,0,1-.5-.52V324.74a.51.51,0,0,1,.5-.52h1.3a.5.5,0,0,1,.49.52v.5a7.8,7.8,0,0,1,4.13-1.2c3.13,0,4.53,1.95,4.53,5.41V338A.52.52,0,0,1,113.88,338.52Z"/><path class="d" d="M125.24,343.65a8.26,8.26,0,0,1-1.4-.11c-.34-.05-.47-.18-.47-.41v-1c0-.24.18-.37.54-.37H125c1,0,1.22-.31,1.22-1.61V324.74a.49.49,0,0,1,.47-.52H128a.48.48,0,0,1,.47.52v15.45C128.49,342.89,127.32,343.65,125.24,343.65ZM128,321.94H126.7a.52.52,0,0,1-.52-.5v-2.1a.54.54,0,0,1,.52-.52H128a.54.54,0,0,1,.52.52v2.1A.5.5,0,0,1,128,321.94Z"/><path class="d" d="M138.42,338.71c-3.82,0-5.77-2.53-5.77-6.35v-2c0-3.83,1.95-6.35,5.77-6.35s5.8,2.52,5.8,6.35v2C144.22,336.18,142.24,338.71,138.42,338.71Zm3.51-8.32c0-2.66-1.06-4.35-3.51-4.35s-3.48,1.67-3.48,4.35v2c0,2.65,1,4.34,3.48,4.34s3.51-1.66,3.51-4.34Z"/><path class="d" d="M153.4,338.71a24.71,24.71,0,0,1-4.79-.45c-.46-.07-.54-.23-.54-.59v-18.2a.48.48,0,0,1,.47-.5h1.32a.5.5,0,0,1,.5.5v4.83a18.63,18.63,0,0,1,3-.26c3.77,0,5.67,2.29,5.67,6.37v1.87C159.07,336.18,157.3,338.71,153.4,338.71Zm3.38-8.3c0-2.78-.83-4.37-3.38-4.37a19.7,19.7,0,0,0-3,.19v10.32c.88.08,2.15.15,3,.15,2.57,0,3.38-1.58,3.38-4.42Z"/><path class="d" d="M167.1,338.71a20.38,20.38,0,0,1-4.11-.39c-.34-.08-.54-.24-.54-.52v-.91a.41.41,0,0,1,.46-.39H163c1.25.15,3.14.28,4.08.28,1.69,0,2.57-.44,2.57-1.84,0-.78-.46-1.28-1.95-2.16l-2.62-1.56c-1.59-1-2.65-2.08-2.65-3.72,0-2.7,2-3.46,4.7-3.46a24.13,24.13,0,0,1,4.06.34c.34.05.49.23.49.52v.86a.4.4,0,0,1-.44.44h-.08c-.91-.08-2.57-.21-4-.21s-2.42.18-2.42,1.51c0,.78.6,1.27,1.8,2L169.1,331c2.16,1.27,2.86,2.39,2.86,3.93C172,337.59,170,338.71,167.1,338.71Z"/></g></g><path class="e" d="M35.09,336a2,2,0,0,1-1.45-.62l-4.93-5.23a2,2,0,0,1,2.91-2.75L35.07,331l6.49-7.13a2,2,0,0,1,3,2.69l-8,8.73a2,2,0,0,1-1.46.65Z"/><g class="c"><g class="c"><path class="d" d="M69.89,397.71a29.46,29.46,0,0,1-4.24-.24c-.6-.08-.86-.31-.86-1V379.19a.85.85,0,0,1,.83-1,39.49,39.49,0,0,1,4.14-.21c4.13,0,7.61,1.1,7.61,5v.42a4.17,4.17,0,0,1-2.78,4.08,4.26,4.26,0,0,1,2.89,4.21v.44C77.48,396.56,73.94,397.71,69.89,397.71ZM75,383c0-2.49-2.08-3-5.25-3-.89,0-1.85.05-2.58.07v6.45h4c3,0,3.82-1.45,3.82-3.09Zm.1,8.71c0-1.71-.86-3.3-3.92-3.3h-4v7.15c.86,0,1.8.1,2.71.1,3.22,0,5.22-.7,5.22-3.51Z"/><path class="d" d="M90.77,397.52h-1.2a.52.52,0,0,1-.52-.52v-.57a7.92,7.92,0,0,1-4,1.28c-2.21,0-4.23-1-4.23-4.22v-.31c0-2.81,1.63-4.21,6.26-4.21H89v-1c0-2.18-.76-2.94-2.79-2.94a38.71,38.71,0,0,0-4,.21h-.13c-.24,0-.47-.08-.47-.42v-.91c0-.28.18-.44.54-.49a22.66,22.66,0,0,1,4-.34c3.62,0,5.08,1.82,5.08,4.89V397A.52.52,0,0,1,90.77,397.52ZM89,390.61H87.07c-3.14,0-4,.7-4,2.55v.31c0,1.87.89,2.36,2.4,2.36a7.14,7.14,0,0,0,3.51-1Z"/><path class="d" d="M103.92,397.42a18.47,18.47,0,0,1-3.25.29c-3.54,0-5.54-2.5-5.54-6.32v-2c0-3.82,2-6.32,5.54-6.32a18.65,18.65,0,0,1,3.25.29c.42.08.52.21.52.57v.94a.4.4,0,0,1-.44.39h-.11a25.24,25.24,0,0,0-3.22-.19c-2.08,0-3.25,1.38-3.25,4.32v2c0,2.91,1.14,4.31,3.25,4.31a25.3,25.3,0,0,0,3.22-.18H104a.4.4,0,0,1,.44.39v.94C104.44,397.19,104.34,397.34,103.92,397.42Z"/><path class="d" d="M118.06,397.52h-1.87a.64.64,0,0,1-.6-.33l-5.17-6.4V397a.52.52,0,0,1-.52.52h-1.25a.52.52,0,0,1-.52-.52V378.49a.53.53,0,0,1,.52-.52h1.25a.52.52,0,0,1,.52.52v10.82l5.2-5.85a.57.57,0,0,1,.52-.24H118c.26,0,.39.13.39.29a.43.43,0,0,1-.13.29L112.5,390l5.77,7a.38.38,0,0,1,.08.24A.29.29,0,0,1,118.06,397.52Z"/><path class="d" d="M133.17,385l-.94.18a3.63,3.63,0,0,1,.89,2.68v.2c0,2.86-1.77,4.45-5.77,4.45a7.52,7.52,0,0,1-3-.52,1,1,0,0,0-.65.88c0,.45.21.68.81.84l3.87,1c2.55.65,5,1.38,5,3.83v.2c0,2.5-1.66,4-5.93,4-4.1,0-6-1.58-6-4.13v-.23a4.22,4.22,0,0,1,1.64-3.31l-.18-.07a2.16,2.16,0,0,1-1.2-2v0a2.14,2.14,0,0,1,1.07-1.87,3.81,3.81,0,0,1-1.2-3v-.2c0-2.32,1.3-4.61,5.78-4.61H133a.6.6,0,0,1,.6.58v.67C133.64,384.81,133.46,384.91,133.17,385Zm-2.11,13.52c0-1-.83-1.43-3.17-2L125,395.7a3.11,3.11,0,0,0-1.27,2.66v.23c0,1.46.86,2.37,3.74,2.37s3.64-.84,3.64-2.27Zm-.2-10.66c0-1.56-.71-2.79-3.51-2.79s-3.51,1.33-3.51,2.79v.2c0,1.15.52,2.66,3.51,2.66,2.8,0,3.51-1.1,3.51-2.66Z"/><path class="d" d="M143,385a6.65,6.65,0,0,0-3.59,1.09V397a.54.54,0,0,1-.52.52h-1.27a.52.52,0,0,1-.5-.52V383.74a.51.51,0,0,1,.5-.52h1.22a.5.5,0,0,1,.49.52v.55A6.23,6.23,0,0,1,143,383c.36,0,.54.16.54.47v1.07C143.54,384.86,143.36,385,143,385Z"/><path class="d" d="M151.45,397.71c-3.82,0-5.77-2.53-5.77-6.35v-2c0-3.83,1.95-6.35,5.77-6.35s5.8,2.52,5.8,6.35v2C157.25,395.18,155.27,397.71,151.45,397.71Zm3.51-8.32c0-2.66-1.07-4.35-3.51-4.35s-3.49,1.67-3.49,4.35v2c0,2.65,1,4.34,3.49,4.34S155,394,155,391.36Z"/><path class="d" d="M171.55,397.52h-1.3a.5.5,0,0,1-.5-.52v-.49a7.8,7.8,0,0,1-4.13,1.2c-3.12,0-4.53-1.95-4.53-5.41v-8.56a.53.53,0,0,1,.52-.52h1.25a.52.52,0,0,1,.52.52v8.56c0,2.62.89,3.43,2.86,3.43a8.32,8.32,0,0,0,3.51-1v-11a.54.54,0,0,1,.52-.52h1.28a.52.52,0,0,1,.49.52V397A.5.5,0,0,1,171.55,397.52Z"/><path class="d" d="M186.78,397.52h-1.25A.52.52,0,0,1,185,397v-8.55c0-2.63-.88-3.43-2.86-3.43a8.22,8.22,0,0,0-3.51,1v11a.54.54,0,0,1-.52.52h-1.27a.51.51,0,0,1-.49-.52V383.74a.5.5,0,0,1,.49-.52h1.3a.5.5,0,0,1,.49.52v.5a7.81,7.81,0,0,1,4.14-1.2c3.12,0,4.52,1.95,4.52,5.41V397A.52.52,0,0,1,186.78,397.52Z"/><path class="d" d="M201.6,397.26a24.39,24.39,0,0,1-4.78.45c-3.88,0-5.67-2.53-5.67-6.43v-1.87c0-4.08,1.87-6.37,5.67-6.37a19.19,19.19,0,0,1,3,.26v-4.83a.5.5,0,0,1,.49-.5h1.33a.48.48,0,0,1,.47.5v18.2C202.15,397,202.07,397.19,201.6,397.26Zm-1.74-12a19.62,19.62,0,0,0-3-.19c-2.55,0-3.38,1.59-3.38,4.37v1.87c0,2.84.8,4.42,3.38,4.42.88,0,2.16-.07,3-.15Z"/><path class="d" d="M231.35,383.85l-2.53,12.06c-.33,1.64-.62,1.8-2.18,1.8-1.35,0-1.72-.24-2.13-1.88L222.25,387c-.06-.18-.06-.18-.13-.18s-.08,0-.13.18l-2.27,8.84c-.39,1.51-.78,1.88-2.13,1.88-1.56,0-1.84-.19-2.18-1.8l-2.53-12.06v-.11a.52.52,0,0,1,.5-.52h1.4a.46.46,0,0,1,.44.42l2.16,11.86c.05.31.13.31.21.31s.16-.08.21-.31l2.55-10a.94.94,0,0,1,1-.78h1.45a.94.94,0,0,1,1,.78l2.55,10c0,.23.13.31.21.31s.16,0,.21-.31L229,383.64a.46.46,0,0,1,.44-.42h1.4a.52.52,0,0,1,.5.52Z"/><path class="d" d="M239.74,397.71c-3.82,0-5.77-2.53-5.77-6.35v-2c0-3.83,1.95-6.35,5.77-6.35s5.8,2.52,5.8,6.35v2C245.54,395.18,243.57,397.71,239.74,397.71Zm3.51-8.32c0-2.66-1.06-4.35-3.51-4.35s-3.48,1.67-3.48,4.35v2c0,2.65,1,4.34,3.48,4.34s3.51-1.66,3.51-4.34Z"/><path class="d" d="M255.26,385a6.64,6.64,0,0,0-3.58,1.09V397a.54.54,0,0,1-.52.52h-1.28a.51.51,0,0,1-.49-.52V383.74a.5.5,0,0,1,.49-.52h1.22a.51.51,0,0,1,.5.52v.55a6.2,6.2,0,0,1,3.66-1.25c.37,0,.55.16.55.47v1.07C255.81,384.86,255.63,385,255.26,385Z"/><path class="d" d="M269,397.52h-1.87c-.29,0-.39-.07-.6-.33l-5.17-6.4V397a.52.52,0,0,1-.52.52h-1.25a.52.52,0,0,1-.52-.52V378.49a.52.52,0,0,1,.52-.52h1.25a.53.53,0,0,1,.52.52v10.82l5.2-5.85a.56.56,0,0,1,.52-.24h1.82c.26,0,.39.13.39.29a.43.43,0,0,1-.13.29L263.43,390l5.77,7a.38.38,0,0,1,.08.24A.3.3,0,0,1,269,397.52Z"/><path class="d" d="M282.36,391.1h-8.71v.37c0,3.09,1.22,4.23,3.61,4.23a36.1,36.1,0,0,0,4.63-.28H282c.21,0,.41.1.41.36v.89c0,.33-.1.52-.52.59a23.22,23.22,0,0,1-4.65.45c-3,0-5.9-1.41-5.9-6.24v-2.34c0-3.72,2.05-6.09,5.77-6.09s5.72,2.39,5.72,6.09v1.4C282.85,390.87,282.67,391.1,282.36,391.1Zm-1.82-2c0-2.94-1.12-4.09-3.41-4.09s-3.48,1.28-3.48,4.09v.23h6.89Z"/><path class="d" d="M292.63,385a6.65,6.65,0,0,0-3.59,1.09V397a.54.54,0,0,1-.52.52h-1.28a.51.51,0,0,1-.49-.52V383.74a.5.5,0,0,1,.49-.52h1.23a.5.5,0,0,1,.49.52v.55a6.23,6.23,0,0,1,3.67-1.25c.36,0,.54.16.54.47v1.07C293.17,384.86,293,385,292.63,385Z"/><path class="d" d="M300.61,397.71a20.32,20.32,0,0,1-4.11-.39c-.34-.08-.55-.24-.55-.52v-.91a.42.42,0,0,1,.47-.39h.11c1.24.15,3.14.28,4.08.28,1.69,0,2.57-.44,2.57-1.84,0-.78-.47-1.28-1.95-2.16l-2.62-1.56c-1.59-1-2.66-2.08-2.66-3.72,0-2.7,2-3.46,4.71-3.46a24.23,24.23,0,0,1,4.06.34.5.5,0,0,1,.49.52v.86a.4.4,0,0,1-.44.44h-.08c-.91-.08-2.57-.21-4-.21s-2.42.18-2.42,1.51c0,.78.6,1.27,1.8,2l2.57,1.53c2.16,1.27,2.86,2.39,2.86,3.93C305.47,396.59,303.52,397.71,300.61,397.71Z"/></g></g><path class="e" d="M35.09,395a2,2,0,0,1-1.45-.62l-4.93-5.23a2,2,0,0,1,2.91-2.75L35.07,390l6.49-7.13a2,2,0,0,1,3,2.69l-8,8.73a2,2,0,0,1-1.46.65Z"/><circle class="f" cx="68.56" cy="437.08" r="2.25"/><circle class="f" cx="80.41" cy="437.08" r="2.25"/><circle class="f" cx="92.52" cy="437.08" r="2.25"/></svg>